<svg xmlns="http://www.w3.org/2000/svg" width="757.125" height="555.051" viewBox="0 0 757.125 555.051">
  <g id="Group_1457" data-name="Group 1457" transform="translate(-41.785 -38.541)">
    <g id="Group_1277" data-name="Group 1277" transform="translate(41.785 65.856)">
      <g id="Group_1239" data-name="Group 1239" transform="translate(75.284 124.072)">
        <g id="Group_1217" data-name="Group 1217">
          <g id="Group_1216" data-name="Group 1216">
            <path id="Path_1806" data-name="Path 1806" d="M198.167,192.291s-5.536-4.534-14.229,8.928-12.275,21.372-12.275,21.372-2.218,2.78-4.062.626-4.08-7.959-7.657-7.322c-3.709.662-5.308,4.562-5.226,10.543s-.219,19.088-.25,20.273c-.031,1.163-.867,2.8-2.359,1.531s-9.672-12.494-14.767-8.294-2.129,20.823-1.839,22.646-.136,2.546-1.024,2.9-3.282-3.68-5.739-6.778-5.849-6.26-8.587-3.589-4.757,14.707,4.76,35.568l5.043,9.378,10.683.5c22.928-.327,32.942-7.3,34.184-10.921s-3.068-5.329-6.919-6.224-8.521-1.333-8.583-2.286.411-1.647,2.183-2.166,18.064-4.952,19.679-11.354-12.033-8.991-13.815-9.8-.664-2.261.374-2.786c1.058-.536,12.777-6.418,18.216-8.9s8.281-5.6,7.292-9.234c-.955-3.506-7.157-3.041-9.894-3.787s-1.173-3.94-1.173-3.94,5.617-6.622,14.064-20.24,1.8-16.725,1.8-16.725" transform="translate(-117.879 -191.557)" fill="#ebebeb"/>
          </g>
        </g>
        <g id="Group_1220" data-name="Group 1220" transform="translate(10.187 12.777)">
          <g id="Group_1219" data-name="Group 1219">
            <g id="Group_1218" data-name="Group 1218">
              <path id="Path_1807" data-name="Path 1807" d="M128.176,301.943c6.243-9.977,17.637-27.523,27.341-42.637s18.47-28.8,24.763-38.742l7.441-11.784,2.025-3.2.533-.829c.123-.185.192-.276.192-.276s-.05.1-.163.295l-.506.846-1.973,3.235c-1.717,2.809-4.229,6.854-7.352,11.842-6.243,9.977-14.982,23.685-24.682,38.8s-21.128,32.639-27.421,42.583" transform="translate(-128.176 -204.471)" fill="#e0e0e0"/>
            </g>
          </g>
        </g>
        <g id="Group_1223" data-name="Group 1223" transform="translate(44.857 32.585)">
          <g id="Group_1222" data-name="Group 1222">
            <g id="Group_1221" data-name="Group 1221">
              <path id="Path_1808" data-name="Path 1808" d="M163.226,224.492a3.417,3.417,0,0,1,.194.746c.106.484.237,1.188.393,2.059.306,1.742.668,4.16,1.019,6.835.336,2.639.641,5.025.874,6.85.11.822.2,1.516.277,2.074a3.515,3.515,0,0,1,.073.767,3.4,3.4,0,0,1-.2-.745c-.1-.484-.236-1.188-.382-2.061-.289-1.746-.619-4.167-.97-6.842-.356-2.635-.677-5.018-.923-6.841-.114-.822-.211-1.516-.288-2.074A3.533,3.533,0,0,1,163.226,224.492Z" transform="translate(-163.218 -224.492)" fill="#e0e0e0"/>
            </g>
          </g>
        </g>
        <g id="Group_1226" data-name="Group 1226" transform="translate(48.647 48.21)">
          <g id="Group_1225" data-name="Group 1225">
            <g id="Group_1224" data-name="Group 1224">
              <path id="Path_1809" data-name="Path 1809" d="M167.049,244.279c-.016-.09,4.936-1.056,11.058-2.156s11.1-1.921,11.117-1.831-4.934,1.056-11.059,2.157S167.066,244.369,167.049,244.279Z" transform="translate(-167.049 -240.285)" fill="#e0e0e0"/>
            </g>
          </g>
        </g>
        <g id="Group_1229" data-name="Group 1229" transform="translate(32.701 74.729)">
          <g id="Group_1228" data-name="Group 1228">
            <g id="Group_1227" data-name="Group 1227">
              <path id="Path_1810" data-name="Path 1810" d="M150.932,267.1a3.722,3.722,0,0,1,.786.045l2.125.226c1.794.187,4.272.435,7.017.608s5.236.257,7.039.3l2.136.05a3.626,3.626,0,0,1,.785.056,3.6,3.6,0,0,1-.784.072c-.5.025-1.236.046-2.139.054-1.807.019-4.3-.021-7.058-.2s-5.235-.46-7.024-.707c-.894-.128-1.618-.238-2.114-.329A3.556,3.556,0,0,1,150.932,267.1Z" transform="translate(-150.932 -267.09)" fill="#e0e0e0"/>
            </g>
          </g>
        </g>
        <g id="Group_1232" data-name="Group 1232" transform="translate(25.372 57.747)">
          <g id="Group_1231" data-name="Group 1231">
            <g id="Group_1230" data-name="Group 1230">
              <path id="Path_1811" data-name="Path 1811" d="M143.527,249.925a3.063,3.063,0,0,1,.354.635q.347.727.853,1.782c.707,1.511,1.663,3.607,2.7,5.93s1.961,4.436,2.613,5.971q.448,1.079.758,1.825a3.01,3.01,0,0,1,.235.688,3.115,3.115,0,0,1-.353-.635l-.854-1.782c-.706-1.511-1.663-3.607-2.7-5.932s-1.96-4.434-2.612-5.97c-.3-.718-.551-1.329-.757-1.824A3.09,3.09,0,0,1,143.527,249.925Z" transform="translate(-143.524 -249.925)" fill="#e0e0e0"/>
            </g>
          </g>
        </g>
        <g id="Group_1235" data-name="Group 1235" transform="translate(8.767 75.853)">
          <g id="Group_1234" data-name="Group 1234">
            <g id="Group_1233" data-name="Group 1233">
              <path id="Path_1812" data-name="Path 1812" d="M126.743,268.226a5.013,5.013,0,0,1,.445.816l1.1,2.28c.917,1.931,2.164,4.607,3.521,7.573s2.571,5.659,3.434,7.615c.406.938.744,1.719,1.006,2.324a5.029,5.029,0,0,1,.327.87,4.923,4.923,0,0,1-.444-.816c-.287-.595-.657-1.36-1.1-2.279-.917-1.931-2.164-4.608-3.522-7.574s-2.57-5.658-3.433-7.614l-1.006-2.323A5.02,5.02,0,0,1,126.743,268.226Z" transform="translate(-126.741 -268.226)" fill="#e0e0e0"/>
            </g>
          </g>
        </g>
        <g id="Group_1238" data-name="Group 1238" transform="translate(18.516 96.741)">
          <g id="Group_1237" data-name="Group 1237">
            <g id="Group_1236" data-name="Group 1236">
              <path id="Path_1813" data-name="Path 1813" d="M136.594,289.35a5.721,5.721,0,0,1,1,.031l2.7.188c2.283.156,5.439.36,8.927.487s6.65.168,8.939.178l2.711.014a5.7,5.7,0,0,1,1,.044,5.793,5.793,0,0,1-.992.085c-.64.035-1.566.068-2.712.091-2.29.049-5.458.05-8.954-.081s-6.652-.368-8.933-.585c-1.141-.111-2.062-.21-2.7-.293A5.972,5.972,0,0,1,136.594,289.35Z" transform="translate(-136.594 -289.338)" fill="#e0e0e0"/>
            </g>
          </g>
        </g>
      </g>
      <g id="Group_1246" data-name="Group 1246" transform="translate(0 127.196)">
        <g id="Group_1244" data-name="Group 1244">
          <g id="Group_1241" data-name="Group 1241">
            <g id="Group_1240" data-name="Group 1240">
              <path id="Path_1814" data-name="Path 1814" d="M110.178,230.058a28.483,28.483,0,0,1-.276,4.878,35.471,35.471,0,0,1-4.447,13.091l-.1-.179h.215l-.1.18L77.754,297.171l-.174.308-.188-.3L48.1,250.449l-1.441-2.3-.224-.357.421,0h0l-.2.349A35.912,35.912,0,0,1,42.241,235.8a34.177,34.177,0,0,1-.439-6.423q.088-1.6.173-3.179.237-1.569.472-3.122a36.028,36.028,0,0,1,11.958-20.447,34.652,34.652,0,0,1,9.637-5.664l1.274-.475.634-.236.65-.173,2.582-.673a36.017,36.017,0,0,1,5.163-.626,34.725,34.725,0,0,1,5.022.09c.819.065,1.62.242,2.418.356l1.19.192c.391.082.771.2,1.155.3l2.268.614,2.15.819c.352.139.71.261,1.053.414l1,.5,1.961.992a35.514,35.514,0,0,1,11.38,10.5,36.165,36.165,0,0,1,4.958,10.608,32.113,32.113,0,0,1,.874,4.191,23.177,23.177,0,0,1,.331,3.116q.043,1.254.066,1.926c.013.433.007.655.007.655s-.026-.222-.053-.655-.063-1.086-.113-1.92a23.912,23.912,0,0,0-.374-3.1,32.6,32.6,0,0,0-.91-4.163,36.264,36.264,0,0,0-5-10.51A35.346,35.346,0,0,0,92.4,199.34l-1.946-.975-.991-.494c-.339-.149-.695-.268-1.044-.4l-2.129-.805-2.247-.6c-.379-.1-.756-.213-1.143-.293l-1.177-.186c-.79-.11-1.582-.283-2.392-.345a34.269,34.269,0,0,0-4.967-.076,35.729,35.729,0,0,0-5.1.63l-2.55.671-.642.172-.625.234-1.258.472a34.312,34.312,0,0,0-9.51,5.612,35.634,35.634,0,0,0-11.787,20.208q-.23,1.534-.463,3.083-.085,1.564-.169,3.14a33.734,33.734,0,0,0,.437,6.342,35.474,35.474,0,0,0,4.36,12.183l.2.35h-.408l.2-.355,1.441,2.3,29.257,46.753-.362.008,27.87-49.055.1.178h-.217l.1-.18a35.842,35.842,0,0,0,4.527-12.988c.228-1.577.293-2.8.345-3.616.015-.4.026-.707.035-.929S110.178,230.058,110.178,230.058Z" transform="translate(-41.785 -194.715)" fill="#e0e0e0"/>
            </g>
          </g>
          <g id="Group_1243" data-name="Group 1243" transform="translate(12.422 13.068)">
            <g id="Group_1242" data-name="Group 1242">
              <path id="Path_1815" data-name="Path 1815" d="M97.881,229.808a1.991,1.991,0,0,1-.041-.35c-.018-.254-.043-.595-.072-1.027-.015-.229-.031-.48-.048-.756s-.09-.577-.139-.9a15.81,15.81,0,0,0-.452-2.231,20.677,20.677,0,0,0-2.393-5.732,21.466,21.466,0,0,0-25.761-9.21,19.637,19.637,0,0,0-5.43,2.907A19.616,19.616,0,0,0,59,217.044a20.774,20.774,0,0,0-3.077,5.9,21.245,21.245,0,0,0-.036,13.52,20.757,20.757,0,0,0,3.047,5.912,19.567,19.567,0,0,0,4.518,4.565,19.691,19.691,0,0,0,5.416,2.934,21.523,21.523,0,0,0,25.808-9.081A20.675,20.675,0,0,0,97.1,235.07a15.844,15.844,0,0,0,.464-2.228c.05-.326.112-.626.143-.9l.051-.756c.033-.432.058-.773.077-1.026a1.956,1.956,0,0,1,.043-.35,2.049,2.049,0,0,1,0,.351c-.008.254-.019.6-.032,1.031l-.029.762c-.025.278-.079.581-.123.91a15.391,15.391,0,0,1-.425,2.253,20.477,20.477,0,0,1-2.373,5.809,21.793,21.793,0,0,1-14.7,10.3,21.875,21.875,0,0,1-11.48-.95,20.108,20.108,0,0,1-5.533-2.98,20.02,20.02,0,0,1-4.621-4.652,21.181,21.181,0,0,1-3.118-6.036,21.663,21.663,0,0,1,.037-13.812,21.171,21.171,0,0,1,3.149-6.018,20.018,20.018,0,0,1,4.643-4.627,20.112,20.112,0,0,1,5.548-2.951,21.878,21.878,0,0,1,11.483-.892,21.8,21.8,0,0,1,14.646,10.372A20.515,20.515,0,0,1,97.3,224.5a15.259,15.259,0,0,1,.414,2.256c.043.329.1.631.118.91s.018.532.026.762c.011.435.02.777.027,1.032A2.009,2.009,0,0,1,97.881,229.808Z" transform="translate(-54.34 -207.923)" fill="#e0e0e0"/>
            </g>
          </g>
        </g>
        <g id="Group_1245" data-name="Group 1245" transform="translate(21.291 23.873)">
          <path id="Path_1816" data-name="Path 1816" d="M75.891,240,63.3,231.222l3.065-4.392,8.44,5.889,10.919-13.874,4.208,3.312Z" transform="translate(-63.304 -218.845)" fill="#e0e0e0"/>
        </g>
      </g>
      <g id="Group_1254" data-name="Group 1254" transform="translate(444.093)">
        <g id="Group_1253" data-name="Group 1253">
          <g id="Group_1252" data-name="Group 1252">
            <g id="Group_1251" data-name="Group 1251">
              <g id="Group_1250" data-name="Group 1250">
                <g id="Group_1249" data-name="Group 1249">
                  <g id="Group_1248" data-name="Group 1248">
                    <g id="Group_1247" data-name="Group 1247">
                      <path id="Path_1817" data-name="Path 1817" d="M431.479,75.764a41.676,41.676,0,0,1,10.706,2.828l7.869-6.6L463.57,82.284l-4.258,9.343a41.6,41.6,0,0,1,5.579,9.567l10.224.9,2.282,16.833-9.613,3.593a41.51,41.51,0,0,1-2.83,10.708l6.6,7.869-10.286,13.517-9.343-4.258a41.642,41.642,0,0,1-9.569,5.577l-.9,10.224-16.835,2.285-3.592-9.615A41.543,41.543,0,0,1,410.32,156l-7.871,6.6-13.518-10.288,4.261-9.343a41.685,41.685,0,0,1-5.579-9.566l-10.222-.9-2.284-16.833,9.614-3.592a41.517,41.517,0,0,1,2.829-10.709l-6.6-7.869,10.286-13.517,9.344,4.259a41.6,41.6,0,0,1,9.568-5.578l.9-10.223,16.832-2.284,3.6,9.614ZM426.43,98.976a18.226,18.226,0,1,0,18.3,13.94A18.23,18.23,0,0,0,426.43,98.976Z" transform="translate(-375.107 -66.15)" fill="#f5f5f5"/>
                    </g>
                  </g>
                </g>
              </g>
            </g>
          </g>
        </g>
      </g>
      <g id="Group_1262" data-name="Group 1262" transform="translate(259.045 57.192)">
        <g id="Group_1261" data-name="Group 1261">
          <g id="Group_1260" data-name="Group 1260">
            <g id="Group_1259" data-name="Group 1259">
              <g id="Group_1258" data-name="Group 1258">
                <g id="Group_1257" data-name="Group 1257">
                  <g id="Group_1256" data-name="Group 1256">
                    <g id="Group_1255" data-name="Group 1255">
                      <path id="Path_1818" data-name="Path 1818" d="M276.752,130.2a27.041,27.041,0,0,1,6.95,1.835l5.108-4.281,8.775,6.678-2.764,6.065a27.041,27.041,0,0,1,3.621,6.21l6.638.585,1.481,10.926-6.24,2.333a26.95,26.95,0,0,1-1.836,6.95l4.281,5.109-6.677,8.774-6.065-2.764a27.068,27.068,0,0,1-6.211,3.621l-.584,6.637L272.3,190.358l-2.332-6.241a26.963,26.963,0,0,1-6.95-1.836l-5.109,4.282-8.775-6.679,2.765-6.065a27.09,27.09,0,0,1-3.621-6.209l-6.636-.586L240.16,156.1l6.241-2.332a26.921,26.921,0,0,1,1.836-6.951l-4.282-5.109,6.677-8.774L256.7,135.7a27.022,27.022,0,0,1,6.21-3.622l.585-6.636,10.926-1.482,2.333,6.24Zm-3.277,15.068a11.831,11.831,0,1,0,11.882,9.049A11.834,11.834,0,0,0,273.476,145.265Z" transform="translate(-240.16 -123.957)" fill="#ebebeb"/>
                    </g>
                  </g>
                </g>
              </g>
            </g>
          </g>
        </g>
      </g>
      <g id="Group_1273" data-name="Group 1273" transform="translate(352.2 105.893)">
        <g id="Group_1267" data-name="Group 1267" transform="translate(35.035 34.766)">
          <g id="Group_1266" data-name="Group 1266">
            <g id="Group_1265" data-name="Group 1265">
              <g id="Group_1264" data-name="Group 1264">
                <g id="Group_1263" data-name="Group 1263">
                  <path id="Path_1819" data-name="Path 1819" d="M369.507,210.962a14.446,14.446,0,0,1,3.951,2.612,19.028,19.028,0,0,1,6.124,11.257,19.269,19.269,0,0,1-.677,8.971,19.564,19.564,0,0,1-5.648,8.644,19.574,19.574,0,0,1-10.369,4.74,19.5,19.5,0,0,1-20.37-11.173,19.578,19.578,0,0,1-1.576-11.294,19.573,19.573,0,0,1,4.255-9.411,19.278,19.278,0,0,1,7.2-5.39,19.033,19.033,0,0,1,12.784-.883,14.451,14.451,0,0,1,4.325,1.927c-.056.124-1.513-.783-4.432-1.514a19.054,19.054,0,0,0-12.362,1.179,18.674,18.674,0,0,0-10.772,14.246,18.672,18.672,0,0,0,1.551,10.686,18.519,18.519,0,0,0,19.254,10.561,18.677,18.677,0,0,0,9.843-4.434,18.677,18.677,0,0,0,6.226-16.739,19.05,19.05,0,0,0-5.648-11.06C370.981,211.817,369.434,211.076,369.507,210.962Z" transform="translate(-340.689 -208.322)" fill="#ebebeb"/>
                </g>
              </g>
            </g>
          </g>
        </g>
        <g id="Group_1272" data-name="Group 1272">
          <g id="Group_1271" data-name="Group 1271">
            <g id="Group_1270" data-name="Group 1270">
              <g id="Group_1269" data-name="Group 1269">
                <g id="Group_1268" data-name="Group 1268">
                  <path id="Path_1820" data-name="Path 1820" d="M389.535,195.182a4.111,4.111,0,0,1,.146-.655c.128-.484.3-1.133.519-1.972l2.128-7.771.084.2-15.672-8.479.342-.059-7.1,8.09-.128.146-.191-.047a43.581,43.581,0,0,0-11.463-1.213l-.218.006-.107-.192c-1.637-2.93-3.409-6.1-5.253-9.4l.451.185-17.093,5.027.31-.441c.21,3.328.44,6.993.677,10.75l.018.273-.236.142a43.345,43.345,0,0,0-8.954,7.206l-.2.209-.277-.079-10.354-2.949.563-.235c-2.686,4.911-5.582,10.207-8.551,15.635l-.109-.628,8.068,7.127.235.208-.075.308a43.479,43.479,0,0,0-1.236,11.41l.009.321-.282.156-9.417,5.231.255-.62c1.581,5.416,3.276,11.22,4.994,17.105l-.557-.392,10.752-.658.331-.02.171.284a43.2,43.2,0,0,0,7.17,8.941l0,0,0,0c.067.245-.147-.546.15.55l0,.01-.006.021-.011.041-.024.081-.047.163-.094.326-.186.651-.373,1.3-.744,2.6-1.478,5.159-.263-.631,15.623,8.575-.668.116,7.137-8.059.217-.244.317.078a43.172,43.172,0,0,0,11.406,1.254l.323-.008.155.281,5.218,9.423-.6-.248,17.11-4.97-.362.514q-.328-5.472-.643-10.751l-.018-.3.255-.153a43.246,43.246,0,0,0,8.973-7.174l.2-.209.276.079,10.344,2.981-.525.22,8.6-15.605.09.516-8.046-7.155-.178-.159.057-.231a43.472,43.472,0,0,0,1.281-11.446l0-.22.19-.1,9.435-5.192-.153.374c-1.9-6.636-3.524-12.29-4.912-17.13l.251.177-10.754.586-.108.006-.054-.091a45.239,45.239,0,0,0-5.165-7.035l-1.469-1.586a4.452,4.452,0,0,1-.482-.531,5.575,5.575,0,0,1,.547.467c.347.327.873.824,1.537,1.528a42.257,42.257,0,0,1,5.335,6.976l-.162-.085,10.746-.725.195-.013.056.19,5.062,17.085.073.248-.228.127-9.4,5.256.185-.325a44.037,44.037,0,0,1-1.238,11.653l-.121-.389,8.08,7.115.251.222-.161.3c-2.7,4.944-5.536,10.138-8.54,15.64l-.175.319-.351-.1-10.354-2.945.474-.13a44.108,44.108,0,0,1-9.154,7.362l.237-.45.668,10.749.026.4-.389.114-17.1,5-.4.118-.2-.366q-2.581-4.642-5.233-9.413l.477.272a44.159,44.159,0,0,1-11.69-1.27l.531-.165-7.13,8.066-.287.326-.381-.209-15.628-8.567-.384-.21.121-.421,1.478-5.16.743-2.6.373-1.3.186-.652.094-.325.047-.163.023-.081.012-.041.006-.021,0-.01c.3,1.094.082.3.147.546l0,0,0,0a44.238,44.238,0,0,1-7.351-9.169l.5.263-10.751.654-.435.026-.123-.418L305.4,233.37l-.12-.413.375-.209,9.424-5.218-.273.477a44.437,44.437,0,0,1,1.284-11.685l.16.514-8.053-7.143-.306-.271.2-.357,8.59-15.613.188-.343.376.108,10.344,2.98-.472.129a44.127,44.127,0,0,1,9.171-7.33l-.218.415c-.222-3.758-.438-7.423-.634-10.752l-.021-.345.33-.1,17.117-4.947.3-.087.149.272,5.2,9.435-.324-.186a44.1,44.1,0,0,1,11.635,1.309l-.318.1,7.167-8.034.148-.167.194.108,15.572,8.66.125.069-.041.133c-.991,3.319-1.755,5.878-2.286,7.652-.259.841-.459,1.49-.609,1.975A5.068,5.068,0,0,1,389.535,195.182Z" transform="translate(-305.277 -173.182)" fill="#ebebeb"/>
                </g>
              </g>
            </g>
          </g>
        </g>
      </g>
      <g id="Group_1276" data-name="Group 1276" transform="translate(519.947 83.001)">
        <g id="Group_1274" data-name="Group 1274">
          <path id="Path_1821" data-name="Path 1821" d="M432.615,212.827,417.09,151.088l63.168-1.044Z" transform="translate(-417.09 -150.044)" fill="#ebebeb"/>
        </g>
        <g id="Group_1275" data-name="Group 1275" transform="translate(22.422 11.994)">
          <rect id="Rectangle_736" data-name="Rectangle 736" width="35.895" height="145.158" transform="matrix(0.604, -0.797, 0.797, 0.604, 0, 28.594)" fill="#ebebeb"/>
        </g>
      </g>
    </g>
    <g id="Group_1430" data-name="Group 1430" transform="translate(641.609 217.694)">
      <path id="Path_1822" data-name="Path 1822" d="M546.931,372.947l8.024,18.192s-15.8,14.267-14.641,17.773l35.833-14.291-11.339-28.86Z" transform="translate(-498.277 -97.256)" fill="#e8505b"/>
      <path id="Path_1823" data-name="Path 1823" d="M546.931,372.947l8.024,18.192s-15.8,14.267-14.641,17.773l35.833-14.291-11.339-28.86Z" transform="translate(-498.277 -97.256)" opacity="0.5"/>
      <path id="Path_1824" data-name="Path 1824" d="M576.146,394.9l-1.256-2.864L541,406.809s-1.319,1.331-.691,2.382Z" transform="translate(-498.276 -97.535)" fill="#263238"/>
      <path id="Path_1825" data-name="Path 1825" d="M610.756,398.973,620.8,416.133s-14.069,15.973-12.521,19.325l33.971-18.28L627.7,389.8Z" transform="translate(-499 -97.511)" fill="#e8505b"/>
      <path id="Path_1826" data-name="Path 1826" d="M610.756,398.973,620.8,416.133s-14.069,15.973-12.521,19.325l33.971-18.28L627.7,389.8Z" transform="translate(-499 -97.511)" opacity="0.5"/>
      <path id="Path_1827" data-name="Path 1827" d="M642.249,417.443l-1.574-2.7-31.983,18.538s-1.158,1.471-.414,2.445Z" transform="translate(-498.999 -97.777)" fill="#263238"/>
      <g id="Group_1358" data-name="Group 1358" transform="translate(27.232)">
        <g id="Group_1354" data-name="Group 1354" transform="translate(5.098 11.028)">
          <g id="Group_1290" data-name="Group 1290">
            <g id="Group_1289" data-name="Group 1289">
              <g id="Group_1288" data-name="Group 1288">
                <g id="Group_1282" data-name="Group 1282">
                  <g id="Group_1281" data-name="Group 1281">
                    <g id="Group_1280" data-name="Group 1280">
                      <g id="Group_1279" data-name="Group 1279">
                        <g id="Group_1278" data-name="Group 1278">
                          <path id="Path_1828" data-name="Path 1828" d="M566.094,155.208l-22.02,1.716-.731-12.328s-8.883-.13-10.211-8.805-2.629-28.844-2.629-28.844h0a30.5,30.5,0,0,1,30.886-.452l1.428.81Z" transform="translate(-530.503 -102.518)" fill="#ffbe9d"/>
                        </g>
                      </g>
                    </g>
                  </g>
                </g>
                <g id="Group_1287" data-name="Group 1287" transform="translate(12.808 37.141)">
                  <g id="Group_1286" data-name="Group 1286">
                    <g id="Group_1285" data-name="Group 1285">
                      <g id="Group_1284" data-name="Group 1284">
                        <g id="Group_1283" data-name="Group 1283">
                          <path id="Path_1829" data-name="Path 1829" d="M543.449,144.871a20.406,20.406,0,0,0,10.877-4.813s-1.925,6.824-10.708,7.26Z" transform="translate(-543.449 -140.058)" fill="#eb996e"/>
                        </g>
                      </g>
                    </g>
                  </g>
                </g>
              </g>
            </g>
          </g>
          <g id="Group_1302" data-name="Group 1302" transform="translate(32.508 13.339)">
            <g id="Group_1295" data-name="Group 1295">
              <g id="Group_1294" data-name="Group 1294">
                <g id="Group_1293" data-name="Group 1293">
                  <g id="Group_1292" data-name="Group 1292">
                    <g id="Group_1291" data-name="Group 1291">
                      <path id="Path_1830" data-name="Path 1830" d="M563.361,116.6c.139-.085,5.723-2.606,6.368,3.363s-5.479,5.385-5.509,5.215S563.361,116.6,563.361,116.6Z" transform="translate(-563.361 -116)" fill="#ffbe9d"/>
                    </g>
                  </g>
                </g>
              </g>
            </g>
            <g id="Group_1301" data-name="Group 1301" transform="translate(2.39 1.871)">
              <g id="Group_1300" data-name="Group 1300">
                <g id="Group_1299" data-name="Group 1299">
                  <g id="Group_1298" data-name="Group 1298">
                    <g id="Group_1297" data-name="Group 1297">
                      <g id="Group_1296" data-name="Group 1296">
                        <path id="Path_1831" data-name="Path 1831" d="M565.825,122.74c.024-.022.112.061.3.124a1.049,1.049,0,0,0,.78-.068,2.586,2.586,0,0,0,.94-2.437,3.443,3.443,0,0,0-.451-1.457,1.207,1.207,0,0,0-.869-.713.531.531,0,0,0-.583.351c-.062.175-.011.291-.042.3-.015.017-.14-.086-.118-.337a.669.669,0,0,1,.194-.4.794.794,0,0,1,.559-.214,1.469,1.469,0,0,1,1.186.807,3.549,3.549,0,0,1,.54,1.625,2.714,2.714,0,0,1-1.238,2.742,1.12,1.12,0,0,1-.968-.054C565.852,122.883,565.806,122.754,565.825,122.74Z" transform="translate(-565.776 -117.891)" fill="#eb996e"/>
                      </g>
                    </g>
                  </g>
                </g>
              </g>
            </g>
          </g>
          <g id="Group_1353" data-name="Group 1353" transform="translate(3.257 8.223)">
            <g id="Group_1352" data-name="Group 1352">
              <g id="Group_1341" data-name="Group 1341" transform="translate(0.078 4.924)">
                <g id="Group_1340" data-name="Group 1340">
                  <g id="Group_1339" data-name="Group 1339">
                    <g id="Group_1314" data-name="Group 1314" transform="translate(0 1.597)">
                      <g id="Group_1307" data-name="Group 1307" transform="translate(0.409 2.037)">
                        <g id="Group_1306" data-name="Group 1306">
                          <g id="Group_1305" data-name="Group 1305">
                            <g id="Group_1304" data-name="Group 1304">
                              <g id="Group_1303" data-name="Group 1303">
                                <path id="Path_1832" data-name="Path 1832" d="M534.293,120.784a1.254,1.254,0,0,0,1.373,1.083,1.2,1.2,0,0,0,1.122-1.3,1.254,1.254,0,0,0-1.372-1.084A1.2,1.2,0,0,0,534.293,120.784Z" transform="translate(-534.287 -119.479)" fill="#263238"/>
                              </g>
                            </g>
                          </g>
                        </g>
                      </g>
                      <g id="Group_1313" data-name="Group 1313">
                        <g id="Group_1312" data-name="Group 1312">
                          <g id="Group_1311" data-name="Group 1311">
                            <g id="Group_1310" data-name="Group 1310">
                              <g id="Group_1309" data-name="Group 1309">
                                <g id="Group_1308" data-name="Group 1308">
                                  <path id="Path_1833" data-name="Path 1833" d="M533.9,119.1c.177.14,1.019-.689,2.356-.873,1.332-.2,2.408.346,2.531.162.06-.082-.138-.352-.607-.6a3.439,3.439,0,0,0-2.054-.329,3.3,3.3,0,0,0-1.846.9C533.914,118.726,533.817,119.038,533.9,119.1Z" transform="translate(-533.873 -117.42)" fill="#263238"/>
                                </g>
                              </g>
                            </g>
                          </g>
                        </g>
                      </g>
                    </g>
                    <g id="Group_1326" data-name="Group 1326" transform="translate(13.163)">
                      <g id="Group_1319" data-name="Group 1319" transform="translate(0.235 2.131)">
                        <g id="Group_1318" data-name="Group 1318">
                          <g id="Group_1317" data-name="Group 1317">
                            <g id="Group_1316" data-name="Group 1316">
                              <g id="Group_1315" data-name="Group 1315">
                                <path id="Path_1834" data-name="Path 1834" d="M547.422,119.265a1.253,1.253,0,0,0,1.372,1.083,1.2,1.2,0,0,0,1.122-1.3,1.253,1.253,0,0,0-1.371-1.084A1.2,1.2,0,0,0,547.422,119.265Z" transform="translate(-547.416 -117.96)" fill="#263238"/>
                              </g>
                            </g>
                          </g>
                        </g>
                      </g>
                      <g id="Group_1325" data-name="Group 1325">
                        <g id="Group_1324" data-name="Group 1324">
                          <g id="Group_1323" data-name="Group 1323">
                            <g id="Group_1322" data-name="Group 1322">
                              <g id="Group_1321" data-name="Group 1321">
                                <g id="Group_1320" data-name="Group 1320">
                                  <path id="Path_1835" data-name="Path 1835" d="M547.207,117.486c.177.14,1.02-.689,2.356-.872,1.332-.2,2.408.345,2.531.161.06-.082-.136-.352-.608-.6a3.433,3.433,0,0,0-2.053-.33,3.3,3.3,0,0,0-1.846.9C547.219,117.112,547.122,117.424,547.207,117.486Z" transform="translate(-547.178 -115.807)" fill="#263238"/>
                                </g>
                              </g>
                            </g>
                          </g>
                        </g>
                      </g>
                    </g>
                    <g id="Group_1332" data-name="Group 1332" transform="translate(6.186 1.052)">
                      <g id="Group_1331" data-name="Group 1331">
                        <g id="Group_1330" data-name="Group 1330">
                          <g id="Group_1329" data-name="Group 1329">
                            <g id="Group_1328" data-name="Group 1328">
                              <g id="Group_1327" data-name="Group 1327">
                                <path id="Path_1836" data-name="Path 1836" d="M543.678,128.083a8.884,8.884,0,0,0-2.225-.086c-.345.012-.678-.01-.768-.234a1.744,1.744,0,0,1,.085-1.043q.307-1.306.643-2.74a44.925,44.925,0,0,0,1.31-7.111,45.291,45.291,0,0,0-1.879,6.989c-.209.96-.41,1.874-.6,2.748a2,2,0,0,0,.011,1.363.865.865,0,0,0,.631.419,2.3,2.3,0,0,0,.591,0A8.775,8.775,0,0,0,543.678,128.083Z" transform="translate(-540.125 -116.87)" fill="#263238"/>
                              </g>
                            </g>
                          </g>
                        </g>
                      </g>
                    </g>
                    <g id="Group_1338" data-name="Group 1338" transform="translate(10.04 12.635)">
                      <g id="Group_1337" data-name="Group 1337">
                        <g id="Group_1336" data-name="Group 1336">
                          <g id="Group_1335" data-name="Group 1335">
                            <g id="Group_1334" data-name="Group 1334">
                              <g id="Group_1333" data-name="Group 1333">
                                <path id="Path_1837" data-name="Path 1837" d="M547.78,128.579c-.22.018-.019,1.468-1.114,2.671s-2.662,1.261-2.644,1.465c-.008.094.384.234,1.038.159a3.643,3.643,0,0,0,2.219-1.142,3.168,3.168,0,0,0,.841-2.226C548.089,128.893,547.877,128.556,547.78,128.579Z" transform="translate(-544.021 -128.578)" fill="#263238"/>
                              </g>
                            </g>
                          </g>
                        </g>
                      </g>
                    </g>
                  </g>
                </g>
              </g>
              <g id="Group_1346" data-name="Group 1346" transform="translate(12.174)">
                <g id="Group_1345" data-name="Group 1345">
                  <g id="Group_1344" data-name="Group 1344">
                    <g id="Group_1343" data-name="Group 1343">
                      <g id="Group_1342" data-name="Group 1342">
                        <path id="Path_1838" data-name="Path 1838" d="M546.115,112.248c.182.344,1.492-.016,3.085-.046,1.593-.064,2.922.218,3.083-.138.071-.169-.2-.48-.757-.759a5.361,5.361,0,0,0-4.7.14C546.283,111.757,546.034,112.083,546.115,112.248Z" transform="translate(-546.1 -110.83)" fill="#263238"/>
                      </g>
                    </g>
                  </g>
                </g>
              </g>
              <g id="Group_1351" data-name="Group 1351" transform="translate(0 2.522)">
                <g id="Group_1350" data-name="Group 1350">
                  <g id="Group_1349" data-name="Group 1349">
                    <g id="Group_1348" data-name="Group 1348">
                      <g id="Group_1347" data-name="Group 1347">
                        <path id="Path_1839" data-name="Path 1839" d="M533.848,115.122c.278.27,1.154-.174,2.258-.344,1.1-.209,2.072-.083,2.243-.43.073-.168-.117-.451-.567-.681a3.306,3.306,0,0,0-3.626.625C533.809,114.658,533.725,114.989,533.848,115.122Z" transform="translate(-533.795 -113.379)" fill="#263238"/>
                      </g>
                    </g>
                  </g>
                </g>
              </g>
            </g>
          </g>
        </g>
        <g id="Group_1357" data-name="Group 1357">
          <g id="Group_1356" data-name="Group 1356">
            <g id="Group_1355" data-name="Group 1355">
              <path id="Path_1840" data-name="Path 1840" d="M525.442,101.936a3.239,3.239,0,0,1,.782-3.032,2.3,2.3,0,0,1,2.98-.194,2.681,2.681,0,0,1,1.829-3.542c1.4-.289,2.764.611,4.187.794a6.516,6.516,0,0,0,3.992-1.039c1.213-.7,2.314-1.583,3.55-2.241a11.221,11.221,0,0,1,15.131,4.526,4.984,4.984,0,0,1,5.512,1.246,8.173,8.173,0,0,1,2.041,5.528,18.26,18.26,0,0,1-.445,4.04c.016.112.042.22.056.332.582,4.791.83,10.479-1.2,10.8-3.546.555-3.641-6.26-3.641-6.26-4.6-1.071-3.892-7.835-5.122-8.672s-3.835-2.821-12.309,3.129a17.853,17.853,0,0,1-10.669,2.695c-.077,0-.155-.006-.234-.014l-.053,0c-.03,0-.051-.015-.08-.02a8.269,8.269,0,0,1-2.481-.664,4.674,4.674,0,0,1-2.232-1.874,2.56,2.56,0,0,1,.116-2.791A5.624,5.624,0,0,1,525.442,101.936Z" transform="translate(-525.35 -91.372)" fill="#263238"/>
            </g>
          </g>
        </g>
      </g>
      <g id="Group_1359" data-name="Group 1359" transform="translate(45.138 44.669)">
        <path id="Path_1841" data-name="Path 1841" d="M543.449,152.511l.983,34.5L565.9,140.8l-.538-4.278Z" transform="translate(-543.449 -136.521)" fill="#ebebeb"/>
      </g>
      <g id="Group_1372" data-name="Group 1372" transform="translate(14.885 152.721)">
        <g id="Group_1360" data-name="Group 1360" transform="translate(0 7.144)">
          <path id="Path_1842" data-name="Path 1842" d="M557.365,256.923c-.786.257-45.482,45.459-44.478,53.579s32.821,68.25,32.821,68.25l22.7-11.193-21.294-52.716.279-3.27,26.024-21.326-1.39-34.3Z" transform="translate(-512.871 -255.952)" fill="#263238"/>
        </g>
        <g id="Group_1361" data-name="Group 1361" transform="translate(54.132)">
          <path id="Path_1843" data-name="Path 1843" d="M567.585,265.753c.519.789,8.259,71.8,10.334,75.477s33.163,64.3,33.163,64.3l23.082-9.3L605.986,329.6l3.212-63.062-1.739-17.806-34.848,7.144Z" transform="translate(-567.585 -248.731)" fill="#263238"/>
        </g>
        <g id="Group_1363" data-name="Group 1363" transform="translate(54.106 20.65)">
          <g id="Group_1362" data-name="Group 1362">
            <path id="Path_1844" data-name="Path 1844" d="M577.514,340.2a3.941,3.941,0,0,1-.151-.711c-.084-.516-.2-1.2-.335-2.05-.279-1.837-.668-4.4-1.145-7.555l-3.588-24.948c-1.343-9.73-2.557-18.537-3.446-24.973-.412-3.159-.747-5.733-.987-7.576q-.151-1.287-.243-2.063a3.864,3.864,0,0,1-.051-.724,3.936,3.936,0,0,1,.15.709c.084.516.2,1.2.335,2.05.278,1.837.668,4.4,1.145,7.554.925,6.432,2.19,15.231,3.589,24.954,1.342,9.727,2.557,18.533,3.445,24.969.411,3.159.747,5.733.987,7.576.1.859.183,1.544.244,2.064A4.071,4.071,0,0,1,577.514,340.2Z" transform="translate(-567.559 -269.603)" fill="#455a64"/>
          </g>
        </g>
        <g id="Group_1365" data-name="Group 1365" transform="translate(88.767 78.831)">
          <g id="Group_1364" data-name="Group 1364">
            <path id="Path_1845" data-name="Path 1845" d="M605.772,328.41a67.41,67.41,0,0,1-3.161,11.119,67.631,67.631,0,0,1,3.161-11.119Z" transform="translate(-602.593 -328.41)" fill="#455a64"/>
          </g>
        </g>
        <g id="Group_1367" data-name="Group 1367" transform="translate(91.95 80.967)">
          <g id="Group_1366" data-name="Group 1366">
            <path id="Path_1846" data-name="Path 1846" d="M609.3,344.517a6.481,6.481,0,0,1-1.259-1.752,17.261,17.261,0,0,1-2.15-10.083,6.43,6.43,0,0,1,.436-2.113,22.537,22.537,0,0,0,2.973,13.948Z" transform="translate(-605.811 -330.569)" fill="#455a64"/>
          </g>
        </g>
        <g id="Group_1369" data-name="Group 1369" transform="translate(26.796 58.375)">
          <g id="Group_1368" data-name="Group 1368">
            <path id="Path_1847" data-name="Path 1847" d="M539.958,307.745a12.172,12.172,0,0,1,6.385,5.823c-.125.083-1.226-1.533-2.993-3.13S539.888,307.877,539.958,307.745Z" transform="translate(-539.956 -307.734)" fill="#455a64"/>
          </g>
        </g>
        <g id="Group_1371" data-name="Group 1371" transform="translate(30.295 56.283)">
          <g id="Group_1370" data-name="Group 1370">
            <path id="Path_1848" data-name="Path 1848" d="M543.5,305.625a9.891,9.891,0,0,1,3.448,5.583,29.8,29.8,0,0,1-1.67-2.826A29.536,29.536,0,0,1,543.5,305.625Z" transform="translate(-543.492 -305.619)" fill="#455a64"/>
          </g>
        </g>
      </g>
      <g id="Group_1402" data-name="Group 1402" transform="translate(21.728 46.641)">
        <g id="Group_1374" data-name="Group 1374" transform="translate(24.376)">
          <g id="Group_1373" data-name="Group 1373">
            <path id="Path_1849" data-name="Path 1849" d="M546.6,200.25l5.714,28.346,4.65,39.558s19.17-2.677,27.34-5.263c9.476-3,30.1-5.554,30.1-5.554l-3.476,3.439c7.378-2.066,12.075-9.106,12.075-9.106-12.716-11.793-23.562-36.053-23.562-36.053l-9.669-48.007s-1.468-6.772-2.354-9.784-15.568-12.726-17.6-13.954l-1.279-.6-.407-3.848-1.513-.905-15.889,14.435a17.218,17.218,0,0,0-5.529,10.788A124.51,124.51,0,0,0,544.5,181.8C544.685,187.419,546.6,200.25,546.6,200.25Z" transform="translate(-544.425 -138.514)" fill="#6f2061"/>
          </g>
        </g>
        <g id="Group_1384" data-name="Group 1384" transform="translate(0 12.055)">
          <g id="Group_1375" data-name="Group 1375" transform="translate(0.238)">
            <path id="Path_1850" data-name="Path 1850" d="M557.244,151.275s-8.395,4.5-9.85,8.32,2.873,45.692,2.873,45.692l-30.145.566-.094,17.962s47.88,3.783,49.744,1.2c2.519-3.5,5.446-36.22,5.446-36.22l1.087-23.542S573.529,147.295,557.244,151.275Z" transform="translate(-520.028 -150.699)" fill="#6f2061"/>
          </g>
          <g id="Group_1377" data-name="Group 1377" transform="translate(31.695 43.747)" opacity="0.3">
            <g id="Group_1376" data-name="Group 1376">
              <path id="Path_1851" data-name="Path 1851" d="M552.388,229.2a28.834,28.834,0,0,0,12.065,1.128c4.246-.395,8.566-2.718,10.172-6.668,1.229-3.025.716-6.434.9-9.694.162-2.833.864-5.6,1.291-8.406s-1.026-7.959-1.951-10.641c0,0-1.075,19.438-4.116,27.6a6.683,6.683,0,0,1-1.864,2.98c-1.075.866-2.566.942-3.94,1.085-3.847.4-13.125-.265-13.125-.265" transform="translate(-551.823 -194.916)"/>
            </g>
          </g>
          <g id="Group_1379" data-name="Group 1379" transform="translate(0 17.092)">
            <g id="Group_1378" data-name="Group 1378">
              <path id="Path_1852" data-name="Path 1852" d="M576.252,167.975a2.631,2.631,0,0,1,0,.427c-.012.3-.028.718-.047,1.251-.054,1.124-.133,2.74-.232,4.809-.11,2.1-.243,4.648-.4,7.607-.182,2.964-.279,6.347-.643,10.069-.324,3.724-.714,7.8-1.182,12.171-.485,4.369-1,9.039-1.834,13.923a30.338,30.338,0,0,1-.828,3.692,7.206,7.206,0,0,1-2.174,3.256,5.5,5.5,0,0,1-3.751,1.34c-1.33.03-2.661,0-4.008-.021-5.381-.133-10.943-.409-16.638-.717-8.556-.473-16.8-1.006-24.508-1.547l-.222-.016V224c.039-6.379.075-12.39.108-17.933l0-.207.206,0,29.1-.625,8.139-.141,2.143-.021c.485,0,.735.016.735.016s-.249.028-.733.05l-2.142.085-8.137.258-29.091.8.207-.212c-.018,5.543-.038,11.554-.059,17.933l-.22-.237c7.7.526,15.949,1.052,24.5,1.525,5.692.309,11.251.588,16.621.727,1.341.018,2.673.053,3.982.026a5.027,5.027,0,0,0,3.464-1.225,6.732,6.732,0,0,0,2.035-3.042,30.121,30.121,0,0,0,.817-3.621c.841-4.857,1.374-9.525,1.877-13.887.485-4.366.894-8.438,1.241-12.158.386-3.717.508-7.1.716-10.057.187-2.956.349-5.506.482-7.6.141-2.066.249-3.679.326-4.8.041-.531.073-.945.1-1.249A2.885,2.885,0,0,1,576.252,167.975Z" transform="translate(-519.787 -167.975)" fill="#263238"/>
            </g>
          </g>
          <g id="Group_1381" data-name="Group 1381" transform="translate(5.949 55.433)">
            <g id="Group_1380" data-name="Group 1380">
              <path id="Path_1853" data-name="Path 1853" d="M526.007,224.147a76.628,76.628,0,0,1-.2-8.71,76.9,76.9,0,0,1,.294-8.708,76.3,76.3,0,0,1,.2,8.71A76.934,76.934,0,0,1,526.007,224.147Z" transform="translate(-525.8 -206.728)" fill="#263238"/>
            </g>
          </g>
          <g id="Group_1383" data-name="Group 1383" transform="translate(2.244 57.926)">
            <g id="Group_1382" data-name="Group 1382">
              <path id="Path_1854" data-name="Path 1854" d="M522.77,209.483c-.057-.033.243-.368.816-.178a.927.927,0,0,1,.61.8,1.093,1.093,0,0,1-.612,1.076,1.122,1.122,0,0,1-1.212-.224,1.015,1.015,0,0,1-.295-.949c.136-.569.532-.69.545-.632.048.056-.188.266-.2.675a.685.685,0,0,0,.249.565.708.708,0,0,0,.7.113.679.679,0,0,0,.361-.6.582.582,0,0,0-.3-.5C523.092,209.417,522.8,209.548,522.77,209.483Z" transform="translate(-522.055 -209.247)" fill="#263238"/>
            </g>
          </g>
        </g>
        <g id="Group_1385" data-name="Group 1385" transform="translate(69.847 33.209)">
          <path id="Path_1855" data-name="Path 1855" d="M590.385,172.08s15.682,20.5,17.593,26.093.434,13.611-2.759,17.446-5.77,2.278-5.77,2.278Z" transform="translate(-590.385 -172.08)" fill="#6f2061"/>
        </g>
        <g id="Group_1387" data-name="Group 1387" transform="translate(70.404 77.337)">
          <g id="Group_1386" data-name="Group 1386">
            <path id="Path_1856" data-name="Path 1856" d="M598.893,216.726a32.865,32.865,0,0,1-7.944,1.363,32.892,32.892,0,0,1,7.944-1.363Z" transform="translate(-590.949 -216.683)" fill="#263238"/>
          </g>
        </g>
        <g id="Group_1389" data-name="Group 1389" transform="translate(81.357 92.498)">
          <g id="Group_1388" data-name="Group 1388">
            <path id="Path_1857" data-name="Path 1857" d="M602.026,232.007a5.274,5.274,0,0,1,.425,1.082c.238.706.6,1.724,1.064,2.971a88.209,88.209,0,0,0,4.213,9.5A100.024,100.024,0,0,0,613,254.53c.732,1.113,1.337,2.007,1.759,2.622a5.322,5.322,0,0,1,.612.988,5.144,5.144,0,0,1-.768-.874c-.472-.581-1.122-1.446-1.894-2.539a76.93,76.93,0,0,1-5.42-8.937,69.884,69.884,0,0,1-4.1-9.613c-.425-1.268-.736-2.306-.918-3.032A5.251,5.251,0,0,1,602.026,232.007Z" transform="translate(-602.019 -232.007)" fill="#263238"/>
          </g>
        </g>
        <g id="Group_1391" data-name="Group 1391" transform="translate(82.429 94.928)" opacity="0.3">
          <g id="Group_1390" data-name="Group 1390">
            <path id="Path_1858" data-name="Path 1858" d="M603.1,234.463c2.485,4.429,5.04,8.945,8.826,12.33a22.828,22.828,0,0,1,3.852,3.731c1.019,1.475,1.459,3.538.491,5.047a1.584,1.584,0,0,1-1.563.845,2,2,0,0,1-1.023-.83,61.078,61.078,0,0,1-10.413-20.446" transform="translate(-603.103 -234.463)"/>
          </g>
        </g>
        <g id="Group_1393" data-name="Group 1393" transform="translate(71.164 36.301)" opacity="0.3">
          <g id="Group_1392" data-name="Group 1392">
            <path id="Path_1859" data-name="Path 1859" d="M600.911,217.854c2.148-1.542,2.9-4.478,2.581-7.1a26.3,26.3,0,0,0-2.605-7.457,122.776,122.776,0,0,1-7.638-22.4l-1.533-5.688,7.758,40.583Z" transform="translate(-591.717 -175.205)"/>
          </g>
        </g>
        <g id="Group_1395" data-name="Group 1395" transform="translate(41.532 4.962)">
          <g id="Group_1394" data-name="Group 1394">
            <path id="Path_1860" data-name="Path 1860" d="M561.77,149.376a34.69,34.69,0,0,1,2.922-2.92,34.782,34.782,0,0,1,2.92-2.924,17.347,17.347,0,0,1-5.842,5.843Z" transform="translate(-561.766 -143.529)" fill="#263238"/>
          </g>
        </g>
        <g id="Group_1397" data-name="Group 1397" transform="translate(28.3 14.273)">
          <g id="Group_1396" data-name="Group 1396">
            <path id="Path_1861" data-name="Path 1861" d="M560.043,152.951c.025.083-.905.363-2.293,1.05a18.228,18.228,0,0,0-8.324,8.423c-.67,1.4-.938,2.329-1.022,2.305-.034-.009.007-.248.108-.678a11.3,11.3,0,0,1,.594-1.771,16.375,16.375,0,0,1,8.5-8.6,11.189,11.189,0,0,1,1.763-.614A1.855,1.855,0,0,1,560.043,152.951Z" transform="translate(-548.391 -152.94)" fill="#263238"/>
          </g>
        </g>
        <g id="Group_1399" data-name="Group 1399" transform="translate(70.119 33.646)">
          <g id="Group_1398" data-name="Group 1398">
            <path id="Path_1862" data-name="Path 1862" d="M602.61,221.9a1.667,1.667,0,0,1-.246-.394l-.628-1.176-2.257-4.416-.009-.017,0-.024c-.98-4.494-2.368-11.047-3.876-18.337-1.393-6.869-2.653-13.085-3.583-17.671l-1.029-5.366c-.1-.591-.188-1.074-.255-1.464a.261.261,0,1,1,.1-.021l.346,1.445c.295,1.33.7,3.135,1.184,5.335.967,4.578,2.276,10.783,3.724,17.642,1.509,7.289,2.836,13.855,3.719,18.369l-.014-.041c.879,1.858,1.593,3.37,2.12,4.483l.549,1.216A1.745,1.745,0,0,1,602.61,221.9Z" transform="translate(-590.66 -172.522)" fill="#263238"/>
          </g>
        </g>
        <g id="Group_1401" data-name="Group 1401" transform="translate(26.545 28.588)">
          <g id="Group_1400" data-name="Group 1400">
            <path id="Path_1863" data-name="Path 1863" d="M550.028,205.449a8.83,8.83,0,0,1-.23-1.486c-.114-1.049-.262-2.418-.442-4.069-.351-3.437-.8-8.19-1.271-13.442s-.866-10.011-1.128-13.457c-.116-1.656-.211-3.029-.285-4.082a8.841,8.841,0,0,1-.037-1.5,8.592,8.592,0,0,1,.23,1.487c.114,1.049.263,2.419.442,4.069.352,3.438.8,8.19,1.272,13.442s.865,10.007,1.127,13.453c.116,1.656.212,3.03.285,4.083A8.609,8.609,0,0,1,550.028,205.449Z" transform="translate(-546.618 -167.41)" fill="#263238"/>
          </g>
        </g>
      </g>
      <g id="Group_1420" data-name="Group 1420" transform="translate(0 105.578)">
        <g id="Group_1405" data-name="Group 1405">
          <g id="Group_1403" data-name="Group 1403" transform="translate(0 4.014)">
            <path id="Path_1864" data-name="Path 1864" d="M520.264,208.512s-6.5-4.932-8.087-5.23c-1.215-.228-8.471-.107-11.808-.038a2.389,2.389,0,0,0-2.394,2.318,1.265,1.265,0,0,0,.023.235,2.176,2.176,0,0,0,1.586,1.649,2.53,2.53,0,0,0-1.757,2.379c-.028,1.884,2.253,2.28,2.253,2.28a3.386,3.386,0,0,0-.325.29,2.248,2.248,0,0,0,1.1,3.772l1.029.233a2.227,2.227,0,0,0-1.372,1.872c.038,2.48,5.615,2.955,5.615,2.955s13.783,2.182,14.081,2.083S520.264,208.512,520.264,208.512Z" transform="translate(-497.826 -203.15)" fill="#ffbe9d"/>
          </g>
          <g id="Group_1404" data-name="Group 1404" transform="translate(3.822)">
            <path id="Path_1865" data-name="Path 1865" d="M501.692,200.269c.061.817.253,2.557,1.643,3.345l7.68-.3s-5.719-1.974-6.533-2.949a6.608,6.608,0,0,0-1.1-1.072A1.086,1.086,0,0,0,501.692,200.269Z" transform="translate(-501.689 -199.093)" fill="#ffbe9d"/>
          </g>
        </g>
        <g id="Group_1407" data-name="Group 1407" transform="translate(2.529 3.892)">
          <g id="Group_1406" data-name="Group 1406">
            <path id="Path_1866" data-name="Path 1866" d="M507.389,203.28a11.273,11.273,0,0,1-3.507.248,14.231,14.231,0,0,1-3.5-.248,11.276,11.276,0,0,1,3.507-.248A14.237,14.237,0,0,1,507.389,203.28Z" transform="translate(-500.382 -203.027)" fill="#eb996e"/>
          </g>
        </g>
        <g id="Group_1409" data-name="Group 1409" transform="translate(1.784 8.151)">
          <g id="Group_1408" data-name="Group 1408">
            <path id="Path_1867" data-name="Path 1867" d="M505.655,207.614a11.126,11.126,0,0,1-6.026-.215,57.063,57.063,0,0,1,6.026.215Z" transform="translate(-499.629 -207.332)" fill="#eb996e"/>
          </g>
        </g>
        <g id="Group_1411" data-name="Group 1411" transform="translate(10.357 7.869)">
          <g id="Group_1410" data-name="Group 1410">
            <path id="Path_1868" data-name="Path 1868" d="M509.655,207.064c.114.07-.034.488-.467.768s-.876.245-.893.112.286-.3.623-.528S509.54,206.985,509.655,207.064Z" transform="translate(-508.294 -207.047)" fill="#eb996e"/>
          </g>
        </g>
        <g id="Group_1413" data-name="Group 1413" transform="translate(2.053 12.92)">
          <g id="Group_1412" data-name="Group 1412">
            <path id="Path_1869" data-name="Path 1869" d="M506.5,212.531a22.128,22.128,0,0,1-6.6-.217,22.128,22.128,0,0,1,6.6.217Z" transform="translate(-499.901 -212.152)" fill="#eb996e"/>
          </g>
        </g>
        <g id="Group_1415" data-name="Group 1415" transform="translate(11.441 11.245)">
          <g id="Group_1414" data-name="Group 1414">
            <path id="Path_1870" data-name="Path 1870" d="M510.994,210.46c.061-.018.181.138.218.439a1.58,1.58,0,0,1-1.344,1.709c-.3.036-.481-.045-.478-.108,0-.136.661-.222,1.1-.786S510.861,210.489,510.994,210.46Z" transform="translate(-509.39 -210.459)" fill="#eb996e"/>
          </g>
        </g>
        <g id="Group_1417" data-name="Group 1417" transform="translate(3.904 17.258)">
          <g id="Group_1416" data-name="Group 1416">
            <path id="Path_1871" data-name="Path 1871" d="M507.683,217.342a17.959,17.959,0,0,1-5.911-.731,18.027,18.027,0,0,1,5.911.731Z" transform="translate(-501.772 -216.536)" fill="#eb996e"/>
          </g>
        </g>
        <g id="Group_1419" data-name="Group 1419" transform="translate(12.563 15.642)">
          <g id="Group_1418" data-name="Group 1418">
            <path id="Path_1872" data-name="Path 1872" d="M512.062,214.9c.063-.009.158.159.149.457a1.851,1.851,0,0,1-.412,1.043c-.562.681-1.193.927-1.263.835-.1-.118.408-.569.871-1.139S511.934,214.926,512.062,214.9Z" transform="translate(-510.524 -214.903)" fill="#eb996e"/>
          </g>
        </g>
      </g>
      <g id="Group_1421" data-name="Group 1421" transform="translate(109.248 162.638)">
        <path id="Path_1873" data-name="Path 1873" d="M608.99,262.453a8.78,8.78,0,0,0,6.66-4.2c.157-.265.293-.627.087-.858a.761.761,0,0,0-.581-.175,18.036,18.036,0,0,0-6.311,1.082.86.86,0,0,0-.566.423.871.871,0,0,0,.027.52l.81,3.12" transform="translate(-608.249 -257.223)" fill="#e8505b"/>
      </g>
      <g id="Group_1423" data-name="Group 1423" transform="translate(109.248 162.638)" opacity="0.4">
        <g id="Group_1422" data-name="Group 1422">
          <path id="Path_1874" data-name="Path 1874" d="M608.99,262.453a8.78,8.78,0,0,0,6.66-4.2c.157-.265.293-.627.087-.858a.761.761,0,0,0-.581-.175,18.036,18.036,0,0,0-6.311,1.082.86.86,0,0,0-.566.423.871.871,0,0,0,.027.52l.81,3.12" transform="translate(-608.249 -257.223)"/>
        </g>
      </g>
      <g id="Group_1429" data-name="Group 1429" transform="translate(42.695 60.087)">
        <g id="Group_1424" data-name="Group 1424">
          <path id="Path_1875" data-name="Path 1875" d="M543.423,152.684s-3.162,10.614-2.29,10.01,2.76-2.279,2.76-2.279Z" transform="translate(-540.98 -152.684)" fill="#ebebeb"/>
        </g>
        <g id="Group_1425" data-name="Group 1425" transform="translate(0.434 4.893)">
          <path id="Path_1876" data-name="Path 1876" d="M543.609,157.63l-1.728,4.133a5.633,5.633,0,0,0-.335,1.335c-.142,1.158-.308,3.28.382,3.427a2.322,2.322,0,0,0,1.848-.764Z" transform="translate(-541.419 -157.63)" fill="#263238"/>
        </g>
        <g id="Group_1428" data-name="Group 1428" transform="translate(0.224 2.37)">
          <g id="Group_1426" data-name="Group 1426">
            <path id="Path_1877" data-name="Path 1877" d="M597.231,158.255s-16.914-6.6-26.28-.772-11.072,15.126-16.649,15.126c-10.877,0-10.529-7.675-10.529-7.675l-2.312.7c-.044,1.57-2.521,12.846,8.942,14.244s16.28-14.229,26.592-14.244a34.229,34.229,0,0,1,18.14,5.577l7.408-4.686Z" transform="translate(-541.206 -155.079)" fill="#263238"/>
          </g>
          <g id="Group_1427" data-name="Group 1427" transform="translate(12.624 0.88)">
            <path id="Path_1878" data-name="Path 1878" d="M553.966,179.7a15.893,15.893,0,0,0,6.525-7.485c2.628-6.063,8.268-12.984,12.978-14.723s15.607-2.953,23.133,1.952l4.821,6.512-6.259,4.059a58.119,58.119,0,0,0-11.028-4.415c-7.778-2.172-12.505.281-17.028,4.561-.281.267-.539.53-.765.785a51.282,51.282,0,0,1-7.16,6.34C556.973,178.863,554.973,179.719,553.966,179.7Z" transform="translate(-553.966 -155.969)" fill="#455a64"/>
          </g>
        </g>
      </g>
    </g>
    <g id="Group_1438" data-name="Group 1438" transform="translate(117.064 38.541)">
      <g id="Group_1431" data-name="Group 1431" transform="translate(0.415)">
        <path id="Path_1879" data-name="Path 1879" d="M199.1,86.361c-10.032,1.545-17.386-6.881-19.732-14.384-2.165-6.925-3.194-14.131-6.236-20.718-4.25-9.207-15.51-13.461-25.615-12.61s-20.287,5.914-29.228,10.7l2.466,55.421s19.47-20.732,28.824-21.11c15.61-.63,14.759,25.028,29.917,28.816,0,0,21.249,5.761,35.616-12.8C224.233,87.9,225.042,73.6,225.042,73.6S218.058,83.441,199.1,86.361Z" transform="translate(-118.293 -38.541)" fill="#13667e"/>
      </g>
      <g id="Group_1433" data-name="Group 1433" transform="translate(0 1.611)">
        <g id="Group_1432" data-name="Group 1432">
          <path id="Path_1880" data-name="Path 1880" d="M117.879,40.17c.138-.006,2.867,58.846,6.1,131.431,3.231,72.612,5.739,131.461,5.6,131.467s-2.866-58.833-6.1-131.444C120.25,99.038,117.742,40.177,117.879,40.17Z" transform="translate(-117.874 -40.17)" fill="#263238"/>
        </g>
      </g>
      <g id="Group_1435" data-name="Group 1435" transform="translate(53.59 29.601)" opacity="0.2">
        <g id="Group_1434" data-name="Group 1434">
          <path id="Path_1881" data-name="Path 1881" d="M172.04,68.461A67.438,67.438,0,0,0,179.418,85.1c2.889,4.524,7.272,8.333,12.527,9.43a12.158,12.158,0,0,1,2.812.73,2.719,2.719,0,0,1,1.674,2.2c.041,1.451-1.46,2.4-2.762,3.043a22.757,22.757,0,0,1-5.767,2.216c-2.03.38-3.622.592-5.016-.933a29.142,29.142,0,0,1-3.628-4.347c-4.58-7.8-6.845-18.965-7.217-27.8" transform="translate(-172.04 -68.461)"/>
        </g>
      </g>
      <g id="Group_1437" data-name="Group 1437" transform="translate(52.655 18.063)">
        <g id="Group_1436" data-name="Group 1436">
          <path id="Path_1882" data-name="Path 1882" d="M185.6,103.926a2.033,2.033,0,0,1-.451-.257c-.286-.184-.694-.476-1.2-.881a20.622,20.622,0,0,1-3.7-4.02,30.839,30.839,0,0,1-3.7-7.205A79.332,79.332,0,0,1,173.8,82.04a106.329,106.329,0,0,1-2.556-17.8c-.128-2.3-.149-4.162-.147-5.448.013-.6.024-1.086.033-1.481a2,2,0,0,1,.046-.516,2.082,2.082,0,0,1,.053.515c.016.394.036.883.06,1.479.057,1.283.133,3.139.3,5.428a118.949,118.949,0,0,0,2.689,17.708,84.964,84.964,0,0,0,2.689,9.476,31.788,31.788,0,0,0,3.564,7.163,22.5,22.5,0,0,0,3.538,4.074C185.031,103.489,185.621,103.89,185.6,103.926Z" transform="translate(-171.095 -56.799)" fill="#263238"/>
        </g>
      </g>
    </g>
    <g id="Group_1439" data-name="Group 1439" transform="translate(56.577 398.351)">
      <path id="Path_1883" data-name="Path 1883" d="M56.736,317.722l132.546,21.7v-21.7Z" transform="translate(-56.736 -317.722)" fill="#e0e0e0"/>
    </g>
    <g id="Group_1440" data-name="Group 1440" transform="translate(263.85 462.205)">
      <path id="Path_1884" data-name="Path 1884" d="M212.823,367.267l132.546,21.7v-21.7Z" transform="translate(-212.823 -367.267)" fill="#e0e0e0"/>
    </g>
    <g id="Group_1441" data-name="Group 1441" transform="translate(465.107 534.58)">
      <path id="Path_1885" data-name="Path 1885" d="M367.835,414.662l132.546,21.7v-21.7Z" transform="translate(-367.835 -414.662)" fill="#e0e0e0"/>
    </g>
    <g id="Group_1442" data-name="Group 1442" transform="translate(666.162 571.893)">
      <path id="Path_1886" data-name="Path 1886" d="M522.643,452.376l132.546,21.7v-21.7Z" transform="translate(-522.643 -452.376)" fill="#e0e0e0"/>
    </g>
    <g id="Group_1445" data-name="Group 1445" transform="translate(56.577 376.146)">
      <g id="Group_1443" data-name="Group 1443">
        <rect id="Rectangle_737" data-name="Rectangle 737" width="132.546" height="16.252" fill="#13667e"/>
      </g>
      <g id="Group_1444" data-name="Group 1444" transform="translate(91.185)" opacity="0.3">
        <rect id="Rectangle_738" data-name="Rectangle 738" width="41.361" height="16.252"/>
      </g>
    </g>
    <g id="Group_1448" data-name="Group 1448" transform="translate(263.85 439.806)">
      <g id="Group_1446" data-name="Group 1446">
        <rect id="Rectangle_739" data-name="Rectangle 739" width="132.546" height="16.252" fill="#13667e"/>
      </g>
      <g id="Group_1447" data-name="Group 1447" transform="translate(91.185)" opacity="0.3">
        <rect id="Rectangle_740" data-name="Rectangle 740" width="41.361" height="16.252"/>
      </g>
    </g>
    <g id="Group_1451" data-name="Group 1451" transform="translate(465.107 518.328)">
      <g id="Group_1449" data-name="Group 1449">
        <rect id="Rectangle_741" data-name="Rectangle 741" width="132.546" height="16.252" fill="#13667e"/>
      </g>
      <g id="Group_1450" data-name="Group 1450" transform="translate(91.185)" opacity="0.3">
        <rect id="Rectangle_742" data-name="Rectangle 742" width="41.361" height="16.252"/>
      </g>
    </g>
    <g id="Group_1454" data-name="Group 1454" transform="translate(666.365 555.641)">
      <g id="Group_1452" data-name="Group 1452">
        <rect id="Rectangle_743" data-name="Rectangle 743" width="132.546" height="16.252" fill="#13667e"/>
      </g>
      <g id="Group_1453" data-name="Group 1453" transform="translate(91.185)" opacity="0.3">
        <rect id="Rectangle_744" data-name="Rectangle 744" width="41.361" height="16.252"/>
      </g>
    </g>
    <g id="Group_1456" data-name="Group 1456" transform="translate(717.226 465.547)">
      <g id="Group_1455" data-name="Group 1455">
        <path id="Path_1887" data-name="Path 1887" d="M574.256,376.118a3.6,3.6,0,1,0,3.6-3.605A3.6,3.6,0,0,0,574.256,376.118Z" transform="translate(-574.256 -372.513)" fill="#ebebeb"/>
      </g>
    </g>
  </g>
</svg>
