<svg id="adobe-xd_4_" data-name="adobe-xd (4)" xmlns="http://www.w3.org/2000/svg" width="58.417" height="56.957" viewBox="0 0 58.417 56.957">
  <path id="Path_1311" data-name="Path 1311" d="M48.073,56.957H10.345A10.335,10.335,0,0,1,0,46.612V10.345A10.335,10.335,0,0,1,10.345,0H48.073A10.335,10.335,0,0,1,58.417,10.345V46.612A10.335,10.335,0,0,1,48.073,56.957Z" fill="#fff"/>
  <path id="Path_1312" data-name="Path 1312" d="M148.913,156.287H113.035a8.851,8.851,0,0,1-8.835-8.835V113.035a8.851,8.851,0,0,1,8.835-8.835h35.854a8.834,8.834,0,0,1,8.835,8.835v34.394a8.821,8.821,0,0,1-8.812,8.858Z" transform="translate(-101.765 -101.765)" fill="#2e001f"/>
  <path id="Path_1313" data-name="Path 1313" d="M478.883,605.6,485.7,618.7c.122.194.049.39-.147.39h-4.236a.477.477,0,0,1-.512-.316c-1.559-3.213-3.141-6.426-4.772-9.882h-.049c-1.461,3.262-3.068,6.695-4.624,9.908a.47.47,0,0,1-.439.269h-4.012c-.243,0-.269-.194-.145-.341l6.669-12.707-6.449-12.852a.2.2,0,0,1,.145-.341h4.187c.243,0,.341.049.437.269,1.533,3.213,3.091,6.524,4.552,9.76h.049c1.411-3.213,2.97-6.547,4.479-9.737.122-.194.194-.315.439-.315h3.918c.194,0,.269.147.147.341Zm8.01,3.968c0-5.671,3.774-10.1,9.76-10.1a10.745,10.745,0,0,1,1.267.049v-6.449a.243.243,0,0,1,.243-.243h3.846c.194,0,.243.072.243.194v22.346a17.4,17.4,0,0,0,.121,2.386c0,.147-.049.194-.194.269a14.49,14.49,0,0,1-6.232,1.411c-5.283.021-9.057-3.239-9.055-9.861Zm11.025-6.23a3.657,3.657,0,0,0-1.411-.243c-3.068,0-5.208,2.36-5.208,6.281,0,4.479,2.192,6.281,4.942,6.281a4.566,4.566,0,0,0,1.68-.269v-12.05Z" transform="translate(-455.784 -578.948)" fill="#fff"/>
</svg>
