<svg xmlns="http://www.w3.org/2000/svg" width="58.417" height="56.47" viewBox="0 0 58.417 56.47">
  <g id="adobe-illustrator" transform="translate(-8 -12)">
    <g id="Photo_Surface" data-name="Photo Surface" transform="translate(8 12)">
      <rect id="Outline_no_shadow" data-name="Outline no shadow" width="58.417" height="56.47" rx="6" fill="#300"/>
    </g>
    <path id="Path_1320" data-name="Path 1320" d="M79.771,92.434H71.06l-2.249,6.494q-.039.321-.406.321H64.315q-.409,0-.285-.4L71.921,75.41a7.18,7.18,0,0,0,.326-2.205.217.217,0,0,1,.243-.243h5.725c.166,0,.26.068.287.2l8.831,25.728c.083.243.015.36-.2.36H82.551a.424.424,0,0,1-.409-.243Zm-7.738-4.381H78.82c-.163-.358-3.215-10.206-3.434-11.036h-.039ZM92.214,77.83a2.875,2.875,0,0,1-2.1-.781,2.811,2.811,0,0,1-.8-2.118,2.85,2.85,0,0,1,.825-2.14,2.921,2.921,0,0,1,2.118-.8,2.811,2.811,0,0,1,2.118.8,2.938,2.938,0,0,1,.781,2.14,2.811,2.811,0,0,1-.8,2.118,2.938,2.938,0,0,1-2.14.781ZM89.8,98.885V80.1a.287.287,0,0,1,.326-.326h4.216a.29.29,0,0,1,.326.326v18.82a.287.287,0,0,1-.326.326H90.167a.324.324,0,0,1-.365-.365Z" transform="translate(-42.37 -45.384)" fill="#ff9a00"/>
  </g>
</svg>
