<svg id="adobe-xd_4_" data-name="adobe-xd (4)" xmlns="http://www.w3.org/2000/svg" width="58.417" height="56.47" viewBox="0 0 58.417 56.47">
  <path id="Path_1311" data-name="Path 1311" d="M48.073,56.47H10.345A10.292,10.292,0,0,1,0,46.214V10.256A10.292,10.292,0,0,1,10.345,0H48.073A10.292,10.292,0,0,1,58.417,10.256V46.214A10.292,10.292,0,0,1,48.073,56.47Z" fill="#ff26be"/>
  <path id="Path_1312" data-name="Path 1312" d="M149.761,156.812H113.2a8.979,8.979,0,0,1-9-8.924V113.124a8.979,8.979,0,0,1,9-8.924h36.535a8.963,8.963,0,0,1,9,8.924v34.74a8.949,8.949,0,0,1-8.979,8.948Z" transform="translate(-102.271 -102.271)" fill="#2e001f"/>
  <path id="Path_1313" data-name="Path 1313" d="M480.5,602.943l7.718,10.376c.138.154.056.309-.167.309h-4.8a.588.588,0,0,1-.579-.25c-1.765-2.546-3.556-5.091-5.4-7.83h-.056c-1.654,2.585-3.474,5.3-5.236,7.85a.591.591,0,0,1-.5.213h-4.543c-.275,0-.3-.154-.164-.27l7.551-10.068-7.3-10.183c-.167-.154,0-.27.164-.27h4.741c.275,0,.386.039.495.213,1.736,2.546,3.5,5.169,5.154,7.734h.056c1.6-2.546,3.363-5.188,5.072-7.715a.551.551,0,0,1,.5-.25h4.437c.22,0,.3.117.167.27Zm9.07,3.144c0-4.494,4.273-8,11.051-8,.579,0,.881,0,1.434.039v-5.11c0-.117.138-.192.275-.192h4.355c.219,0,.275.057.275.154v17.706a9.7,9.7,0,0,0,.137,1.89c0,.117-.055.154-.219.213a22.452,22.452,0,0,1-7.057,1.118c-5.982.017-10.255-2.566-10.252-7.813Zm12.483-4.936a5.748,5.748,0,0,0-1.6-.193c-3.474,0-5.9,1.87-5.9,4.977,0,3.549,2.482,4.977,5.6,4.977a7.213,7.213,0,0,0,1.9-.213V601.15Z" transform="translate(-458.049 -576.645)" fill="#ffd9f2"/>
</svg>
