<svg xmlns="http://www.w3.org/2000/svg" width="122" height="127" viewBox="0 0 122 127">
  <g id="ai-robotic-graph-file" transform="translate(-2 -2)">
    <path id="Path_1803" data-name="Path 1803" d="M121.967,2H56.9a2.076,2.076,0,0,0-2.033,2.117v6.35H52.833A2.076,2.076,0,0,0,50.8,12.583V33.75h-.468a18.619,18.619,0,0,0-15.8-14.69v-.127A2.076,2.076,0,0,0,32.5,16.817H28.433c-10.1.016-18.284,8.536-18.3,19.05v9.716L2.59,53.414a2.234,2.234,0,0,0-.59,1.5v6.35a2.076,2.076,0,0,0,2.033,2.117h6.1V80.317a2.076,2.076,0,0,0,2.033,2.117h6.1a1.951,1.951,0,0,0,1.078-.317l2.989-1.947v6.5a2.076,2.076,0,0,0,2.033,2.117h6.1a1.985,1.985,0,0,0,1.3-.487l7.178-4.128.529.572a30.2,30.2,0,0,0-1.606,4.043H34.533A2.076,2.076,0,0,0,32.5,90.9v12.7a2.076,2.076,0,0,0,2.033,2.117h3.335a30.2,30.2,0,0,0,1.606,4.043l-2.359,2.455a2.2,2.2,0,0,0,0,3.006l8.621,8.975a1.993,1.993,0,0,0,2.887,0l2.359-2.455a27.735,27.735,0,0,0,3.884,1.672v3.471A2.076,2.076,0,0,0,56.9,129H69.1a2.076,2.076,0,0,0,2.033-2.117v-3.471a27.736,27.736,0,0,0,3.884-1.672l2.359,2.455a1.993,1.993,0,0,0,2.887,0l8.621-8.975a2.2,2.2,0,0,0,0-3.006l-2.359-2.455a30.2,30.2,0,0,0,1.606-4.043h3.335A2.076,2.076,0,0,0,93.5,103.6V90.9a2.076,2.076,0,0,0-2.033-2.117H88.132c-.224-.72-.508-1.418-.773-2.117h26.474a2.076,2.076,0,0,0,2.033-2.117V78.2h6.1A2.076,2.076,0,0,0,124,76.083V4.117A2.076,2.076,0,0,0,121.967,2ZM53.057,86.667H72.923a15.256,15.256,0,0,1,3.252,16.193,14.029,14.029,0,0,1-26.37,0,15.256,15.256,0,0,1,3.252-16.193ZM50.8,72.591,48.624,70.3a1.993,1.993,0,0,0-2.887,0l-1.057,1.1-.02-5.905h2.074a2.035,2.035,0,0,0,1.627-.847l2.44-3.387ZM34.533,23.336A14.466,14.466,0,0,1,46.144,33.75H34.533ZM17.677,78.2H14.2V61.267a2.076,2.076,0,0,0-2.033-2.117h-6.1V55.785l7.544-7.832a2.234,2.234,0,0,0,.59-1.5V35.867c.009-8.179,6.376-14.807,14.233-14.817h2.033V35.867A2.076,2.076,0,0,0,32.5,37.983H50.8V54.218l-5.083,7.048H34.533A2.076,2.076,0,0,0,32.5,63.383v5.186Zm19.439,1.079a2.2,2.2,0,0,0-.59,1.482L29.735,84.55H26.4V77.523l9.211-5.99a2.164,2.164,0,0,0,.956-1.8V65.5h4.026l.041,10.139ZM89.433,93.017v8.467H86.607a2.078,2.078,0,0,0-1.972,1.588,25.409,25.409,0,0,1-2.379,6.011,2.182,2.182,0,0,0,.305,2.561l2.013,2.074-5.754,5.99-1.993-2.1a1.973,1.973,0,0,0-2.46-.317,23.338,23.338,0,0,1-5.775,2.476,2.133,2.133,0,0,0-1.525,2.053v2.942H58.933v-2.942a2.133,2.133,0,0,0-1.525-2.053,23.339,23.339,0,0,1-5.775-2.476,1.973,1.973,0,0,0-2.46.318l-1.993,2.1-5.754-5.99,2.013-2.074a2.182,2.182,0,0,0,.3-2.561,25.409,25.409,0,0,1-2.379-6.011,2.078,2.078,0,0,0-1.972-1.588H36.567V93.017h2.826a2.078,2.078,0,0,0,1.972-1.588,25.409,25.409,0,0,1,2.379-6.011,2.182,2.182,0,0,0-.3-2.561l-2.013-2.074,5.754-5.99,1.993,2.1a1.984,1.984,0,0,0,1.627.572v5.63a19.607,19.607,0,0,0-1.989,26.232A17.811,17.811,0,0,0,73.892,112.6a19.564,19.564,0,0,0,4.3-25.931h4.656a23.764,23.764,0,0,1,1.789,4.763,2.049,2.049,0,0,0,1.972,1.588ZM111.8,82.433H54.867V14.7h42.7V29.517A2.076,2.076,0,0,0,99.6,31.633h12.2ZM101.633,27.4V18.3l7.666,9.1Zm18.3,46.567h-4.067V29.58a2.119,2.119,0,0,0-.508-1.376L101.064,11.186a2,2,0,0,0-1.545-.72H58.933V6.233h61Z" transform="translate(0 0)" fill="#454447"/>
    <path id="Path_1804" data-name="Path 1804" d="M79.917,56.1V20.117A2.117,2.117,0,0,0,77.8,18H69.333a2.117,2.117,0,0,0-2.117,2.117V56.1H65.1V28.583a2.117,2.117,0,0,0-2.117-2.117H54.517A2.117,2.117,0,0,0,52.4,28.583V56.1H50.283V43.4a2.117,2.117,0,0,0-2.117-2.117H39.7A2.117,2.117,0,0,0,37.583,43.4V56.1H33.35v4.233h50.8V56.1Zm-33.867,0H41.817V45.517H46.05Zm14.817,0H56.633V30.7h4.233Zm14.817,0H71.45V22.233h4.233ZM27,79.383A10.583,10.583,0,1,0,37.583,68.8,10.583,10.583,0,0,0,27,79.383Zm10.583-6.35a6.35,6.35,0,1,1-6.35,6.35A6.35,6.35,0,0,1,37.583,73.033Z" transform="translate(22.917 17.867)" fill="#454447"/>
  </g>
</svg>
