<svg xmlns="http://www.w3.org/2000/svg" width="55.042" height="58.963" viewBox="0 0 55.042 58.963">
  <path id="android_1_" data-name="android (1)" d="M8.589,55.571h3.705v8.607H10.686v-6.93l-1.435.006H8.906a3.959,3.959,0,0,0-1.335.108,2.272,2.272,0,0,0-1.213.889,2.969,2.969,0,0,0-.534,1.63,2.769,2.769,0,0,0,.723,1.844,2.144,2.144,0,0,0,.835.6,2.718,2.718,0,0,0,1.207.191H9.708v1.665H8.367a3.972,3.972,0,0,1-3.516-1.987,4.249,4.249,0,0,1-.623-2.173v-.25a4.334,4.334,0,0,1,1.085-2.847,3.943,3.943,0,0,1,1.9-1.206,4.954,4.954,0,0,1,1.373-.144Zm11.8,1.719a3.62,3.62,0,0,1,.345.59,4.1,4.1,0,0,1,.3.788,6.287,6.287,0,0,1,.167,1.623v3.886H19.586V60.107a2.677,2.677,0,0,0-1.73-2.746,2.648,2.648,0,0,0-.7-.125,2.587,2.587,0,0,0-.69.125,2.677,2.677,0,0,0-1.73,2.746v4.071H13.128V60.292a6.287,6.287,0,0,1,.167-1.623,4.039,4.039,0,0,1,.3-.788,3.148,3.148,0,0,1,.35-.59,3.9,3.9,0,0,1,6.447,0ZM24.9,55.576a11.12,11.12,0,0,1,1.858.078,3.839,3.839,0,0,1,1.479.591,4.564,4.564,0,0,1,.957.913,4.582,4.582,0,0,1,.579,4.417,4.09,4.09,0,0,1-2.086,2.233,4.449,4.449,0,0,1-2.069.37h-3.41l-.178-.036V62.506h3.76a2.974,2.974,0,0,0,.929-.113A2.452,2.452,0,0,0,28,61.45a2.734,2.734,0,0,0,.067-3.038,2.172,2.172,0,0,0-.589-.645,2.473,2.473,0,0,0-1.686-.519h-3.76V55.576H24.9Zm6.03,0H36.08a2.7,2.7,0,0,1,2.136.877,2.134,2.134,0,0,1,.478.668,2.964,2.964,0,0,1,.3,1.26v.245a2.847,2.847,0,0,1-.762,1.844,2.538,2.538,0,0,1-.89.645,4.484,4.484,0,0,1,1.012,3.062H36.736v-.131a2.692,2.692,0,0,0-1.063-2.238,2.556,2.556,0,0,0-1.585-.46H30.929V59.689H36.18a1.166,1.166,0,0,0,1.168-.914c.022-.123.037-.227.044-.31A1.3,1.3,0,0,0,37,57.546a1.1,1.1,0,0,0-.723-.287c0-.016-.078-.024-.234-.024H30.929V55.576Zm12.911.006H43.9a3.93,3.93,0,0,1,3.154,1.623,4.551,4.551,0,0,1,.845,2.65v.06a4.353,4.353,0,0,1-1.546,3.366,3.865,3.865,0,0,1-2.464.9h-.056a3.927,3.927,0,0,1-3.143-1.612,5.226,5.226,0,0,1-.64-1.259,4.844,4.844,0,0,1-.217-1.4v-.059a4.378,4.378,0,0,1,1.5-3.331,3.889,3.889,0,0,1,1.847-.872,3.082,3.082,0,0,1,.668-.059Zm-2.409,4.286a2.749,2.749,0,0,0,.818,1.97,2.247,2.247,0,0,0,1.53.668h.156a2.277,2.277,0,0,0,1.313-.471,2.671,2.671,0,0,0,.934-1.385,3.16,3.16,0,0,0,.111-.758,2.74,2.74,0,0,0-.8-1.94,2.325,2.325,0,0,0-1.635-.71,2.4,2.4,0,0,0-1.847.931,2.7,2.7,0,0,0-.429.812,2.815,2.815,0,0,0-.155.883Zm7.3-4.286h1.607v8.6H48.729v-8.6Zm5.346-.006a11.117,11.117,0,0,1,1.858.078,3.839,3.839,0,0,1,1.479.591,4.564,4.564,0,0,1,.957.913,4.582,4.582,0,0,1,.579,4.417,4.09,4.09,0,0,1-2.086,2.233,4.449,4.449,0,0,1-2.069.37h-3.41l-.178-.036V62.506h3.76a2.974,2.974,0,0,0,.929-.113,2.452,2.452,0,0,0,1.279-.943,2.734,2.734,0,0,0,.067-3.038,2.172,2.172,0,0,0-.589-.645,2.473,2.473,0,0,0-1.686-.519H51.2V55.576h2.87ZM15.719,20.6a2.842,2.842,0,0,0-2.736,2.936l0,12.3a2.841,2.841,0,0,0,2.737,2.938,2.838,2.838,0,0,0,2.735-2.937V23.54A2.843,2.843,0,0,0,15.719,20.6M37.787,9.561,39.7,5.819a.426.426,0,0,0-.15-.556.369.369,0,0,0-.515.163L37.1,9.208a12.508,12.508,0,0,0-10.712,0L24.46,5.431a.365.365,0,0,0-.514-.163.419.419,0,0,0-.151.552l1.91,3.74a12.085,12.085,0,0,0-6.289,10.577l24.651,0A12.094,12.094,0,0,0,37.787,9.561M26.134,15.345a1.112,1.112,0,1,1,1.036-1.108,1.073,1.073,0,0,1-1.036,1.108m11.225,0a1.113,1.113,0,1,1,1.031-1.108,1.072,1.072,0,0,1-1.031,1.108M19.518,21.159l0,19.057a3.028,3.028,0,0,0,2.92,3.132H24.43l0,6.507a2.743,2.743,0,1,0,5.472,0l0-6.5H33.6v6.506a2.743,2.743,0,1,0,5.473,0l0-6.5,2,0a3.033,3.033,0,0,0,2.921-3.134l0-19.057-24.466,0Zm30.995,2.378a2.743,2.743,0,1,0-5.472,0l0,12.3a2.742,2.742,0,1,0,5.471,0l0-12.3Z" transform="translate(-4.228 -5.215)" fill="#a4c439"/>
</svg>
