<svg xmlns="http://www.w3.org/2000/svg" width="54.924" height="60.768" viewBox="0 0 54.924 60.768">
  <g id="angular" transform="translate(-7.93 -6.6)">
    <path id="Path_580" data-name="Path 580" d="M35.392,6.6,7.93,16.606l4.136,36.95L35.392,67.368,58.718,53.555l4.136-36.95ZM56.873,52.246,35.392,64.923,13.911,52.246,10.1,18.23,35.392,9.045l25.292,9.22Z" transform="translate(0)" fill="#fff"/>
    <path id="Path_581" data-name="Path 581" d="M33.784,9,10.13,17.743l3.564,31.931L33.784,61.46,53.874,49.5l3.564-31.931Zm9.994,39.52-3.5-8.533h-13l-3.5,8.533H17.139L33.784,11.168l16.645,37.3Z" transform="translate(1.608 1.754)" fill="#fff"/>
    <path id="Path_582" data-name="Path 582" d="M21.31,28.685h9.312L25.966,17.59Z" transform="translate(9.426 8.239)" fill="#fff"/>
  </g>
</svg>
