<svg xmlns="http://www.w3.org/2000/svg" width="45.197" height="53.99" viewBox="0 0 45.197 53.99">
  <path id="apple" d="M237.2,39.422a31.314,31.314,0,0,1-3.991,8.111q-4.186,6.359-8.339,6.359a14.987,14.987,0,0,1-4.542-1.038,14.341,14.341,0,0,0-4.9-1.038,12.492,12.492,0,0,0-4.607,1.071,11.73,11.73,0,0,1-4.283,1.1q-4.932,0-9.766-8.4Q192,37.118,192,29.266q0-7.4,3.666-12.135a11.2,11.2,0,0,1,9.215-4.672,21.59,21.59,0,0,1,5.743.973,20.9,20.9,0,0,0,4.478.973,16.24,16.24,0,0,0,4.64-1.1,18.327,18.327,0,0,1,5.613-1.1,11.862,11.862,0,0,1,6.911,2.109,16.739,16.739,0,0,1,3.374,3.245,21.01,21.01,0,0,0-3.7,3.829,11.553,11.553,0,0,0-2.109,6.716,12.355,12.355,0,0,0,2.239,7.235A9.867,9.867,0,0,0,237.2,39.422ZM225,1.363a12.372,12.372,0,0,1-.941,4.413,13.316,13.316,0,0,1-3.017,4.478,9.194,9.194,0,0,1-3.5,2.336,18.129,18.129,0,0,1-3.374.552A14.794,14.794,0,0,1,216.691,4.8q2.4-3.472,8.111-4.8a3.157,3.157,0,0,1,.081.357,3.162,3.162,0,0,0,.081.357q0,.13.016.324T225,1.363Z" transform="translate(-192)" fill="#fff"/>
</svg>
