<svg xmlns="http://www.w3.org/2000/svg" width="138" height="134.746" viewBox="0 0 138 134.746"><defs><style>.a{fill:#454447;}.b{fill:#2d4356;}</style></defs><g transform="translate(0 -2)"><path class="a" d="M41.5,112H33.286A3.286,3.286,0,0,0,30,115.286V123.5a3.286,3.286,0,0,0,3.286,3.286H41.5a3.286,3.286,0,0,0,3.286-3.286v-8.216A3.286,3.286,0,0,0,41.5,112Zm0,11.5H33.286v-8.216H41.5Z" transform="translate(-5.351 -19.621)"/><path class="a" d="M63.5,112H55.287A3.286,3.286,0,0,0,52,115.286V123.5a3.286,3.286,0,0,0,3.286,3.286H63.5a3.286,3.286,0,0,0,3.286-3.286v-8.216A3.286,3.286,0,0,0,63.5,112Zm0,11.5H55.287v-8.216H63.5Z" transform="translate(-9.276 -19.621)"/><path class="a" d="M74,123.5a3.286,3.286,0,0,0,3.286,3.286H85.5a3.286,3.286,0,0,0,3.286-3.286v-8.216A3.286,3.286,0,0,0,85.5,112H77.286A3.286,3.286,0,0,0,74,115.286Zm3.286-8.216H85.5V123.5H77.286Z" transform="translate(-13.2 -19.621)"/><path class="a" d="M44.789,93.287A3.286,3.286,0,0,0,41.5,90H33.286A3.286,3.286,0,0,0,30,93.287V101.5a3.287,3.287,0,0,0,3.286,3.286H41.5a3.287,3.287,0,0,0,3.286-3.286ZM41.5,101.5H33.286V93.287H41.5Z" transform="translate(-5.351 -15.697)"/><path class="a" d="M62.865,89.362a3.286,3.286,0,0,0-3.286-3.286H51.362a3.286,3.286,0,0,0-3.287,3.286v8.216a3.286,3.286,0,0,0,3.287,3.286h8.216a3.286,3.286,0,0,0,3.286-3.286Zm-3.286,8.216H51.362V89.362h8.216ZM44.789,71.287A3.286,3.286,0,0,0,41.5,68H33.286A3.286,3.286,0,0,0,30,71.287V79.5a3.286,3.286,0,0,0,3.286,3.286H41.5A3.286,3.286,0,0,0,44.789,79.5ZM41.5,79.5H33.286V71.287H41.5Z" transform="translate(-5.351 -11.773)"/><path class="a" d="M44.789,49.287A3.286,3.286,0,0,0,41.5,46H33.286A3.286,3.286,0,0,0,30,49.287V57.5a3.286,3.286,0,0,0,3.286,3.286H41.5A3.286,3.286,0,0,0,44.789,57.5ZM41.5,57.5H33.286V49.287H41.5Z" transform="translate(-5.351 -7.849)"/><path class="a" d="M66.789,49.287A3.286,3.286,0,0,0,63.5,46H55.287A3.286,3.286,0,0,0,52,49.287V57.5a3.286,3.286,0,0,0,3.286,3.286H63.5A3.266,3.266,0,0,0,65.931,59.7a8.16,8.16,0,0,1-.348-6.076L66.614,50.6c.049-.144.119-.276.175-.416ZM63.5,57.5H55.287V49.287H63.5Z" transform="translate(-9.276 -7.849)"/><path class="a" d="M66.789,71.287A3.286,3.286,0,0,0,63.5,68H55.287A3.286,3.286,0,0,0,52,71.287V79.5a3.286,3.286,0,0,0,3.286,3.286H63.5A3.283,3.283,0,0,0,66.729,80.1a8.189,8.189,0,0,1,.06-5.566ZM63.5,79.5H55.287V71.287H63.5Zm13.151,9.859c-.3-.3-.6-.6-.885-.911a8.208,8.208,0,0,1-4.63-1.5,3.267,3.267,0,0,0-1.063,2.407v8.216a3.286,3.286,0,0,0,3.286,3.286h8.216a3.277,3.277,0,0,0,3.083-2.185,8.178,8.178,0,0,1-3.083-3.254v2.153H73.362V89.362Z" transform="translate(-9.276 -11.773)"/><path class="a" d="M90.02,31.616l-2.871,1.413a4.9,4.9,0,0,0-2.567,5.657,28.047,28.047,0,0,0-6.01,6.84A4.9,4.9,0,0,0,73.293,48.8L72.262,51.83a4.9,4.9,0,0,0,2.185,5.815,28.045,28.045,0,0,0,.588,9.087,4.9,4.9,0,0,0-1.418,6.048l1.413,2.871a4.9,4.9,0,0,0,5.658,2.568,28.051,28.051,0,0,0,6.84,6.009A4.9,4.9,0,0,0,90.8,89.508l3.029,1.031a4.9,4.9,0,0,0,5.815-2.185c.809.08,1.621.122,2.433.131l-1.314-3.343a24.709,24.709,0,0,1-3.259-.436l-.584,1.716a1.6,1.6,0,0,1-2.03,1L91.863,86.39a1.6,1.6,0,0,1-1-2.03l.584-1.716a24.667,24.667,0,0,1-9.7-8.517l-1.626.8a1.6,1.6,0,0,1-2.142-.729l-1.413-2.871a1.6,1.6,0,0,1,.729-2.142l1.626-.8a24.667,24.667,0,0,1-.833-12.878l-1.716-.584a1.6,1.6,0,0,1-1-2.03l1.031-3.029a1.6,1.6,0,0,1,2.03-1l1.716.584a24.667,24.667,0,0,1,8.517-9.7l-.8-1.626a1.6,1.6,0,0,1,.729-2.142l2.871-1.413a1.6,1.6,0,0,1,2.142.729l.8,1.626a24.667,24.667,0,0,1,12.878-.832l.584-1.716a1.6,1.6,0,0,1,2.03-1l3.029,1.031a1.6,1.6,0,0,1,1,2.03l-.584,1.716a24.667,24.667,0,0,1,9.7,8.517l1.626-.8a1.6,1.6,0,0,1,2.142.729l1.413,2.871a1.6,1.6,0,0,1-.729,2.142l-1.626.8a24.666,24.666,0,0,1,.832,12.878l1.716.584a1.6,1.6,0,0,1,1,2.03l-1.031,3.029a1.6,1.6,0,0,1-2.03,1l-1.716-.584a24.618,24.618,0,0,1-4.106,5.94l1.321,3.361a28.037,28.037,0,0,0,4.371-5.38A4.9,4.9,0,0,0,131.508,72l1.031-3.029a4.9,4.9,0,0,0-2.185-5.815,28.049,28.049,0,0,0-.588-9.086,4.9,4.9,0,0,0,1.418-6.049l-1.413-2.871a4.9,4.9,0,0,0-5.658-2.568,28.05,28.05,0,0,0-6.84-6.009A4.9,4.9,0,0,0,114,31.293l-3.029-1.031a4.9,4.9,0,0,0-5.815,2.185,28.051,28.051,0,0,0-9.086.588A4.9,4.9,0,0,0,90.02,31.616Z" transform="translate(-12.843 -4.995)"/><path class="a" d="M128.977,124.013a7.327,7.327,0,0,0,4.172-9.5L117.843,75.561a18.578,18.578,0,0,0-9.151-31.488,3.286,3.286,0,0,0-3.747,4.416l4.147,10.553-3.782,4.705-6-.9-4.15-10.559a3.286,3.286,0,0,0-5.745-.692,18.587,18.587,0,0,0,14.732,29.313l15.309,38.959a7.352,7.352,0,0,0,9.517,4.142Zm-6.458-5.344L106.359,77.543a15.448,15.448,0,0,1-16.011-9.634,15.27,15.27,0,0,1,1.757-14.416L96.949,65.82l9.741,1.456,6.158-7.662L108,47.286a15.3,15.3,0,0,1,5.926,27.3l16.16,41.126a4.064,4.064,0,1,1-7.571,2.955Z" transform="translate(-15.342 -7.492)"/><ellipse class="b" cx="1.568" cy="1.882" rx="1.568" ry="1.882" transform="translate(0 121.809)"/><path class="b" d="M10.108,148H7.643a1.643,1.643,0,0,0,0,3.286h2.465a1.643,1.643,0,1,0,0-3.286Zm122.422,0h-2.465a1.643,1.643,0,1,0,0,3.286h2.465a1.643,1.643,0,1,0,0-3.286Z" transform="translate(-1.07 -26.043)"/><ellipse class="b" cx="1.568" cy="1.882" rx="1.568" ry="1.882" transform="translate(134.864 121.809)"/><path class="a" d="M105.64,156H98.814a1.649,1.649,0,0,0,0,3.286h6.826a1.649,1.649,0,0,0,0-3.286Zm-49.3,0H49.517a1.649,1.649,0,0,0,0,3.286h6.826a1.649,1.649,0,0,0,0-3.286Zm37.668,0H61.146a1.643,1.643,0,1,0,0,3.286h13.1v1.643H67.719a1.643,1.643,0,1,0,0,3.286H88.26a1.643,1.643,0,0,0,0-3.286H80.914v-1.643h13.1a1.643,1.643,0,1,0,0-3.286Z" transform="translate(-8.562 -27.47)"/><path class="a" d="M126.512,121.957H83.952a6.534,6.534,0,0,0,.887-3.286V89.076a8.16,8.16,0,0,1-2.235-.421L81.552,88.3v27.087H24.038V29.935H71.367a8.211,8.211,0,0,1,2.01-3.286H24.038a3.29,3.29,0,0,1,3.286-3.286H78.265a3.278,3.278,0,0,1,.691.076,7.929,7.929,0,0,1,4.79-.414,6.565,6.565,0,0,0-5.481-2.948H27.324a6.573,6.573,0,0,0-6.573,6.573v92.022a6.534,6.534,0,0,0,.887,3.287H16.872a1.657,1.657,0,1,0,0,3.286H126.512a1.657,1.657,0,1,0,0-3.286Zm-99.187,0a3.29,3.29,0,0,1-3.286-3.286H81.552a3.29,3.29,0,0,1-3.286,3.286ZM58.8,6.93a2.465,2.465,0,1,0-2.465-2.465A2.465,2.465,0,0,0,58.8,6.93Zm0-3.7a1.232,1.232,0,1,1-1.232,1.232A1.232,1.232,0,0,1,58.8,3.232Zm63.836,25.49a1.643,1.643,0,1,0,1.643,1.643,1.643,1.643,0,0,0-1.643-1.643Zm0,2.465a.822.822,0,1,1,.822-.822A.822.822,0,0,1,122.633,31.187Zm0-27.133A1.643,1.643,0,1,0,124.276,5.7,1.643,1.643,0,0,0,122.633,4.054Zm0,2.465a.822.822,0,1,1,.822-.822A.822.822,0,0,1,122.633,6.519Zm11.914,39.849a1.643,1.643,0,1,0,1.643,1.643,1.643,1.643,0,0,0-1.643-1.643Zm0,2.465a.822.822,0,1,1,.822-.822A.822.822,0,0,1,134.546,48.833ZM36.362,14.72a1.643,1.643,0,1,0-1.643,1.643A1.643,1.643,0,0,0,36.362,14.72Zm-2.465,0a.822.822,0,1,1,.822.822A.822.822,0,0,1,33.9,14.72Z" transform="translate(-2.676)"/><path class="a" d="M9.346,40.567l1.222-1.606L9.8,38.524l-.784,1.8H8.986l-.8-1.787-.785.45,1.209,1.568v.025l-1.891-.244v.874l1.9-.244v.025L7.4,42.56l.733.463.836-1.813H9l.772,1.8.81-.463L9.346,41v-.025l1.941.232v-.874l-1.941.256Z" transform="translate(-1.199 -6.515)"/><path class="a" d="M5.5,9.921l-.7.9.422.267L5.7,10.047h.015l.444,1.036.467-.266-.711-.888V9.914l1.117.133v-.5l-1.117.148V9.677l.7-.925L6.171,8.5,5.719,9.536H5.7L5.246,8.507l-.453.259.7.9v.015L4.4,9.543v.5l1.1-.14Z" transform="translate(-0.785 -1.159)"/><path class="a" d="M163.752,25.949v-.857l-1.9.252v-.025l1.2-1.576-.757-.429-.769,1.765H161.5l-.781-1.753-.771.442,1.186,1.538v.025l-1.854-.24v.857l1.867-.239v.025l-1.2,1.538.719.454.821-1.779h.024l.757,1.766.8-.454-1.211-1.513v-.025Z" transform="translate(-28.411 -3.802)"/><path class="a" d="M116.266,19.211l1.034-1.36-.653-.37L115.984,19h-.022l-.674-1.512-.665.381,1.023,1.327v.021l-1.6-.206v.739l1.61-.207v.022L114.623,20.9l.62.392.707-1.534h.021l.653,1.522.685-.391-1.044-1.306v-.022l1.642.2v-.739l-1.642.217Z" transform="translate(-20.343 -2.761)"/></g></svg>