<svg xmlns="http://www.w3.org/2000/svg" width="41.726" height="45.798" viewBox="0 0 41.726 45.798"><defs><style>.a,.c,.e{fill:none;}.a,.d,.e{stroke:#fff;stroke-miterlimit:10;}.a{stroke-width:1.195px;}.b{fill:#1c75bc;}.d,.f{fill:#fff;}.d{stroke-width:0.747px;}.e{stroke-width:1.644px;}</style></defs><g transform="translate(0.578 0.825)"><path class="a" d="M39.357,33.882c.009,3.831-2.692,7.488-6.815,9.24a9.338,9.338,0,0,0,0,1.069c.441,7.715,10.341,12.928,14.437,14.838l6.241-6.6a5.009,5.009,0,0,1,1.916-.486c3.787-.162,8.02,4.318,8.02,8.555,0,4.148-4.812,8.8-11.5,8.555l-.668.009A35.7,35.7,0,0,1,38.862,64,36.516,36.516,0,0,1,27.1,51.17c-2.286-4.161-4.456-8.111-3.993-13.485A19.811,19.811,0,0,1,28.77,25.833a6.72,6.72,0,0,1,2.941-.619A7.464,7.464,0,0,1,36.7,27.531,9.614,9.614,0,0,1,39.357,33.882Z" transform="translate(-23.048 -24.689)"/><path class="b" d="M60.922,57.271" transform="translate(-29.553 -30.195)"/><path class="c" d="M38.982,28.974" transform="translate(-25.785 -25.335)"/><circle class="d" cx="0.552" cy="0.552" r="0.552" transform="translate(5.783 1.432)"/><circle class="d" cx="0.552" cy="0.552" r="0.552" transform="translate(8.278 3.087)"/><circle class="d" cx="0.552" cy="0.552" r="0.552" transform="translate(10.477 5.03)"/><circle class="d" cx="0.552" cy="0.552" r="0.552" transform="translate(12.646 6.919)"/><circle class="d" cx="0.552" cy="0.552" r="0.552" transform="translate(14.865 9.189)"/><circle class="d" cx="0.552" cy="0.552" r="0.552" transform="translate(29.924 27.917)"/><circle class="d" cx="0.552" cy="0.552" r="0.552" transform="translate(32.419 29.572)"/><circle class="d" cx="0.552" cy="0.552" r="0.552" transform="translate(34.617 31.515)"/><circle class="d" cx="0.552" cy="0.552" r="0.552" transform="translate(36.786 33.404)"/><circle class="d" cx="0.552" cy="0.552" r="0.552" transform="translate(39.006 35.674)"/><path class="e" d="M47.908,46.31V34.322a6.992,6.992,0,0,1,0-1.114,9.935,9.935,0,0,1,8.2-8.553,9.992,9.992,0,0,1,6.862,1.871,10.976,10.976,0,0,1,2.676,2.625,10.5,10.5,0,0,1,1.1,2.088,11.821,11.821,0,0,1,.5,7.407,9.357,9.357,0,0,1-1.609,3.476c-2.331,3.068-6.645,4.306-6.764,4.367Z" transform="translate(-27.313 -24.581)"/><path class="f" d="M51.774,41.969V41.8c.019-1.706,1.025-2.808,2.4-4.1,1.114-1.045,1.5-1.374,1.5-2.371,0-.906-.151-1.27-.93-1.27-.686,0-.954.343-.954,1.055v.469h-1.97v-.509c0-1.037.5-2.2,3.021-2.2,2.312,0,2.971.957,2.971,2.371s-.693,2.039-1.818,3.05a5.246,5.246,0,0,0-1.839,2.457H58.07l-.288,1.225Z" transform="translate(-27.981 -26.003)"/><path class="f" d="M63.619,41.993v-2.24h-3.8V38.7L62.707,33h2.865v5.588H66.59l-.158,1.165h-.853V42Zm0-5c0-.9.057-1.812.08-2.711h-.021c-.583,1.477-1.178,2.837-1.843,4.309h1.784Z" transform="translate(-29.363 -26.027)"/></g></svg>