<svg xmlns="http://www.w3.org/2000/svg" width="57.876" height="58.69" viewBox="0 0 57.876 58.69">
  <g id="digitalocean-icon" transform="translate(-65.2 -172.383)">
    <path id="Path_1400" data-name="Path 1400" d="M94.142,232.188V220.816c11.879,0,21.1-11.921,16.538-24.609a16.886,16.886,0,0,0-10.007-10.144,17.854,17.854,0,0,0-24.281,16.763H65.2a29.107,29.107,0,0,1,38.162-27.869,28.169,28.169,0,0,1,18.276,18.524c6.2,20.156-8.531,38.712-27.5,38.712Z" transform="translate(0 -1.12)" fill="#fff"/>
    <path id="Path_1401" data-name="Path 1401" d="M81.934,204.181V193.152H92.968v11.029Zm-8.5,8.5v-8.5h8.5v8.5Zm0-8.5H66.324v-7.1h7.107Z" transform="translate(0.887 14.11)" fill="#fff"/>
  </g>
</svg>
