<svg xmlns="http://www.w3.org/2000/svg" width="40.157" height="58.963" viewBox="0 0 40.157 58.963">
  <g id="figma_1_" data-name="figma (1)" transform="translate(-105.59 -70.393)">
    <path id="Path_1315" data-name="Path 1315" d="M24.439,48.454a9.935,9.935,0,0,0,10.039-9.827V28.8H24.439a9.829,9.829,0,1,0,0,19.655Z" transform="translate(91.19 80.902)" fill="#fff"/>
    <path id="Path_1316" data-name="Path 1316" d="M14.4,29.027A9.935,9.935,0,0,1,24.439,19.2H34.479V38.854H24.439A9.935,9.935,0,0,1,14.4,29.027Z" transform="translate(91.19 70.848)" fill="#fff"/>
    <path id="Path_1317" data-name="Path 1317" d="M14.4,19.427A9.935,9.935,0,0,1,24.439,9.6H34.479V29.255H24.439A9.935,9.935,0,0,1,14.4,19.427Z" transform="translate(91.19 60.793)" fill="#fff"/>
    <path id="Path_1318" data-name="Path 1318" d="M24,9.6H34.039a9.935,9.935,0,0,1,10.039,9.827,9.935,9.935,0,0,1-10.039,9.827H24Z" transform="translate(101.669 60.793)" fill="#fff"/>
    <path id="Path_1319" data-name="Path 1319" d="M44.079,29.027A10.042,10.042,0,1,1,34.039,19.2,9.935,9.935,0,0,1,44.079,29.027Z" transform="translate(101.669 70.848)" fill="#fff"/>
  </g>
</svg>
