<svg xmlns="http://www.w3.org/2000/svg" xmlns:xlink="http://www.w3.org/1999/xlink" width="35.257" height="49.466" viewBox="0 0 35.257 49.466">
  <defs>
    <clipPath id="clip-path">
      <path id="Path_1334" data-name="Path 1334" d="M39.939,23.629,28.186,36.95,39.939,50.27H26.509L14.753,36.95l11.757-13.32ZM26.509.8,4.682,25.534l6.717,7.61L39.939.8H26.509Z" transform="translate(-4.682 -0.804)" fill="#fff"/>
    </clipPath>
  </defs>
  <g id="flutterio-ar21" transform="translate(-4.121 -7.966)">
    <g id="Group_1010" data-name="Group 1010" transform="translate(4.121 7.966)">
      <g id="Group_1005" data-name="Group 1005" transform="translate(0 0)" clip-path="url(#clip-path)">
        <path id="Path_1333" data-name="Path 1333" d="M20.7,40.34,39.169,19.41H25.739L13.987,32.73Z" transform="translate(-3.912 3.416)" fill="#fff"/>
      </g>
      <g id="Group_1006" data-name="Group 1006" transform="translate(0 0)" clip-path="url(#clip-path)">
        <path id="Path_1335" data-name="Path 1335" d="M4.682,25.534,26.509.8H39.939L11.4,33.144Z" transform="translate(-4.682 -0.804)" fill="#fff"/>
      </g>
      <g id="Group_1007" data-name="Group 1007" transform="translate(0 0)" clip-path="url(#clip-path)">
        <path id="Path_1337" data-name="Path 1337" d="M25.226,43.583H38.656L26.9,30.268l-6.717,7.61Z" transform="translate(-3.399 5.878)" fill="#fff"/>
      </g>
      <g id="Group_1008" data-name="Group 1008" transform="translate(0 0)" clip-path="url(#clip-path)">
        <path id="Path_1339" data-name="Path 1339" d="M26.9,30.268l-6.717,7.61,9.962-3.91Z" transform="translate(-3.399 5.878)" fill="#fff"/>
      </g>
      <g id="Group_1009" data-name="Group 1009" transform="translate(0 0)" clip-path="url(#clip-path)">
        <path id="Path_1341" data-name="Path 1341" d="M13.986,31.673l6.717-7.61,6.717,7.61L20.7,39.283Z" transform="translate(-3.912 4.471)" fill="#fff"/>
      </g>
      <path id="Path_1343" data-name="Path 1343" d="M39.939,23.629,28.186,36.95,39.939,50.27H26.509L14.753,36.95l11.757-13.32ZM26.509.8,4.682,25.534l6.717,7.61L39.939.8H26.509Z" transform="translate(-4.682 -0.804)" fill="#fff"/>
    </g>
  </g>
</svg>
