<svg xmlns="http://www.w3.org/2000/svg" width="36.296" height="51.616" viewBox="0 0 36.296 51.616">
  <g id="Group_1210" data-name="Group 1210" transform="translate(6226.634 -987.455)">
    <g id="html_5" data-name="html 5" transform="translate(-6223.404 987.455)">
      <path id="Path_270" data-name="Path 270" d="M24.18,0h2.327V2.169h2.129V0h2.327V6.567H28.636v-2.2H26.507v2.2H24.18Zm9.844,2.178H31.975V0H38.4V2.178H36.351V6.567H34.024V2.178h0ZM39.421,0h2.428l1.493,2.307L44.831,0h2.428V6.567H44.941V3.312l-1.6,2.335H43.3L41.7,3.312V6.567H39.42Zm9,0h2.328V4.4h3.273v2.17h-5.6Z" transform="translate(-24.18)" fill="#fff"/>
    </g>
    <path id="html5" d="M4.666,3.411l3.3,37.516L22.79,45.094l14.863-4.173L40.96,3.411H4.664Zm6.862,8.9-.109-1.235H22.8v4.6H16.385l.415,4.712h6v4.6H12.645l-1.117-12.68Zm21.72,9.314L32.18,33.742l-.069.777L22.79,37.135l-9.308-2.616-.637-7.225h4.561l.323,3.67,5.064,1.382,5.067-1.386.527-5.967H22.808v-4.6H33.354l-.11,1.235Zm.823-9.314-.207,2.333-.091,1.034H22.813v-4.6H34.18l-.109,1.233Z" transform="translate(-6231.298 993.977)" fill="#fff"/>
  </g>
</svg>
