<svg xmlns="http://www.w3.org/2000/svg" width="59.113" height="56.25" viewBox="0 0 59.113 56.25">
  <g id="Group_1213" data-name="Group 1213" transform="translate(-1328.496 -436.412)">
    <g id="Photo_Surface" data-name="Photo Surface" transform="translate(1329.996 437.912)">
      <rect id="Outline_no_shadow" data-name="Outline no shadow" width="56.113" height="53.25" rx="8" fill="none" stroke="#fff" stroke-width="3"/>
    </g>
    <path id="Path_1320" data-name="Path 1320" d="M78.6,92.434H70.538l-2.083,6.494a.332.332,0,0,1-.376.321H64.292q-.379,0-.264-.4L71.336,75.41a7.713,7.713,0,0,0,.3-2.205.227.227,0,0,1,.057-.182.192.192,0,0,1,.168-.062h5.3a.236.236,0,0,1,.266.2l8.178,25.728c.077.243.014.36-.189.36h-4.24a.389.389,0,0,1-.379-.243Zm-7.166-4.381h6.284c-.151-.358-2.978-10.206-3.18-11.036h-.036ZM90.127,77.83a2.552,2.552,0,0,1-1.941-.781,2.94,2.94,0,0,1-.744-2.118,2.979,2.979,0,0,1,.764-2.14,2.6,2.6,0,0,1,1.961-.8,2.5,2.5,0,0,1,1.961.8,3.079,3.079,0,0,1,.724,2.14,2.941,2.941,0,0,1-.744,2.118,2.606,2.606,0,0,1-1.981.781ZM87.894,98.885V80.1a.3.3,0,0,1,.075-.245.254.254,0,0,1,.227-.081h3.9a.256.256,0,0,1,.226.082.3.3,0,0,1,.076.244v18.82a.3.3,0,0,1-.075.245.254.254,0,0,1-.227.081H88.232a.287.287,0,0,1-.253-.092A.34.34,0,0,1,87.894,98.885Z" transform="translate(1279.625 378.918)" fill="#fff"/>
  </g>
</svg>
