<svg xmlns="http://www.w3.org/2000/svg" width="54.218" height="60.03" viewBox="0 0 54.218 60.03">
  <g id="Group_1178" data-name="Group 1178" transform="translate(-15787 -19438.051)">
    <path id="Path_1230" data-name="Path 1230" d="M28.1,47.913,1.08,57.852l4.27,37,22.781,13.087,22.9-13.262,4.268-37Z" transform="translate(15785.92 19390.137)" fill="#b3b3b3"/>
    <path id="Path_1231" data-name="Path 1231" d="M40.744,58.4,16.183,49.6v54.027L36.767,91.66Z" transform="translate(15797.777 19391.459)" fill="#a6120d"/>
    <path id="Path_1232" data-name="Path 1232" d="M2.778,58.558,6.439,91.819l20.268,11.808V49.6Z" transform="translate(15787.253 19391.459)" fill="#dd1b16"/>
    <path id="Path_1233" data-name="Path 1233" d="M30.293,76.158l-6.762,3.161H16.4L13.053,87.7l-6.23.114L23.529,50.646l6.764,25.512Zm-.655-1.592-6.062-12L18.6,74.359h4.929Z" transform="translate(15790.429 19392.281)" fill="#f2f2f2"/>
    <path id="Path_1234" data-name="Path 1234" d="M16.183,50.646l.043,11.917L21.87,74.369H16.194l-.011,4.943,7.845.007,3.668,8.5,5.962.111Z" transform="translate(15797.777 19392.281)" fill="#b3b3b3"/>
  </g>
</svg>
