<svg xmlns="http://www.w3.org/2000/svg" width="34.741" height="51.731" viewBox="0 0 34.741 51.731">
  <g id="Group_1214" data-name="Group 1214" transform="translate(6082.524 -801.474)">
    <g id="css_3" data-name="css 3" transform="translate(-6075.687 801.474)">
      <path id="Path_248" data-name="Path 248" d="M172.155,38.947V36.8h3.131V34.453h-5.479V41.09h5.479V38.947Zm8.763-2.146h2.189V34.453h-5.48V36.8c.733.733,1.115,1.084,2.175,2.144h-2.175v2.142h5.479v-2.14Zm7.766,0h2.189V34.453h-5.48V36.8c.733.733,1.116,1.084,2.176,2.144h-2.176v2.142h5.48v-2.14Z" transform="translate(-169.807 -34.453)" fill="#fff"/>
    </g>
    <path id="css3_1_" data-name="css3 (1)" d="M8.76,1l3.162,37.286,14.188,4.155,14.227-4.17L43.5,1H8.76ZM36.932,9.542,35.88,21.963l0,.067,0,.154h0l-.748,8.685-.082.772L26.13,34.231h0l-.007.006-8.9-2.605-.6-7.18h4.366l.31,3.651,4.838,1.377v0h0l4.856-1.4.513-5.946H21.348l-.087-1.005-.2-2.355-.1-1.264H31.886l.4-4.624H15.64l-.087-1-.2-2.355-.1-1.264H37.036l-.1,1.276Z" transform="translate(-6091.284 810.764)" fill="#fff"/>
  </g>
</svg>
