<svg xmlns="http://www.w3.org/2000/svg" width="36.296" height="51.232" viewBox="0 0 36.296 51.232">
  <g id="html_5" data-name="html 5" transform="translate(-0.445)">
    <path id="Path_267" data-name="Path 267" d="M36.741,70.766l-3.307,37.043-14.863,4.12L3.748,107.815.445,70.766Z" transform="translate(0 -60.698)" fill="#e44d26"/>
    <path id="Path_268" data-name="Path 268" d="M128,127.042l12.011-3.33,2.826-31.655H128Z" transform="translate(-109.407 -78.96)" fill="#f16529"/>
    <path id="Path_269" data-name="Path 269" d="M52.883,128.541h6.428V124H47.917l.109,1.219,1.117,12.522H59.311v-4.546H53.3Zm1.024,11.469H49.346l.636,7.134,9.308,2.582.021-.006V145l-.02.005-5.06-1.366-.323-3.624Z" transform="translate(-40.718 -106.356)" fill="#ebebeb"/>
    <path id="Path_270" data-name="Path 270" d="M24.18,0h2.309V2.282H28.6V0h2.309V6.909H28.6V4.6H26.489V6.909H24.18Zm9.767,2.291H31.915V0H38.29V2.291H36.257V6.909H33.948V2.291h0ZM39.3,0h2.409l1.481,2.427L44.671,0H47.08V6.909h-2.3V3.484L43.191,5.941h-.04l-1.59-2.456V6.908H39.3Zm8.926,0h2.31V4.625h3.247V6.908H48.229Z" transform="translate(-20.358)"/>
    <path id="Path_271" data-name="Path 271" d="M127.888,137.733h5.6l-.528,5.893-5.068,1.368v4.727l9.314-2.582.068-.768,1.068-11.963.111-1.22H127.888Zm0-9.208v.011h10.974l.092-1.021.207-2.306.108-1.219H127.888v4.533Z" transform="translate(-109.311 -106.351)" fill="#fff"/>
  </g>
</svg>
