<svg xmlns="http://www.w3.org/2000/svg" width="44.965" height="49.466" viewBox="0 0 44.965 49.466">
  <g id="python_4_" data-name="python (4)" transform="translate(0 0)">
    <path id="Path_1250" data-name="Path 1250" d="M33.2,30.085c3.121,0,4.276-2.4,5.358-5.986,1.124-3.7,1.075-7.255,0-11.992C37.782,8.7,36.319,6.122,33.2,6.122H29.173v5.235c0,4.065-3.133,7.488-6.706,7.488H11.75c-2.93,0-5.358,2.76-5.358,5.994V36.081c0,3.2,2.529,5.079,5.358,5.994a16.487,16.487,0,0,0,10.719,0c2.7-.862,5.36-2.6,5.36-5.994v-4.5H17.118v-1.5H33.2Z" transform="translate(5.584 6.497)" fill="#fff"/>
    <path id="Path_1251" data-name="Path 1251" d="M6.453,36.583h3.683V31.2c0-3.9,3.061-7.331,6.706-7.331H27.561c2.981,0,5.358-2.7,5.358-6V6.615A6.353,6.353,0,0,0,27.561.474,30.084,30.084,0,0,0,16.842.487l0,0c-4.538.882-5.36,2.727-5.36,6.138v4.493h10.73v1.5H7.457c-3.123,0-5.853,2.065-6.7,5.988a24.238,24.238,0,0,0,0,11.992c.761,3.487,2.58,5.983,5.7,5.983Z" transform="translate(0 0)" fill="#fff"/>
    <path id="Path_1252" data-name="Path 1252" d="M16.9,12.3H11.75c-2.93,0-5.358,2.76-5.358,5.994V29.53c0,3.2,2.529,5.079,5.358,5.994a17.236,17.236,0,0,0,5.149.895V12.3Z" transform="translate(5.584 13.047)" fill="#fff"/>
    <path id="Path_1253" data-name="Path 1253" d="M22.159,0A28.141,28.141,0,0,0,16.84.486l0,0c-4.536.882-5.358,2.727-5.358,6.138v4.493h10.73v1.5H7.457c-3.123,0-5.853,2.065-6.7,5.988A27.592,27.592,0,0,0,0,24.482v.208A27.843,27.843,0,0,0,.753,30.6c.761,3.487,2.58,5.983,5.7,5.983h3.683V31.2c0-3.9,3.061-7.331,6.706-7.331h5.641V0c-.109,0-.215,0-.324,0Z" transform="translate(0 0)" fill="#fff"/>
    <path id="Path_1254" data-name="Path 1254" d="M18.231,7.361h0V7.353Z" transform="translate(15.926 7.803)" fill="#fff"/>
    <path id="Path_1255" data-name="Path 1255" d="M22.127,39.213a2.261,2.261,0,0,1,0,4.5,2.261,2.261,0,0,1,0-4.5ZM9.57,6.249A2.14,2.14,0,0,1,7.554,4.007,2.148,2.148,0,0,1,9.57,1.756a2.156,2.156,0,0,1,2.018,2.253A2.139,2.139,0,0,1,9.57,6.249Z" transform="translate(6.599 1.864)" fill="#f2bb30"/>
    <path id="Path_1256" data-name="Path 1256" d="M9.57,1.756A2.148,2.148,0,0,0,7.554,4.009,2.14,2.14,0,0,0,9.57,6.251h0v-4.5ZM22.127,39.213a2.261,2.261,0,0,0,0,4.5h0v-4.5Z" transform="translate(6.599 1.864)" fill="#f2bb30"/>
  </g>
</svg>
