<svg xmlns="http://www.w3.org/2000/svg" width="62.768" height="58.963" viewBox="0 0 62.768 58.963">
  <g id="rails-logo" transform="translate(-2 -0.4)">
    <path id="Path_1293" data-name="Path 1293" d="M9,66.63H30.864s-4.179-29.972,9.659-42.109c3.017-2.306,12.62-10.919,28.34,7.352.5-.653.969-1.175.969-1.175S55.439,8.121,39.415,10.644C31.362,11.775,21.454,23.3,15.642,38.529A106.9,106.9,0,0,0,9,66.63Z" transform="translate(-5.063 -7.267)" fill="#fff"/>
    <path id="Path_1294" data-name="Path 1294" d="M9,66.63H30.864s-4.179-29.972,9.659-42.109c3.017-2.306,12.62-10.919,28.34,7.352.5-.653.969-1.175.969-1.175S55.439,8.121,39.415,10.644C31.362,11.775,21.454,23.3,15.642,38.529A106.9,106.9,0,0,0,9,66.63Z" transform="translate(-5.063 -7.267)" fill="#fff"/>
    <path id="Path_1296" data-name="Path 1296" d="M166.585,9.123l.111-1.854a13.534,13.534,0,0,0-2.685-.969L163.9,8.127C164.813,8.431,165.7,8.763,166.585,9.123Z" transform="translate(-117.094 -4.267)" fill="#fff"/>
    <path id="Path_1297" data-name="Path 1297" d="M163.811,37.7l-.111,1.744a15.432,15.432,0,0,1,2.74.332l.111-1.716A19.6,19.6,0,0,0,163.811,37.7Z" transform="translate(-116.949 -21.188)" fill="#fff"/>
    <path id="Path_1298" data-name="Path 1298" d="M119.434,2.088h.277L119.157.4A22.082,22.082,0,0,0,116.5.566l.526,1.633A23.364,23.364,0,0,1,119.434,2.088Z" transform="translate(-82.812 0)" fill="#fff"/>
    <path id="Path_1299" data-name="Path 1299" d="M131.9,40.986l.637,1.91a17.508,17.508,0,0,1,2.408-.969l-.609-1.827A20.075,20.075,0,0,0,131.9,40.986Z" transform="translate(-93.95 -22.428)" fill="#fff"/>
    <path id="Path_1300" data-name="Path 1300" d="M77.6,12.01,76.359,10.1c-.692.36-1.411.747-2.159,1.19l1.273,1.937C76.193,12.785,76.885,12.369,77.6,12.01Z" transform="translate(-52.218 -7.015)" fill="#fff"/>
    <path id="Path_1301" data-name="Path 1301" d="M107,57.154l1.328,1.993a15.367,15.367,0,0,1,1.633-1.965L108.716,55.3A15.309,15.309,0,0,0,107,57.154Z" transform="translate(-75.941 -30.751)" fill="#fff"/>
    <path id="Path_1302" data-name="Path 1302" d="M92.5,86.244l2.242,1.771a22.1,22.1,0,0,1,.581-3.238L93.33,83.2A26.313,26.313,0,0,0,92.5,86.244Z" transform="translate(-65.454 -45.99)" fill="#fff"/>
    <path id="Path_1303" data-name="Path 1303" d="M38.213,42.216,36.248,40.5c-.72.692-1.411,1.384-2.048,2.076L36.331,44.4A28.03,28.03,0,0,1,38.213,42.216Z" transform="translate(-23.289 -22.45)" fill="#fff"/>
    <path id="Path_1304" data-name="Path 1304" d="M6.566,88.362,3.384,87.2C2.858,88.39,2.277,89.774,2,90.521l3.183,1.162C5.542,90.742,6.124,89.386,6.566,88.362Z" transform="translate(0 -48.354)" fill="#fff"/>
    <path id="Path_1305" data-name="Path 1305" d="M91,119.6a28.116,28.116,0,0,0,.332,3.487l3.321,1.19a36.578,36.578,0,0,1-.664-3.6Z" transform="translate(-64.369 -65.772)" fill="#fff"/>
  </g>
</svg>
