<svg xmlns="http://www.w3.org/2000/svg" width="47.584" height="58.963" viewBox="0 0 47.584 58.963">
  <g id="react_4_" data-name="react (4)" transform="translate(-13.1 -2.1)">
    <circle id="Ellipse_664" data-name="Ellipse 664" cx="1.939" cy="1.939" r="1.939" transform="translate(34.953 20.937)" fill="#61dafb"/>
    <path id="Path_1235" data-name="Path 1235" d="M36.892,39.9c3.412,3.371,6.778,5.366,9.489,5.366a4.639,4.639,0,0,0,2.431-.617c2.431-1.425,3.319-4.986,2.477-10.067-.14-.9-.327-1.8-.561-2.754.935-.285,1.776-.57,2.618-.855,4.721-1.852,7.339-4.416,7.339-7.218,0-2.849-2.618-5.413-7.339-7.218a21.2,21.2,0,0,0-2.618-.855c.234-.95.421-1.852.561-2.754.795-5.176-.093-8.785-2.524-10.209A4.639,4.639,0,0,0,46.334,2.1c-2.664,0-6.077,1.994-9.489,5.366C33.48,4.094,30.114,2.1,27.4,2.1a4.639,4.639,0,0,0-2.431.617C22.542,4.142,21.654,7.7,22.5,12.784c.14.9.327,1.8.561,2.754-.935.285-1.776.57-2.618.855-4.721,1.852-7.339,4.416-7.339,7.218,0,2.849,2.618,5.413,7.339,7.218a21.2,21.2,0,0,0,2.618.855c-.234.95-.421,1.852-.561,2.754-.795,5.081.093,8.69,2.477,10.067a4.639,4.639,0,0,0,2.431.617c2.711.095,6.077-1.9,9.489-5.223Zm-2.618-6.411c.841.047,1.729.047,2.618.047s1.776,0,2.618-.047c-.841,1.14-1.729,2.184-2.618,3.182C36,35.673,35.116,34.628,34.274,33.488Zm-5.8-4.891c.467.807.888,1.567,1.4,2.327-1.449-.19-2.8-.427-4.113-.712.421-1.282.888-2.612,1.449-3.941C27.59,27.03,28.011,27.837,28.478,28.6ZM25.767,17.153c1.309-.285,2.664-.522,4.113-.712-.467.76-.935,1.52-1.4,2.327s-.888,1.567-1.262,2.374A32.068,32.068,0,0,1,25.767,17.153Zm2.571,6.506c.608-1.282,1.262-2.564,2.01-3.846.7-1.235,1.5-2.469,2.29-3.7,1.4-.095,2.8-.142,4.254-.142,1.5,0,2.9.047,4.254.142.841,1.235,1.589,2.469,2.29,3.7.748,1.282,1.4,2.564,2.01,3.846-.608,1.282-1.262,2.564-2.01,3.846-.7,1.235-1.5,2.469-2.29,3.7-1.4.095-2.8.142-4.254.142-1.5,0-2.9-.047-4.254-.142-.841-1.235-1.589-2.469-2.29-3.7-.748-1.282-1.4-2.564-2.01-3.846Zm18.276-2.564L45.353,18.72c-.467-.807-.888-1.567-1.4-2.327,1.449.19,2.8.427,4.113.712C47.643,18.435,47.175,19.765,46.615,21.094Zm0,5.128c.561,1.33,1.028,2.659,1.449,3.941-1.309.285-2.664.522-4.113.712.467-.76.935-1.52,1.4-2.327.421-.712.841-1.52,1.262-2.327ZM47.69,42.7a2.5,2.5,0,0,1-1.356.332c-2.29,0-5.142-1.9-7.946-4.749A49.577,49.577,0,0,0,42.361,33.3a42.19,42.19,0,0,0,6.264-1,24.887,24.887,0,0,1,.514,2.564C49.793,38.9,49.279,41.8,47.69,42.7ZM50.12,17.675c5.235,1.52,8.367,3.846,8.367,5.983,0,1.852-2.15,3.7-5.936,5.176-.748.285-1.589.57-2.431.807a50.392,50.392,0,0,0-2.29-5.983,43.427,43.427,0,0,0,2.29-5.983ZM46.381,4.284a2.614,2.614,0,0,1,1.356.332c1.543.9,2.1,3.751,1.449,7.835-.14.807-.327,1.662-.514,2.564a59.781,59.781,0,0,0-6.264-1,43.75,43.75,0,0,0-3.973-4.986C41.239,6.231,44.09,4.284,46.381,4.284ZM39.51,13.829c-.841-.047-1.729-.047-2.618-.047s-1.776,0-2.618.047c.841-1.14,1.729-2.184,2.618-3.182C37.78,11.645,38.668,12.737,39.51,13.829ZM26.094,4.617a2.5,2.5,0,0,1,1.356-.332c2.29,0,5.142,1.9,7.946,4.749a49.576,49.576,0,0,0-3.973,4.986,42.189,42.189,0,0,0-6.264,1,24.89,24.89,0,0,1-.514-2.564c-.654-4.036-.14-6.885,1.449-7.835ZM23.664,29.642C18.429,28.122,15.3,25.8,15.3,23.659c0-1.852,2.15-3.7,5.936-5.176.748-.285,1.589-.57,2.431-.807a50.392,50.392,0,0,0,2.29,5.983A45.877,45.877,0,0,0,23.664,29.642Zm.982,5.223c.14-.807.327-1.662.514-2.564a59.779,59.779,0,0,0,6.264,1A43.75,43.75,0,0,0,35.4,38.284c-2.8,2.8-5.656,4.749-7.946,4.749a2.614,2.614,0,0,1-1.356-.332C24.505,41.8,23.991,38.9,24.645,34.865ZM22.682,54.429A3.922,3.922,0,0,0,23.2,50.3a3.292,3.292,0,0,0-3.179-2.137c-1.729-.047-3.506,0-5.235,0h-.327v12.3h1.4V55.807h2.2a.7.7,0,0,1,.654.332l2.8,4.416c.047.095.187.237.28.237h1.823c-1.122-1.757-2.2-3.419-3.319-5.128A3.377,3.377,0,0,0,22.682,54.429Zm-6.824-.095v-4.7h.514c1.075,0,2.2-.047,3.272.047a2.227,2.227,0,0,1,2.15,2.327,2.344,2.344,0,0,1-2.29,2.327C18.382,54.382,17.26,54.334,15.858,54.334Zm18.089.617a4.206,4.206,0,0,0-6.03-3.134A4.5,4.5,0,0,0,25.3,56.139a4.642,4.642,0,0,0,1.5,3.8,4.9,4.9,0,0,0,4.394,1,4.269,4.269,0,0,0,2.29-1.282c-.234-.332-.467-.665-.7-.95a3.742,3.742,0,0,1-4.347.76A3.537,3.537,0,0,1,26.8,56.709h7.245v-.617A2.973,2.973,0,0,0,33.947,54.952Zm-7.058.76a2.916,2.916,0,0,1,2.8-2.944,2.71,2.71,0,0,1,2.945,2.944Zm14.35-4.131a8.2,8.2,0,0,0-2.15-.142,4.42,4.42,0,0,0-2.9,1.472c.234.332.421.665.7,1.045a1.244,1.244,0,0,1,.28-.237,3.358,3.358,0,0,1,2.711-1,1.811,1.811,0,0,1,1.87,1.187A10.218,10.218,0,0,1,41.94,56a.273.273,0,0,1-.234-.095,3.989,3.989,0,0,0-3.739-.807,2.816,2.816,0,0,0-2.15,2.612,2.9,2.9,0,0,0,1.823,3.087,4.163,4.163,0,0,0,2.524.142c.654-.142.935-.522,1.87-1.045v.617h1.309c0-1.9.047-4.226,0-6.411a2.423,2.423,0,0,0-2.1-2.517Zm.654,5.983a1.311,1.311,0,0,0,0,.427A1.486,1.486,0,0,1,40.725,59.7a3.054,3.054,0,0,1-2.057.095,1.863,1.863,0,0,1-1.356-1.757,1.838,1.838,0,0,1,1.262-1.852,3.008,3.008,0,0,1,2.945.522A.8.8,0,0,1,41.894,57.564Zm7.292-4.7a2.747,2.747,0,0,1,3.179.9l.14.095c.327-.285.608-.57.982-.9a1.979,1.979,0,0,1-.28-.38,4.518,4.518,0,0,0-5.656-.475,5.3,5.3,0,0,0-1.122,6.79,4.255,4.255,0,0,0,4.441,1.994,3.929,3.929,0,0,0,2.664-1.567c-.327-.285-.654-.57-.982-.9a.832.832,0,0,0-.187.237,2.836,2.836,0,0,1-4.487-.237,3.8,3.8,0,0,1-.608-2.992,2.777,2.777,0,0,1,1.916-2.564Zm9.722,6.458a.579.579,0,0,0-.14.095,1.169,1.169,0,0,1-1.169.19c-.421-.19-.467-.57-.514-.95V53.242c0-.095,0,.095.047-.38h1.776V51.438h-1.87V49.064h-1.4v2.564H54.421c-.093,0-.234.095-.234.19a7.709,7.709,0,0,0,0,1.045h1.5v6.078a1.894,1.894,0,0,0,.841,1.8,2.672,2.672,0,0,0,2.664-.19c.093-.047.14-.237.14-.285C59.188,59.985,59.048,59.653,58.908,59.32Z" transform="translate(0 0)" fill="#61dafb"/>
  </g>
</svg>
