<svg xmlns="http://www.w3.org/2000/svg" width="49.114" height="52.087" viewBox="0 0 49.114 52.087">
  <g id="redux_1_" data-name="redux (1)" transform="translate(0 -0.501)">
    <path id="Path_1236" data-name="Path 1236" d="M11.671,7.771a10.423,10.423,0,0,1,7.666-3.909c6.622-.14,9.383,9.088,9.6,12.757L32,17.647C31.292,6.4,25.04.5,19.058.5,13.449.5,8.269,5.06,6.182,11.748,3.331,20.664,5.2,29.236,8.7,36.1a3.311,3.311,0,0,0-.428,1.986,3.739,3.739,0,0,0,3.5,3.773h.123a3.712,3.712,0,0,0,3.373-4.047A3.67,3.67,0,0,0,11.8,34.039h-.125a1.2,1.2,0,0,0-.46.066,28.076,28.076,0,0,1-3.217-15.5A19.941,19.941,0,0,1,11.671,7.771Z" transform="translate(5.012 0)" fill="#6c4eb0"/>
    <path id="Path_1237" data-name="Path 1237" d="M1.907,33.133c2.055,3.429,6.256,5.621,10.855,5.621a14.272,14.272,0,0,0,3.772-.444c7.973-1.714,14.014-7.064,17.479-14.949l.029-.07a3.7,3.7,0,0,0,3.068-4.015,3.741,3.741,0,0,0-3.5-3.771h-.125a3.759,3.759,0,0,0-3.373,4.049,4.429,4.429,0,0,0,1.011,2.638A23.957,23.957,0,0,1,20.886,33.167a15.288,15.288,0,0,1-10.118,2.127,8.7,8.7,0,0,1-6.377-4.115A11.253,11.253,0,0,1,3.87,20.344a15.785,15.785,0,0,1,4.3-5.592,24.95,24.95,0,0,1-.86-3.528C-1.775,18.492-.852,28.434,1.907,33.133Z" transform="translate(0 13.562)" fill="#6c4eb0"/>
    <path id="Path_1238" data-name="Path 1238" d="M38.972,36.221c1.838-4.115,1.686-11.041-3.006-16.974l-.029.068a24.205,24.205,0,0,0-19.718-9.67H15.175a3.278,3.278,0,0,0-3.064-2.059H12.02A3.682,3.682,0,0,0,8.649,11.6a3.743,3.743,0,0,0,3.5,3.773H12.3a3.5,3.5,0,0,0,3.066-2.4H16.5a22.023,22.023,0,0,1,13.28,4.559A18.489,18.489,0,0,1,36.4,26.447a10.482,10.482,0,0,1-.092,8.232c-1.748,3.771-4.693,5.761-8.585,5.761a14.6,14.6,0,0,1-6.072-1.474c-.735.682-1.963,1.814-2.853,2.5a18.011,18.011,0,0,0,8.063,2.158A13.484,13.484,0,0,0,38.972,36.221Z" transform="translate(9.049 8.961)" fill="#6c4eb0"/>
  </g>
</svg>
