<svg xmlns="http://www.w3.org/2000/svg" xmlns:xlink="http://www.w3.org/1999/xlink" width="41.718" height="54.864" viewBox="0 0 41.718 54.864">
  <defs>
    <linearGradient id="linear-gradient" x1="1.544" y1="30.912" x2="1.279" y2="31.38" gradientUnits="objectBoundingBox">
      <stop offset="0" stop-color="#fb7655"/>
      <stop offset="0.41" stop-color="#e42b1e"/>
      <stop offset="0.99" stop-color="#900"/>
      <stop offset="1" stop-color="#900"/>
    </linearGradient>
    <linearGradient id="linear-gradient-2" x1="3.511" y1="56.091" x2="2.362" y2="56.507" gradientUnits="objectBoundingBox">
      <stop offset="0" stop-color="#871101"/>
      <stop offset="0.99" stop-color="#911209"/>
      <stop offset="1" stop-color="#911209"/>
    </linearGradient>
    <linearGradient id="linear-gradient-3" x1="1.509" y1="276.796" x2="1.141" y2="278.911" xlink:href="#linear-gradient-2"/>
    <linearGradient id="linear-gradient-4" x1="2.668" y1="64.636" x2="2.833" y2="63.917" gradientUnits="objectBoundingBox">
      <stop offset="0" stop-color="#fff"/>
      <stop offset="0.23" stop-color="#e57252"/>
      <stop offset="0.46" stop-color="#de3b20"/>
      <stop offset="0.99" stop-color="#a60003"/>
      <stop offset="1" stop-color="#a60003"/>
    </linearGradient>
    <linearGradient id="linear-gradient-5" x1="1.804" y1="60.07" x2="1.842" y2="59.403" gradientUnits="objectBoundingBox">
      <stop offset="0" stop-color="#fff"/>
      <stop offset="0.23" stop-color="#e4714e"/>
      <stop offset="0.56" stop-color="#be1a0d"/>
      <stop offset="0.99" stop-color="#a80d00"/>
      <stop offset="1" stop-color="#a80d00"/>
    </linearGradient>
    <linearGradient id="linear-gradient-6" x1="1.869" y1="98.49" x2="1.994" y2="97.721" gradientUnits="objectBoundingBox">
      <stop offset="0" stop-color="#fff"/>
      <stop offset="0.18" stop-color="#e46342"/>
      <stop offset="0.4" stop-color="#c82410"/>
      <stop offset="0.99" stop-color="#a80d00"/>
      <stop offset="1" stop-color="#a80d00"/>
    </linearGradient>
    <linearGradient id="linear-gradient-7" x1="2.134" y1="270.819" x2="2.856" y2="271.87" gradientUnits="objectBoundingBox">
      <stop offset="0" stop-color="#fff"/>
      <stop offset="0.54" stop-color="#c81f11"/>
      <stop offset="0.99" stop-color="#bf0905"/>
      <stop offset="1" stop-color="#bf0905"/>
    </linearGradient>
    <linearGradient id="linear-gradient-8" x1="8.054" y1="87.002" x2="8.285" y2="86.422" gradientUnits="objectBoundingBox">
      <stop offset="0" stop-color="#fff"/>
      <stop offset="0.31" stop-color="#de4024"/>
      <stop offset="0.99" stop-color="#bf190b"/>
      <stop offset="1" stop-color="#bf190b"/>
    </linearGradient>
    <linearGradient id="linear-gradient-9" x1="0.687" y1="40.466" x2="1.936" y2="41.752" gradientUnits="objectBoundingBox">
      <stop offset="0" stop-color="#bd0012"/>
      <stop offset="0.07" stop-color="#fff"/>
      <stop offset="0.17" stop-color="#fff"/>
      <stop offset="0.27" stop-color="#c82f1c"/>
      <stop offset="0.33" stop-color="#820c01"/>
      <stop offset="0.46" stop-color="#a31601"/>
      <stop offset="0.72" stop-color="#b31301"/>
      <stop offset="0.99" stop-color="#e82609"/>
      <stop offset="1" stop-color="#e82609"/>
    </linearGradient>
    <linearGradient id="linear-gradient-10" x1="1.701" y1="63.858" x2="1.232" y2="64.009" gradientUnits="objectBoundingBox">
      <stop offset="0" stop-color="#8c0c01"/>
      <stop offset="0.54" stop-color="#990c00"/>
      <stop offset="0.99" stop-color="#a80d0e"/>
      <stop offset="1" stop-color="#a80d0e"/>
    </linearGradient>
    <linearGradient id="linear-gradient-11" x1="2.297" y1="60.283" x2="1.735" y2="60.732" gradientUnits="objectBoundingBox">
      <stop offset="0" stop-color="#7e110b"/>
      <stop offset="0.99" stop-color="#9e0c00"/>
      <stop offset="1" stop-color="#9e0c00"/>
    </linearGradient>
    <linearGradient id="linear-gradient-12" x1="2.703" y1="79.889" x2="2.372" y2="80.233" gradientUnits="objectBoundingBox">
      <stop offset="0" stop-color="#79130d"/>
      <stop offset="0.99" stop-color="#9e120b"/>
      <stop offset="1" stop-color="#9e120b"/>
    </linearGradient>
    <radialGradient id="radial-gradient" cx="0.32" cy="0.402" r="1.331" gradientUnits="objectBoundingBox">
      <stop offset="0" stop-color="#a80d00"/>
      <stop offset="0.99" stop-color="#7e0e08"/>
      <stop offset="1" stop-color="#7e0e08"/>
    </radialGradient>
    <radialGradient id="radial-gradient-2" cx="0.135" cy="0.409" r="1.135" gradientUnits="objectBoundingBox">
      <stop offset="0" stop-color="#a30c00"/>
      <stop offset="0.99" stop-color="#800e08"/>
      <stop offset="1" stop-color="#800e08"/>
    </radialGradient>
    <linearGradient id="linear-gradient-13" x1="4.088" y1="76.063" x2="3.554" y2="76.96" gradientUnits="objectBoundingBox">
      <stop offset="0" stop-color="#8b2114"/>
      <stop offset="0.43" stop-color="#9e100a"/>
      <stop offset="0.99" stop-color="#b3100c"/>
      <stop offset="1" stop-color="#b3100c"/>
    </linearGradient>
    <linearGradient id="linear-gradient-14" x1="2.119" y1="201.772" x2="2.735" y2="201.12" gradientUnits="objectBoundingBox">
      <stop offset="0" stop-color="#b31000"/>
      <stop offset="0.44" stop-color="#910f08"/>
      <stop offset="0.99" stop-color="#791c12"/>
      <stop offset="1" stop-color="#791c12"/>
    </linearGradient>
  </defs>
  <g id="ruby_1_" data-name="ruby (1)" transform="translate(-21.188 -2.408)">
    <path id="Path_1270" data-name="Path 1270" d="M27.795,100.44v3.484h-2.3v-9.08h3.162a6.243,6.243,0,0,1,3.274.674,2.259,2.259,0,0,1,1.062,2.046,2.145,2.145,0,0,1-.528,1.425,3.46,3.46,0,0,1-1.492.979l3.192,3.956H31.609l-2.59-3.484H27.795Zm0-1.565h.743a3.3,3.3,0,0,0,1.611-.3,1.029,1.029,0,0,0,.519-.956.952.952,0,0,0-.531-.919,3.755,3.755,0,0,0-1.644-.273h-.7Zm13.436,5.049-.3-.888h-.119a2.317,2.317,0,0,1-1.032.748,4.119,4.119,0,0,1-1.522.264,3.244,3.244,0,0,1-2.205-.655,2.38,2.38,0,0,1-.743-1.885V96.98H37.57v4.055a1.7,1.7,0,0,0,.32,1.127,1.261,1.261,0,0,0,1.016.375,1.654,1.654,0,0,0,1.373-.531,2.854,2.854,0,0,0,.423-1.76V96.981h2.264v6.943H41.231Zm8.73-7.074a2.888,2.888,0,0,1,2.3.96,3.883,3.883,0,0,1,.831,2.63,3.823,3.823,0,0,1-.857,2.664,3.382,3.382,0,0,1-4.629.055h-.156l-.378.764h-1.73V94.26h2.264v2.248q0,.429-.09,1.373h.09A2.787,2.787,0,0,1,49.961,96.849Zm-.727,1.516a1.565,1.565,0,0,0-1.224.432,2.171,2.171,0,0,0-.4,1.426v.2a2.544,2.544,0,0,0,.4,1.6,1.535,1.535,0,0,0,1.258.484,1.328,1.328,0,0,0,1.11-.537,2.529,2.529,0,0,0,.412-1.562,2.407,2.407,0,0,0-.416-1.537A1.383,1.383,0,0,0,49.233,98.365Zm4.4-1.385h2.479l1.566,3.906a4.618,4.618,0,0,1,.275,1.2h.045a4.582,4.582,0,0,1,.319-1.2l1.537-3.906h2.428l-3.511,7.831a3.486,3.486,0,0,1-1.377,1.627,3.964,3.964,0,0,1-2.09.54,6.221,6.221,0,0,1-1.15-.106v-1.5a4.627,4.627,0,0,0,.891.08,1.815,1.815,0,0,0,1.05-.307,1.988,1.988,0,0,0,.7-.928l.134-.342Z" transform="translate(-2.208 -49.706)"/>
    <path id="Path_1271" data-name="Path 1271" d="M62.456,35.607,38.638,47.438l30.84-1.75,2.375-26.015Z" transform="translate(-8.948 -10.228)" fill="url(#linear-gradient)"/>
    <path id="Path_1272" data-name="Path 1272" d="M91.652,61.21,89,45.905l-7.22,7.976Z" transform="translate(-31.072 -23.373)" fill="url(#linear-gradient-2)"/>
    <path id="Path_1273" data-name="Path 1273" d="M69.673,81.6,50.254,80.328l-11.4,3.01Z" transform="translate(-9.057 -42.99)" fill="url(#linear-gradient-3)"/>
    <path id="Path_1274" data-name="Path 1274" d="M32.777,68.4l4.851-13.3-10.675,1.91Z" transform="translate(-2.956 -28.474)" fill="url(#linear-gradient-4)"/>
    <path id="Path_1275" data-name="Path 1275" d="M63.634,44.322,59.17,29.7,46.4,39.712Z" transform="translate(-12.926 -14.691)" fill="url(#linear-gradient-5)"/>
    <path id="Path_1276" data-name="Path 1276" d="M88.486,18.209,76.41,9.958l-3.362,9.094Z" transform="translate(-26.593 -4.473)" fill="url(#linear-gradient-6)"/>
    <path id="Path_1277" data-name="Path 1277" d="M80.951,2.677,73.85,5.96,69.369,2.633Z" transform="translate(-24.707 -0.133)" fill="url(#linear-gradient-7)"/>
    <path id="Path_1278" data-name="Path 1278" d="M21.188,56.273l2.975-4.539-2.407-5.407Z" transform="translate(0 -23.922)" fill="url(#linear-gradient-8)"/>
    <path id="Path_1279" data-name="Path 1279" d="M22.026,20.137l2.421,5.746,10.521-1.975,12.012-9.339,3.39-9.008L45.034,2.408,35.958,5.249c-2.859,2.225-8.407,6.626-8.608,6.709s-3.663,5.565-5.325,8.178Z" transform="translate(-0.43 0)" fill="#fff"/>
    <path id="Path_1280" data-name="Path 1280" d="M31.617,11.09C37.814,5.95,45.8,2.913,48.868,5.5s-.185,8.875-6.382,14.013S28.4,27.857,25.337,25.269s.084-9.041,6.281-14.179Z" transform="translate(-1.519 -1.275)" fill="url(#linear-gradient-9)"/>
    <path id="Path_1281" data-name="Path 1281" d="M38.906,68.323l4.813-13.338,15.986,4.3C53.925,63.816,47.5,67.648,38.906,68.323Z" transform="translate(-9.086 -28.407)" fill="url(#linear-gradient-10)"/>
    <path id="Path_1282" data-name="Path 1282" d="M73.289,30.929l4.1,13.6c4.828-4.247,9.162-8.812,11.283-14.459Z" transform="translate(-26.717 -14.899)" fill="url(#linear-gradient-11)"/>
    <path id="Path_1283" data-name="Path 1283" d="M92.073,13.958c1.642-4.147,2.021-10.095-5.723-11.2L80,5.7l12.077,8.263Z" transform="translate(-30.156 -0.208)" fill="url(#linear-gradient-12)"/>
    <path id="Path_1284" data-name="Path 1284" d="M21.188,64.274c.228,6.843,6.13,6.945,8.644,7.005L24.024,59.934Z" transform="translate(0 -31.235)" fill="#9e1209"/>
    <path id="Path_1285" data-name="Path 1285" d="M73.337,31c3.71,1.907,11.186,5.739,11.338,5.809.236.111,3.224-4.215,3.9-6.66Z" transform="translate(-26.741 -15.208)" fill="url(#radial-gradient)"/>
    <path id="Path_1286" data-name="Path 1286" d="M48.772,54.986l6.435,10.385a41.659,41.659,0,0,0,9.513-6.082Z" transform="translate(-14.145 -28.611)" fill="url(#radial-gradient-2)"/>
    <path id="Path_1287" data-name="Path 1287" d="M26,59.966l-.912,9.082c1.721,1.966,4.087,2.136,6.57,1.983C29.859,67.291,26.271,59.814,26,59.966Z" transform="translate(-1.998 -31.268)" fill="url(#linear-gradient-13)"/>
    <path id="Path_1288" data-name="Path 1288" d="M79.919,5.708,92.7,7.209c-.683-2.419-2.778-3.979-6.348-4.467Z" transform="translate(-30.117 -0.198)" fill="url(#linear-gradient-14)"/>
  </g>
</svg>
