<svg xmlns="http://www.w3.org/2000/svg" width="47.486" height="60.116" viewBox="0 0 47.486 60.116">
  <g id="Group_1204" data-name="Group 1204" transform="translate(5136.319 -981.912)">
    <path id="Ruby" d="M11.924,36.072l28.754,3.773L30.957,24.261,11.926,36.066ZM43.4,6.9q-1.276,1.841-2.547,3.684-4.372,6.331-8.738,12.661c-.163.236-.372.423-.145.783q4.221,6.706,8.4,13.435a17.5,17.5,0,0,0,1.458,2.09l1.7-32.618L43.4,6.9ZM5.007,20.835a.711.711,0,0,0,.621.121c2.7-1.277,5.412-2.524,8.05-3.907a12.62,12.62,0,0,0,2.265-1.913q3.68-3.252,7.354-6.51a1.827,1.827,0,0,0,.417-.43c.882-1.656,1.744-3.32,2.641-5.033-1.068-.387-2.079-.764-3.1-1.107a.807.807,0,0,0-.509.126c-2.373,1.275-4.787,2.482-7.084,3.875a23.318,23.318,0,0,0-3.1,2.615q-2.463,2.156-4.9,4.352a8.052,8.052,0,0,0-1.154,1.3C5.4,15.874,4.325,17.445,3.2,19.06c.627.626,1.2,1.224,1.807,1.779Zm9.858-2.117L10.811,35.208,29.861,23.393l-15-4.673ZM41.752,6.949,25.56,9.553,31.047,22.42l10.7-15.468ZM15.09,17.6l14.7,4.593L24.351,9.449ZM5.21,24.016.067,35.858l9.8-.279L5.21,24.019ZM9.978,32.84l.123-.026c1.176-4.707,2.369-9.385,3.57-14.276l-7.86,3.927c1.34,3.352,2.767,6.887,4.168,10.375Zm29.8-26.655-4.7-1.194c-2.25-.566-4.507-1.132-6.749-1.707-.28-.072-.484-.119-.651.208-.794,1.568-1.613,3.124-2.42,4.684a1.112,1.112,0,0,0-.039.232l14.55-2.122ZM30.7,2.622l12.751,3.4L41.342.238,30.718,2.5l-.02.115ZM11.062,36.975a38.5,38.5,0,0,0-4.8.013c-1.317.023-2.632.07-3.946.108a.528.528,0,0,0-.406.172l32.63,2.905.022-.141L24.1,38.656C19.754,38.09,15.416,37.458,11.062,36.975ZM.284,32.242q2.1-4.693,4.205-9.392a.576.576,0,0,0-.145-.779c-.588-.538-1.135-1.12-1.779-1.764L0,32.5l.094.043a2.277,2.277,0,0,0,.2-.3ZM27.914,1.794C30.277,1.207,32.675.749,35.058.236c.155-.032.306-.081.459-.123L35.493,0,25.251,1.32a3.972,3.972,0,0,0,2.663.468Z" transform="matrix(0.995, -0.105, 0.105, 0.995, -5136.319, 986.462)" fill="#fff"/>
    <path id="Path_1805" data-name="Path 1805" d="M27.678,101.272v3.953H25.493v-10.3h3a5.139,5.139,0,0,1,3.107.764,3.047,3.047,0,0,1,.507,3.939,3.31,3.31,0,0,1-1.417,1.11l3.03,4.488H31.3l-2.459-3.953H27.678Zm0-1.776h.7a2.7,2.7,0,0,0,1.529-.345,1.234,1.234,0,0,0,.493-1.085,1.127,1.127,0,0,0-.5-1.043,3.056,3.056,0,0,0-1.561-.31h-.662Zm12.754,5.729-.289-1.008H40.03a2.27,2.27,0,0,1-.98.849,3.346,3.346,0,0,1-1.445.3,2.751,2.751,0,0,1-2.093-.743,2.991,2.991,0,0,1-.7-2.138V97.347h2.15v4.6a2.207,2.207,0,0,0,.3,1.279,1.1,1.1,0,0,0,.965.426,1.452,1.452,0,0,0,1.3-.6,3.736,3.736,0,0,0,.4-2V97.347H42.08v7.878H40.432ZM48.718,97.2A2.551,2.551,0,0,1,50.9,98.287a5,5,0,0,1,.789,2.984,4.909,4.909,0,0,1-.813,3.022,2.842,2.842,0,0,1-4.394.063h-.148l-.359.867H44.336V94.26h2.149v2.551q0,.486-.085,1.558h.085A2.486,2.486,0,0,1,48.718,97.2Zm-.69,1.72a1.356,1.356,0,0,0-1.162.49,2.814,2.814,0,0,0-.381,1.618v.232a3.323,3.323,0,0,0,.376,1.818,1.347,1.347,0,0,0,1.195.549,1.2,1.2,0,0,0,1.054-.61,3.3,3.3,0,0,0,.391-1.772,3.13,3.13,0,0,0-.395-1.744A1.236,1.236,0,0,0,48.028,98.918ZM52.2,97.347h2.353l1.487,4.432a6.113,6.113,0,0,1,.261,1.367h.043a6.024,6.024,0,0,1,.3-1.367L58.1,97.347h2.3l-3.333,8.886a3.851,3.851,0,0,1-1.307,1.846,3.3,3.3,0,0,1-1.984.613,4.971,4.971,0,0,1-1.092-.12v-1.705a3.7,3.7,0,0,0,.845.091,1.528,1.528,0,0,0,1-.349,2.254,2.254,0,0,0,.666-1.053l.127-.388Z" transform="translate(-5153.08 933.336)" fill="#fff"/>
  </g>
</svg>
