<svg xmlns="http://www.w3.org/2000/svg" width="121.351" height="105.166" viewBox="0 0 121.351 105.166"><defs><style>.a{fill:#454447;}</style></defs><g transform="translate(-1.999 -6)"><path class="a" d="M117.279,6H8.069A6.292,6.292,0,0,0,2,12.482V80.425A6.292,6.292,0,0,0,8.069,86.9H52.562v8.09H38.405a2.022,2.022,0,0,0-2.022,2.022v10.112H32.338v4.045H93.01v-4.045H88.965V97.009a2.022,2.022,0,0,0-2.022-2.022H72.786V86.9h44.493a6.292,6.292,0,0,0,6.067-6.472V12.482A6.292,6.292,0,0,0,117.279,6ZM8.069,10.045H117.279a2.263,2.263,0,0,1,2.022,2.437V70.717H6.046V12.482a2.263,2.263,0,0,1,2.022-2.437Zm76.852,97.076H40.427v-8.09H84.921ZM68.741,94.986H56.607V86.9H68.741Zm48.538-12.134H8.069a2.263,2.263,0,0,1-2.022-2.427V74.762H119.3v5.663a2.263,2.263,0,0,1-2.022,2.427Z" transform="translate(0)"/><rect class="a" width="4" height="4" transform="translate(108.999 77)"/><path class="a" d="M35.022,41.336h5.1a18.74,18.74,0,0,0,.732,1.766L37.247,46.71a2.022,2.022,0,0,0,0,2.86l5.721,5.721a2.022,2.022,0,0,0,2.86,0l3.608-3.606a18.739,18.739,0,0,0,1.766.732v5.1a2.022,2.022,0,0,0,2.022,2.022h8.09a2.022,2.022,0,0,0,2.022-2.022v-5.1a18.738,18.738,0,0,0,1.766-.732l3.608,3.608a2.022,2.022,0,0,0,2.86,0l5.721-5.721a2.022,2.022,0,0,0,0-2.86L73.685,43.1a18.739,18.739,0,0,0,.73-1.766h5.1a2.022,2.022,0,0,0,2.022-2.022v-8.09A2.022,2.022,0,0,0,79.516,29.2h-5.1a18.737,18.737,0,0,0-.732-1.766l3.608-3.608a2.022,2.022,0,0,0,0-2.86L71.57,15.247a2.022,2.022,0,0,0-2.86,0L65.1,18.853a18.737,18.737,0,0,0-1.766-.73v-5.1A2.022,2.022,0,0,0,61.314,11h-8.09A2.022,2.022,0,0,0,51.2,13.022v5.1a18.741,18.741,0,0,0-1.766.732l-3.608-3.608a2.022,2.022,0,0,0-2.86,0l-5.721,5.721a2.022,2.022,0,0,0,0,2.86l3.606,3.608a18.745,18.745,0,0,0-.732,1.766h-5.1A2.022,2.022,0,0,0,33,31.224v8.09A2.022,2.022,0,0,0,35.022,41.336Zm2.022-8.09H41.62a2.022,2.022,0,0,0,1.958-1.517,14.157,14.157,0,0,1,1.507-3.64,2.022,2.022,0,0,0-.311-2.459l-3.236-3.236,2.86-2.86,3.236,3.236a2.022,2.022,0,0,0,2.459.311,14.157,14.157,0,0,1,3.64-1.507,2.022,2.022,0,0,0,1.517-1.958V15.045h4.045V19.62a2.022,2.022,0,0,0,1.517,1.958,14.157,14.157,0,0,1,3.64,1.507,2.022,2.022,0,0,0,2.459-.311l3.236-3.236,2.86,2.86L69.77,25.632a2.022,2.022,0,0,0-.311,2.459,14.157,14.157,0,0,1,1.507,3.64,2.022,2.022,0,0,0,1.958,1.517h4.571v4.045H72.918a2.022,2.022,0,0,0-1.958,1.516,14.156,14.156,0,0,1-1.507,3.641,2.022,2.022,0,0,0,.311,2.459L73,48.146l-2.86,2.86L66.906,47.77a2.022,2.022,0,0,0-2.459-.311,14.157,14.157,0,0,1-3.64,1.507,2.022,2.022,0,0,0-1.517,1.958v4.571H55.247V50.918a2.022,2.022,0,0,0-1.517-1.958,14.157,14.157,0,0,1-3.64-1.507,2.022,2.022,0,0,0-2.459.311L44.394,51l-2.86-2.86,3.236-3.236a2.022,2.022,0,0,0,.311-2.459,14.157,14.157,0,0,1-1.507-3.64,2.022,2.022,0,0,0-1.958-1.517H37.045Z" transform="translate(31.696 5.112)"/><path class="a" d="M83.852,45.082A10.112,10.112,0,1,0,73.74,34.969,10.112,10.112,0,0,0,83.852,45.082Zm0-16.179a6.067,6.067,0,1,1-6.067,6.067A6.067,6.067,0,0,1,83.852,28.9Zm-72.214-6.66,2.86-2.86-2.615-2.615L14.5,14.153l-2.86-2.86L7.592,15.338a2.022,2.022,0,0,0,0,2.86Z" transform="translate(5.114 5.412)"/><rect class="a" width="10.112" height="4.045" transform="matrix(0.6, -0.8, 0.8, 0.6, 22.629, 25.01)"/><path class="a" d="M21.153,22.242,25.2,18.2a2.022,2.022,0,0,0,0-2.86l-4.045-4.045-2.86,2.86,2.615,2.615-2.615,2.615Z" transform="translate(16.66 5.412)"/><rect class="a" width="5" height="4" transform="translate(45.999 24)"/><rect class="a" width="8" height="4" transform="translate(15.999 32)"/><rect class="a" width="4" height="4" transform="translate(27.999 32)"/><rect class="a" width="13" height="4" transform="translate(35.999 32)"/><rect class="a" width="4" height="4" transform="translate(52.999 32)"/><rect class="a" width="4" height="4" transform="translate(19.999 40)"/><rect class="a" width="8" height="4" transform="translate(27.999 40)"/><rect class="a" width="4" height="4" transform="translate(39.999 40)"/><rect class="a" width="8" height="4" transform="translate(48.999 40)"/><rect class="a" width="8" height="4" transform="translate(15.999 53)"/><rect class="a" width="4" height="4" transform="translate(27.999 53)"/><rect class="a" width="13" height="4" transform="translate(35.999 53)"/><rect class="a" width="4" height="4" transform="translate(52.999 53)"/><rect class="a" width="4" height="4" transform="translate(19.999 61)"/><rect class="a" width="8" height="4" transform="translate(27.999 61)"/><rect class="a" width="4" height="4" transform="translate(39.999 61)"/><rect class="a" width="8" height="4" transform="translate(48.999 61)"/></g></svg>