<svg xmlns="http://www.w3.org/2000/svg" width="244.294" height="241.841" viewBox="0 0 244.294 241.841"><defs><style>.a{fill:#702061;}.b{fill:#e5e5e5;stroke:#3a6b7b;stroke-width:10px;}.c{fill:#3a6b7b;font-size:157px;font-family:Poppins-SemiBold, Poppins;font-weight:600;letter-spacing:0.07em;}.d,.e{stroke:none;}.e{fill:#702061;}.f{fill:none;}</style></defs><g transform="translate(-148 -1433.321)"><g class="a" transform="translate(190.908 1519.165) rotate(131)"><path class="d" d="M 11.83192348480225 45.57104110717773 L 0.5718192458152771 45.57104110717773 L 6.201871395111084 3.747791051864624 L 11.83192348480225 45.57104110717773 Z"/><path class="e" d="M 6.201871395111084 7.495571136474609 L 1.143635749816895 45.07104110717773 L 11.26010704040527 45.07104110717773 L 6.201871395111084 7.495571136474609 M 6.201871395111084 0 L 12.40374183654785 46.07104110717773 L 9.5367431640625e-07 46.07104110717773 L 6.201871395111084 0 Z"/></g><g class="a" transform="translate(201.455 1619.219) rotate(92)"><path class="d" d="M 17.07924842834473 34.93926239013672 L 0.6403831839561462 34.93926239013672 L 8.85981559753418 2.061550140380859 L 17.07924842834473 34.93926239013672 Z"/><path class="e" d="M 8.85981559753418 4.123098373413086 L 1.280771255493164 34.43926239013672 L 16.4388599395752 34.43926239013672 L 8.85981559753418 4.123098373413086 M 8.85981559753418 0 L 17.71963500976562 35.43926239013672 L -3.814697265625e-06 35.43926239013672 L 8.85981559753418 0 Z"/></g><g class="a" transform="matrix(0.342, -0.94, 0.94, 0.342, 352.931, 1655.652)"><path class="d" d="M 17.07924842834473 34.93926239013672 L 0.6403831839561462 34.93926239013672 L 8.85981559753418 2.061550140380859 L 17.07924842834473 34.93926239013672 Z"/><path class="e" d="M 8.85981559753418 4.123098373413086 L 1.280771255493164 34.43926239013672 L 16.4388599395752 34.43926239013672 L 8.85981559753418 4.123098373413086 M 8.85981559753418 0 L 17.71963500976562 35.43926239013672 L -3.814697265625e-06 35.43926239013672 L 8.85981559753418 0 Z"/></g><g class="a" transform="matrix(-0.719, -0.695, 0.695, -0.719, 322.02, 1515.704)"><path class="d" d="M 15.32600593566895 35.82524108886719 L 0.6216617822647095 35.82524108886719 L 7.973834037780762 2.332000017166138 L 15.32600593566895 35.82524108886719 Z"/><path class="e" d="M 7.973834037780762 4.664007186889648 L 1.243321418762207 35.32524108886719 L 14.70434665679932 35.32524108886719 L 7.973834037780762 4.664007186889648 M 7.973834037780762 3.814697265625e-06 L 15.94766426086426 36.32524108886719 L 3.814697265625e-06 36.32524108886719 L 7.973834037780762 3.814697265625e-06 Z"/></g><g class="a" transform="translate(201.455 1506.693) rotate(172)"><path class="d" d="M 15.33217430114746 37.59720230102539 L 0.6154940128326416 37.59720230102539 L 7.973834037780762 2.440678358078003 L 15.33217430114746 37.59720230102539 Z"/><path class="e" d="M 7.973834037780762 4.881305694580078 L 1.230974197387695 37.09720230102539 L 14.71669387817383 37.09720230102539 L 7.973834037780762 4.881305694580078 M 7.973834037780762 3.814697265625e-06 L 15.94766426086426 38.09720230102539 L 3.814697265625e-06 38.09720230102539 L 7.973834037780762 3.814697265625e-06 Z"/></g><g class="a" transform="translate(221.779 1637.95) rotate(21)"><path class="d" d="M 10.92994785308838 34.93926239013672 L 0.5878126621246338 34.93926239013672 L 5.758880138397217 3.117310762405396 L 10.92994785308838 34.93926239013672 Z"/><path class="e" d="M 5.758880138397217 6.234556198120117 L 1.175615310668945 34.43926239013672 L 10.34214496612549 34.43926239013672 L 5.758880138397217 6.234556198120117 M 5.758880138397217 3.814697265625e-06 L 11.51776027679443 35.43926239013672 L 0 35.43926239013672 L 5.758880138397217 3.814697265625e-06 Z"/></g><g class="b" transform="translate(224.757 1521.882)"><ellipse class="d" cx="71.5" cy="67.5" rx="71.5" ry="67.5"/><ellipse class="f" cx="71.5" cy="67.5" rx="66.5" ry="62.5"/></g><text class="c" transform="translate(284.244 1619.974) rotate(-21)"><tspan x="0" y="0">2</tspan></text></g></svg>