<svg xmlns="http://www.w3.org/2000/svg" width="235.62" height="235.62" viewBox="0 0 235.62 235.62"><defs><style>.a{fill:none;}.b{fill:#fff;fill-rule:evenodd;}</style></defs><rect class="a" width="235.62" height="235.62"/><path class="b" d="M389.8,301.93a8.83,8.83,0,0,0-8.8-8.83H204.13a8.83,8.83,0,0,0-8.84,8.83V478.77a8.84,8.84,0,0,0,8.84,8.84H381a8.83,8.83,0,0,0,8.83-8.84ZM213,310.77V469.93H372.13V310.77ZM254.75,400l16.79-50.36a8.83,8.83,0,0,1,16.76,0L305.08,400a1.422,1.422,0,0,0,.11.33l8.37,25.09A8.832,8.832,0,0,1,296.8,431l-6.41-19.22H269.45L263,431a8.839,8.839,0,1,1-16.771-5.59l8.371-25.09A.734.734,0,0,0,254.75,400Zm84.53,28.22V369.3a8.84,8.84,0,0,0-17.67,0v58.95a8.84,8.84,0,0,0,17.67,0Zm-63.94-34.1h9.16l-4.59-13.75-1.092,3.286Z" transform="translate(-174.74 -272.54)"/></svg>