<svg id="Layer_1" data-name="Layer 1" xmlns="http://www.w3.org/2000/svg" viewBox="0 0 195.33 191.26"><defs><style>.cls-1{fill:#010101;fill-rule:evenodd;}</style></defs><path class="cls-1" d="M220.56,285.1H415.89V476.36H220.56ZM355.34,362c-7,0-9.42,3.57-9.42,6.53,0,3.21,1.6,5.45,11,10.36,13.93,6.8,18.28,13.32,18.28,22.88,0,14.3-10.83,22-25.48,22-7.72,0-14.38-1.61-18.2-3.84-.62-.27-.71-.72-.71-1.43V405.31c0-.9.45-1.16,1.07-.72a32.75,32.75,0,0,0,17.84,5.28c7,0,9.95-2.95,9.95-7,0-3.22-2.05-6.08-11-10.73-12.61-6.08-17.85-12.25-17.85-22.52,0-11.53,9-21.1,24.51-21.1,7.63,0,13,1.17,15.89,2.51a2,2,0,0,1,.89,1.79v12.24c0,.71-.45,1.16-1.34.89C366.88,363.48,361.11,362,355.34,362ZM279,372.6c2,.17,3.64.17,7.19.17,10.39,0,20.16-3.66,20.16-17.87,0-11.35-7-17.07-18.82-17.07-3.56,0-6.93.18-8.53.27v34.5Zm-15.8-47.46c0-.62,1.24-1.07,1.95-1.07,5.68-.27,14.12-.45,22.91-.45,24.59,0,34.18,13.58,34.18,30.92,0,22.7-16.34,32.44-36.4,32.44-3.38,0-4.53-.17-6.93-.17v34.32c0,.71-.26,1.07-1.06,1.07H264.24c-.71,0-1.06-.27-1.06-1.07v-96Z" transform="translate(-220.56 -285.1)"/></svg>