<svg id="Layer_1" data-name="Layer 1" xmlns="http://www.w3.org/2000/svg" viewBox="0 0 286.22 279.06"><defs><style>.cls-1{fill:#231f20;}.cls-2{fill:#fff;}</style></defs><path class="cls-1" d="M164.88,266.83H427.24V522H164.88Z" transform="translate(-152.95 -254.9)"/><path class="cls-2" d="M153,254.9V534H439.17V254.9Zm11.93,11.93H427.24V522H164.88Z" transform="translate(-152.95 -254.9)"/><path class="cls-2" d="M360.82,372.13a16.37,16.37,0,0,0-6.92-1.19c-15,0-25,11.56-25,30.77,0,21.94,10.25,30.76,23.61,30.76a22.4,22.4,0,0,0,8.23-1.31v-59Zm-53.43,30.53c0-27.79,17.89-49.49,47.23-49.49a53.47,53.47,0,0,1,6.2.24v-31a1.19,1.19,0,0,1,1.19-1.19h19.2c1,0,1.19.35,1.19,1v109a84.55,84.55,0,0,0,.6,11.69c0,.84,0,.95-.71,1.31a71.07,71.07,0,0,1-30.53,6.92c-25.88,0-44.37-16-44.37-48.42Zm-40.66-19.32,33.39,64.76c.6.95.24,1.9-.72,1.9H278.65a2.33,2.33,0,0,1-2.5-1.55q-11.46-23.61-23.38-49h-.24c-7.15,16-15,33.39-22.66,49.13a2.26,2.26,0,0,1-2.14,1.31h-19.8c-1.19,0-1.31-.95-.71-1.66l32.67-62.86-31.6-62.48a1.06,1.06,0,0,1,0-1.5,1,1,0,0,1,.82-.29h20.51c1.19,0,1.79.24,2.14,1.31,7.52,15.86,15.15,31.48,22.3,47.46h.24c6.92-15.74,14.55-31.6,21.83-47.22.59-1,1-1.55,2.14-1.55h19.2c1,0,1.32.71.72,1.79Z" transform="translate(-152.95 -254.9)"/></svg>