<svg xmlns="http://www.w3.org/2000/svg" width="173.643" height="170.552" viewBox="0 0 173.643 170.552"><defs><style>.a{fill:none;stroke:#fff;stroke-width:12px;}.b{fill:#fff;}</style></defs><g transform="translate(6 10.814)"><path class="a" d="M133.019,158.552H28.624A28.685,28.685,0,0,1,0,129.756V28.8A28.685,28.685,0,0,1,28.624,0h104.4a28.685,28.685,0,0,1,28.624,28.8V129.756A28.685,28.685,0,0,1,133.019,158.552Z" transform="translate(0 -4.814)"/><path class="b" d="M499.6,627.351,518,662.7c.328.523.132,1.053-.4,1.053H506.167a1.288,1.288,0,0,1-1.381-.852c-4.207-8.672-8.477-17.345-12.879-26.673h-.132c-3.942,8.8-8.281,18.07-12.482,26.742a1.268,1.268,0,0,1-1.186.725H467.277c-.656,0-.725-.523-.391-.921l18-34.3-17.408-34.69a.531.531,0,0,1,.391-.921h11.3c.656,0,.921.132,1.179.725,4.138,8.672,8.344,17.61,12.286,26.345h.132c3.81-8.672,8.016-17.673,12.091-26.282.328-.523.523-.852,1.186-.852h10.577c.523,0,.725.4.4.921Zm21.621,10.71c0-15.307,10.186-27.266,26.345-27.266a28.95,28.95,0,0,1,3.418.133V593.519a.655.655,0,0,1,.656-.656h10.382c.523,0,.656.2.656.523V653.7a46.927,46.927,0,0,0,.328,6.44c0,.4-.132.524-.523.725a39.112,39.112,0,0,1-16.821,3.81c-14.261.057-24.447-8.742-24.44-26.616Zm29.757-16.815a9.875,9.875,0,0,0-3.81-.656c-8.281,0-14.059,6.37-14.059,16.954,0,12.091,5.916,16.954,13.34,16.954a12.317,12.317,0,0,0,4.535-.725V621.245Z" transform="translate(-437.255 -555.411)"/></g></svg>