<svg xmlns="http://www.w3.org/2000/svg" width="177.793" height="177.793" viewBox="0 0 177.793 177.793"><defs><style>.a{fill:#fff;}</style></defs><path class="a" d="M11.556,90.192A5.558,5.558,0,0,1,6,84.636V10.556A5.558,5.558,0,0,1,11.556,5H28.224a25.928,25.928,0,1,1,0,51.856H17.112v27.78A5.558,5.558,0,0,1,11.556,90.192Zm5.556-44.448H28.224a14.816,14.816,0,1,0,0-29.632H17.112ZM78.228,90.192H67.116a5.556,5.556,0,0,1,0-11.112H78.228a5.556,5.556,0,1,0,0-11.112,16.668,16.668,0,0,1,0-33.336H89.34a5.556,5.556,0,0,1,0,11.112H78.228a5.556,5.556,0,0,0,0,11.112,16.668,16.668,0,0,1,0,33.336Z" transform="translate(38.448 32.04)"/><path class="a" d="M157.413,177.793H20.38A20.4,20.4,0,0,1,0,157.413V20.38A20.4,20.4,0,0,1,20.38,0H157.413a20.4,20.4,0,0,1,20.38,20.38V157.406A20.4,20.4,0,0,1,157.413,177.793ZM20.38,11.112a9.286,9.286,0,0,0-9.267,9.267V157.406a9.281,9.281,0,0,0,9.267,9.267H157.413a9.286,9.286,0,0,0,9.267-9.267V20.38a9.281,9.281,0,0,0-9.267-9.267H20.38Z"/></svg>