<svg xmlns="http://www.w3.org/2000/svg" width="226.653" height="237.76" viewBox="0 0 226.653 237.76"><defs><style>.a{fill:#fff;}</style></defs><g transform="translate(0.013 -0.04)"><path class="a" d="M291.05,431.43a37.07,37.07,0,0,1,0-70.49V313.83A42.85,42.85,0,0,1,301.44,286H285.49a4,4,0,0,0-3.71,3l-3.34,19.29a103.81,103.81,0,0,0-21.89,8.9L240.6,306c-1.48-1.11-3.33-.74-4.82.37l-23.37,23.75A3.89,3.89,0,0,0,212,335l11.13,15.95a84.8,84.8,0,0,0-8.9,21.89L195,376.15a3.61,3.61,0,0,0-3,3.71v33a3.61,3.61,0,0,0,3,3.71l18.91,3.71a123.162,123.162,0,0,0,8.91,21.88l-11.13,16c-.74.74-.37,3,.74,4.08l23.74,23.37A3.89,3.89,0,0,0,241,486l16-11.13a87.1,87.1,0,0,0,21.88,8.9L282.15,503a3.61,3.61,0,0,0,3.71,3h17.81a41.19,41.19,0,0,1-12.62-29.68Z" transform="translate(-192.01 -277.11)"/><path class="a" d="M405.68,428.09a9.84,9.84,0,0,0-7.79,3.71l-6.31-2.23a38.1,38.1,0,0,0,7.05-60.09,14.189,14.189,0,0,0-3.71-3h0c-.37-.37-.74-.74-1.11-.74l7.42-3.34a10.68,10.68,0,0,0,7.42,3.34,10,10,0,0,0,0-20,10.15,10.15,0,0,0-10,9.64l-6.68,3a35.12,35.12,0,0,0-3-23,34,34,0,0,0-16.7-15.58l20-11.13a4.42,4.42,0,0,0,1.86-3.34v-8.9a9.992,9.992,0,0,0-3.69-19.28,10,10,0,0,0-10,10,10.12,10.12,0,0,0,6.31,9.28v6.68L367.1,313.83a35.17,35.17,0,0,0-7.42-21.51,33.57,33.57,0,0,0-27.08-13,34.67,34.67,0,0,0-34.5,34.5V476.68a34.51,34.51,0,0,0,66.77,12.24h0v-.37c0-.37.37-.74.37-1.11l9.28,5.19v3a10.12,10.12,0,0,0-6.31,9.28,10,10,0,0,0,20,0,10.11,10.11,0,0,0-6.3-9.28v-4.82a3.89,3.89,0,0,0-1.86-3.34l-8.53-4.82a33.67,33.67,0,0,0,18.92-20,34.79,34.79,0,0,0-.74-25.23l5.93,2.23a10.37,10.37,0,0,0,10,8.9,10.2,10.2,0,1,0,0-20.4Zm2.6-74.94a2.6,2.6,0,1,1-2.6,2.6C406.05,354.27,407.16,353.15,408.28,353.15Zm-17.81-68.62a2.6,2.6,0,1,1-2.6,2.59,2.54,2.54,0,0,1,2.6-2.59ZM378.23,501.91a2.6,2.6,0,1,1-2.6,2.59,3.13,3.13,0,0,1,2.6-2.59Zm27.45-61.21a2.6,2.6,0,1,1,2.6-2.6,2.54,2.54,0,0,1-2.6,2.6Z" transform="translate(-192.01 -277.11)"/></g></svg>