<svg xmlns="http://www.w3.org/2000/svg" width="29.43" height="31.866" viewBox="0 0 29.43 31.866"><defs><style>.a{fill:#fff;}</style></defs><g transform="translate(-7.93 -6.6)"><path class="a" d="M22.645,6.6,7.93,11.847l2.216,19.376,12.5,7.243,12.5-7.243L37.36,11.847Zm11.51,23.936-11.51,6.648-11.51-6.648L9.093,12.7,22.645,7.882,36.2,12.717Z" transform="translate(0 0)"/><path class="a" d="M22.831,9l-12.7,4.578L12.044,30.3l10.787,6.172,10.787-6.263,1.914-16.721ZM28.2,29.695l-1.877-4.469H19.342l-1.877,4.469H13.893l8.937-19.559,8.937,19.532Z" transform="translate(-0.185 -0.202)"/><path class="a" d="M21.31,23.46h4.926l-2.463-5.87Z" transform="translate(-1.128 -0.927)"/></g></svg>