<svg xmlns="http://www.w3.org/2000/svg" width="26.031" height="27" viewBox="0 0 26.031 27"><defs><style>.a{fill:#fff;}.b{fill:none;}</style></defs><path class="a" d="M8.1,2.69V1.07L9.961,0l2.1,1.013V2.922l-1.98,1.041-1.609-.81L4.083,5.582V7.549l-1.609.636v5.438l1.485.694L4.021,16.4,2.1,17.268,0,16.285V14.318l1.3-.694.062-5.669L0,7.434V5.467L2.165,4.31,3.589,5Z"/><path class="a" d="M239.9,3.05V1.43L238.145.36,236.16,1.373V3.282l1.869,1.041,1.518-.81,4.145,2.429V7.909l1.518.636v5.438l-1.4.694-.058,2.083,1.81.868,1.985-.984V14.678l-1.226-.694-.058-5.669,1.284-.521V5.827L245.5,4.67l-1.343.694Z" transform="translate(-221.513 -0.339)"/><path class="a" d="M61.023,307.74l1.456.877,2.062-1.015.337-2.356-1.716-1.035-2.109,1.137-.225,1.822-4.787,2.459-1.768-1.066L52.747,309.6l-4.888-2.947L48.114,305l-1.835-1.182L44.363,305,44,307.339l1.768,1.066,1.394-.741,5.133,3.019-.339,1.452,1.768,1.065,2.323-1.234.22-1.6Z" transform="translate(-41.271 -286.201)"/><path class="a" d="M104.4,85.29,97.26,89v7.572l7.136,3.992,6.878-3.7V89Z" transform="translate(-91.228 -80.344)"/><path class="b" d="M138.41,133.9l4.444-2.256,4.466,2.256v5.149l-4.466,2.491-4.444-2.723Z" transform="translate(-129.826 -124.006)"/></svg>