<svg xmlns="http://www.w3.org/2000/svg" width="234.783" height="141.834" viewBox="0 0 234.783 141.834"><defs><style>.a{fill:#fff;}</style></defs><g transform="translate(-0.016 -0.018)"><path class="a" d="M197.52,74.15Z"/><path class="a" d="M180,400.43a171.11,171.11,0,0,0,116.13,44.74c32.09,0,69.42-10.18,95.11-29.35,4.22-3.16.55-8-3.75-6a229.771,229.771,0,0,1-88.63,18.3c-42.25,0-83.09-11.76-116.2-31.17C179.73,395.22,177.54,398.23,180,400.43Z" transform="translate(-178.92 -303.32)"/><path class="a" d="M347,307.32a1.76,1.76,0,0,0-2-2h-7.58a4.93,4.93,0,0,0-2.73.81,6.75,6.75,0,0,0-1.56,3.08l-13.51,52.86-12.34-52.86a5.25,5.25,0,0,0-1.48-3.08,4.67,4.67,0,0,0-3.13-.8h-6.56a5.22,5.22,0,0,0-2.81.81,5.57,5.57,0,0,0-1.48,3.08l-12.18,52.23-13.13-52.23a6.3,6.3,0,0,0-1.56-3.08,4.28,4.28,0,0,0-3-.8H254.3c-1.24,0-1.86.72-1.86,2v.06a13.251,13.251,0,0,0,.69,3.11l18.34,61a6.36,6.36,0,0,0,1.65,3.07,4.28,4.28,0,0,0,3,.79h6.71a4.8,4.8,0,0,0,3.13-.79,6.26,6.26,0,0,0,1.47-3.16l12-50.8,12.12,50.88a5.63,5.63,0,0,0,1.46,3.16,4.69,4.69,0,0,0,3.13.79h7a4.81,4.81,0,0,0,2.69-.8,6,6,0,0,0,1.64-3.07l18.82-61v.08a11.5,11.5,0,0,0,.57-2.06A8,8,0,0,0,347,307.32Zm44,49.33v.21a8.52,8.52,0,0,1-4.06,7.28c-2.65,1.74-6.48,2.61-11.39,2.61a45.8,45.8,0,0,1-9.3-.95,42.1,42.1,0,0,1-8.59-2.75c-.78-.32-1.48-.64-1.95-.8a4.62,4.62,0,0,0-1.41-.23c-1.17,0-1.79.79-1.79,2.44v4a4.53,4.53,0,0,0,2.88,4.42,35.729,35.729,0,0,0,9,3.16,51.509,51.509,0,0,0,12,1.41,36.83,36.83,0,0,0,11.16-1.66,24.93,24.93,0,0,0,8.67-4.42,21.249,21.249,0,0,0,5.7-6.95,20.55,20.55,0,0,0,2-9.15,18.07,18.07,0,0,0-3.59-11.05c-2.42-3.23-6.49-5.76-12.1-7.58l-11.1-3.54c-4.14-1.34-7-2.85-8.58-4.36a7.48,7.48,0,0,1-2.35-5.6,7.66,7.66,0,0,1,3.67-7c2.42-1.5,5.94-2.2,10.39-2.2h.55A34.82,34.82,0,0,1,395.32,317h0a7.9,7.9,0,0,0,3,1c1.18,0,1.8-.87,1.8-2.53V311.8a2,2,0,0,0,0-.25,4.2,4.2,0,0,0-.7-2.35h0a7,7,0,0,0-2.34-2,15.389,15.389,0,0,0-3.28-1.43c-1.39-.46-2.88-.86-4.45-1.25a47.46,47.46,0,0,0-5.06-.87,40.257,40.257,0,0,0-5.24-.31,34,34,0,0,0-9.84,1.34,24.45,24.45,0,0,0-8.12,4.1,20.17,20.17,0,0,0-5.63,6.46,17.83,17.83,0,0,0-2.11,8.76,18.82,18.82,0,0,0,3.91,11.45c2.58,3.55,6.79,6.23,12.5,8L381,347c3.82,1.26,6.48,2.61,7.89,4.1a7.67,7.67,0,0,1,2.11,5.31v.21Z" transform="translate(-178.92 -303.32)"/><path class="a" d="M398.3,434.59c13.75-11.67,17.34-36,14.53-39.6s-26.94-6.47-41.62,3.94c-2.27,1.66-1.87,3.87.62,3.56,8.36-1,26.79-3.23,30.07,1s-3.66,21.79-6.8,29.59C394.17,435.46,396.2,436.41,398.3,434.59Z" transform="translate(-178.92 -303.32)"/><path class="a" d="M223.14,334.56a61.713,61.713,0,0,0-8.27-.64c-8,0-14.36,2.06-19.13,6.15s-7.1,9.55-7.1,16.25c0,6.32,2,11.37,5.77,15.16s9.06,5.67,15.61,5.67q13.83,0,23-10.88l.15.37c.75,1.56,1.56,3.08,2.27,4.28l.06.1a24.381,24.381,0,0,0,2.75,3.61,3.56,3.56,0,0,0,2.34,1.11h0a3.63,3.63,0,0,0,2-.71l4.92-3.31a3.13,3.13,0,0,0,1.49-2.36,3.41,3.41,0,0,0-.55-1.81,44,44,0,0,1-2.5-5.7,23.86,23.86,0,0,1-.86-7h-.16V329.27c0-8.67-2.18-15.15-6.48-19.4s-11.16-6.4-20.45-6.4h-.45a45.71,45.71,0,0,0-11.74,1.5,44.62,44.62,0,0,0-9.83,3.55h0a5.86,5.86,0,0,0-2.16,1.64,5.06,5.06,0,0,0-.54,2.77v3.86c0,1.65.54,2.45,1.64,2.45h0a4.33,4.33,0,0,0,1.23-.23h.16a19.34,19.34,0,0,0,2.58-1,63.771,63.771,0,0,1,8.44-2.69,35.107,35.107,0,0,1,8.44-1c6,0,10.22,1.17,12.72,3.63s3.67,6.62,3.67,12.62v5.76C229,335.58,226,335,223.14,334.56Zm9.15,10.57v3.31a29,29,0,0,1-.78,6.86,12.55,12.55,0,0,1-2.66,5.05,17.42,17.42,0,0,1-7.42,5,25,25,0,0,1-8,1.42c-3.6,0-6.33-.95-8.2-2.92s-2.88-4.66-2.88-8.37c0-3.94,1.24-6.93,3.81-9.06s6.41-3.16,11.64-3.16a57.214,57.214,0,0,1,7.34.47h.33A58,58,0,0,1,232.29,345.13Z" transform="translate(-178.92 -303.32)"/></g></svg>