<svg xmlns="http://www.w3.org/2000/svg" width="35.177" height="27.024" viewBox="0 0 35.177 27.024"><defs><style>.a{fill:none;stroke:#231f20;stroke-miterlimit:10;}.b,.c{fill:#fff;}.c{opacity:0;}</style></defs><g transform="translate(6.83 0.048)"><path class="a" d="M100.94,326.7" transform="translate(-107.77 -316.821)"/><path class="b" d="M125.077,216.734v5.23c-.227,0-.6,0-1.05,0-4.489-.039-8.466-.075-12.276-1.815a16.884,16.884,0,0,1-3.981-2.562v-6.618a5.6,5.6,0,0,1,.358-.592s.048-.067.1-.136a8.777,8.777,0,0,1,1.562-1.521,8.145,8.145,0,0,1,2.762-1.069c2.917-.759,2.446-.814,3.985-1.144a30.821,30.821,0,0,1,6.155-.559c2.7-.082,4.725.042,6.037.125a40.888,40.888,0,0,1,4.813.513,27.791,27.791,0,0,1,3.669.868c2.778.875,3.687,1.679,4.064,2.055a6.649,6.649,0,0,1,1.114,1.46v5.958a5,5,0,0,1-.247.473,6.069,6.069,0,0,1-3.354,2.525Z" transform="translate(-114.039 -205.97)"/><path class="c" d="M107.77,347.84V353c.082.114.2.282.358.473a6.412,6.412,0,0,0,1.716,1.42,17.912,17.912,0,0,0,4.143,1.6,34.252,34.252,0,0,0,4.324.829,37.357,37.357,0,0,0,4.675.473,21.212,21.212,0,0,0,2.16-.118l-.066-5.458h-1.858c-1.614,0-2.943-.065-3.728-.115-.28-.017-.456-.028-.7-.048a23.32,23.32,0,0,1-4.3-.683,17.881,17.881,0,0,1-3.123-1.151,16.491,16.491,0,0,1-3.145-2.006Z" transform="translate(-114.039 -336.223)"/><path class="b" d="M107.77,410.61v5.405c.082.114.2.282.358.473a6.411,6.411,0,0,0,1.716,1.42,17.913,17.913,0,0,0,4.143,1.6,34.252,34.252,0,0,0,4.324.829,37.358,37.358,0,0,0,4.675.473,21.2,21.2,0,0,0,2.16-.118l-.066-5.458h-1.858a20.773,20.773,0,0,1-3.728-.115c-.055-.012-.227-.051-.47-.1-.607-.118-1.064-.169-1.184-.183-.753-.089-2.3-.365-3.37-.615a20.924,20.924,0,0,1-3.1-.986,7.388,7.388,0,0,1-3.145-2.006A5.663,5.663,0,0,1,107.77,410.61Z" transform="translate(-114.039 -393.833)"/><path class="c" d="M318.32,337.46v5.23l.421.279,13.109,3.2c.089-.025.224-.063.385-.118a6.147,6.147,0,0,0,2.663-1.687,5.493,5.493,0,0,0,.729-1.036v-5.672c-.047.1-.1.206-.154.309a6.141,6.141,0,0,1-3.446,2.689Z" transform="translate(-307.282 -326.696)"/><path class="b" d="M318.32,403.52v5.231l.421.279,13.109,3.2c.089-.024.224-.063.385-.118a6.147,6.147,0,0,0,2.663-1.687,5.493,5.493,0,0,0,.729-1.036v-5.672c-.047.1-.1.207-.154.309a6.134,6.134,0,0,1-3.446,2.689Z" transform="translate(-307.282 -387.326)"/></g></svg>