<svg xmlns="http://www.w3.org/2000/svg" width="22.483" height="25.532" viewBox="0 0 22.483 25.532"><defs><style>.a{fill:#fff;}</style></defs><path class="a" d="M8.76,1l2.046,22.972,9.182,2.56L29.2,23.963,31.243,1H8.76ZM26.992,6.263l-.681,7.653,0,.041,0,.1h0L25.826,19.4l-.053.475L20,21.474h0l0,0-5.761-1.605-.39-4.424h2.825l.2,2.25L20,18.547v0h0l3.143-.861.332-3.663h-6.57L16.85,13.4l-.128-1.451-.067-.779h7.072l.257-2.849H13.213l-.056-.619-.128-1.451-.068-.779h14.1l-.067.786Z" transform="translate(-8.76 -1)"/></svg>