<svg xmlns="http://www.w3.org/2000/svg" width="238.07" height="239.76" viewBox="0 0 238.07 239.76"><defs><style>.a{fill:#fff;}</style></defs><path class="a" d="M390.66,352.1a8.48,8.48,0,0,0-6.22-2.3c-4.58,0-10.67,2.61-17,7-6.28-4.38-12.38-7-17-7a8.44,8.44,0,0,0-6.21,2.3c-4.78,4.79-1.75,14.06,4.66,23.18a50.213,50.213,0,0,0-4.73,8.16c-3,6.65-3,12,.07,15a8.44,8.44,0,0,0,6.21,2.31h0c4.58,0,10.67-2.61,17-7,6.28,4.39,12.38,7,17,7a8.44,8.44,0,0,0,6.21-2.31c3-3,3.06-8.36.07-15a50.214,50.214,0,0,0-4.73-8.16C392.41,366.16,395.44,356.89,390.66,352.1ZM348.2,356c1.93-2,9.5.94,14.69,4.33-1.83,1.52-3.66,3.14-5.45,4.92s-3.42,3.6-5,5.45C347.76,363.46,346.53,357.75,348.2,356Zm19.29,7.66a73.9,73.9,0,0,1,6.15,5.48,75.436,75.436,0,0,1,5.5,6.15,74.306,74.306,0,0,1-5.5,6.15,72.134,72.134,0,0,1-6.15,5.48,69.208,69.208,0,0,1-6.15-5.48,72.725,72.725,0,0,1-5.51-6.15,72.224,72.224,0,0,1,5.51-6.15,70.812,70.812,0,0,1,6.15-5.49Zm-19.29,30.9c-.93-.93-1.21-3.81,1.06-8.87a42.938,42.938,0,0,1,3.23-5.82c1.56,1.87,3.21,3.7,4.95,5.45s3.61,3.39,5.45,4.91C355.61,395,349.81,396.17,348.2,394.56Zm37.51-8.87c2.27,5.06,2,7.94,1.06,8.87-1.62,1.61-7.41.39-14.69-4.32,1.84-1.52,3.67-3.14,5.45-4.92s3.4-3.58,5-5.44A43.347,43.347,0,0,1,385.71,385.69Zm-3.23-15q-2.3-2.78-5-5.45c-1.78-1.78-3.61-3.4-5.45-4.92,5.2-3.39,11.95-6.85,14.7-4.33C388.55,357.63,387.21,363.46,382.48,370.69Zm-15,11.14a6.514,6.514,0,1,1,.01,0Zm0-10.35a3.784,3.784,0,1,0,.01,0Zm44.55,3.8a44.91,44.91,0,0,0-40.73-44.65V261.36a4.12,4.12,0,0,0-4.12-4.12H243.39a4.12,4.12,0,0,0-4.12,4.12v9.82c-33.07.64-65.31,9.59-65.31,26.12V450.38c0,17.24,33.19,28.17,65.31,29v13.5a4.12,4.12,0,0,0,4.12,4.12h123.8a4.12,4.12,0,0,0,4.12-4.12V419.93A44.91,44.91,0,0,0,412,375.28ZM243.39,300.84a4.12,4.12,0,0,0,4.13-4.12v-14.5c21.89.5,51.62,6.36,51.62,15,0,7.69-24,16.3-56,16.3S187,304.9,187,297.21c0-8.63,30.06-14.57,52.23-15v14.52a4.11,4.11,0,0,0,4.16,4.11Zm57.83,74.36c-3.64,7.52-27.27,15.17-58.13,15.17S188.6,382.72,185,375.2V344.14c10.95,8.25,35.07,12.62,58.13,12.62s47.19-4.37,58.13-12.62Zm0-70.43v31.32c-3.64,7.52-27.27,15.17-58.13,15.17S188.6,343.61,185,336.09V304.77c9,9.3,34.14,14.24,58.13,14.24s49.14-4.94,58.09-14.24ZM185,383.25c10.94,8.25,35.07,12.62,58.13,12.62s47.19-4.37,58.13-12.62v31.06c-3.65,7.52-27.28,15.17-58.13,15.17S188.6,421.83,185,414.31Zm0,67.13v-28c10.9,8.23,35,12.62,58.09,12.62s47.19-4.37,58.13-12.62v28c0,5.51-22,18-58.13,18S185,455.89,185,450.38Zm63.27,38.35v-9.39c31.93-.93,64.71-11.82,64.71-29V297.3c0-16.44-31.86-25.37-64.71-26.1v-5.71h115.5v65.14a44.84,44.84,0,0,0,0,89.3v68.8Zm119-74.1a39.405,39.405,0,1,0-.08,0Z" transform="translate(-173.96 -257.24)"/></svg>