<svg xmlns="http://www.w3.org/2000/svg" width="127" height="133.951" viewBox="0 0 127 133.951"><defs><style>.a{fill:#812c71;}.b{fill:none;stroke:#812c71;stroke-width:5px;}</style></defs><g transform="translate(-1103.5 -2821.5)"><path class="a" d="M80.726,9.222H60.8V12.84h19.93a1.908,1.908,0,0,1,1.993,1.809V52.635H78.733V18.267a1.908,1.908,0,0,0-1.993-1.809H60.617v3.618h14.13v32.56H14.958V20.076H28.909V16.458H12.965a1.908,1.908,0,0,0-1.993,1.809V52.635H6.986V14.649A1.908,1.908,0,0,1,8.979,12.84h19.93V9.222H8.979A5.723,5.723,0,0,0,3,14.649V65.3a5.723,5.723,0,0,0,5.979,5.427h27.9v7.235H26.916v3.618H62.789V77.959H52.824V70.724h27.9A5.723,5.723,0,0,0,86.7,65.3V14.649A5.723,5.723,0,0,0,80.726,9.222ZM48.838,77.959H40.866V70.724h7.972ZM80.726,67.106H8.979A1.908,1.908,0,0,1,6.986,65.3V56.253H82.719V65.3A1.908,1.908,0,0,1,80.726,67.106ZM36.88,59.871H52.824v3.618H36.88ZM22.93,36.193v3.781a1.769,1.769,0,0,0,.877,1.5,2.14,2.14,0,0,0,1.116.308,2.042,2.042,0,0,0,.737-.127l9.606-3.491H54.438l9.606,3.491a2.042,2.042,0,0,0,.737.127,2.14,2.14,0,0,0,1.116-.308,1.769,1.769,0,0,0,.877-1.5V36.193a12.263,12.263,0,0,0-8.49-11.378l-1.475-.543V12.84c0-4.305-8.271-9.189-10.8-10.582a2.17,2.17,0,0,0-1.993,0C41.365,3.633,32.894,8.535,32.894,12.84V24.272l-1.475.543a12.263,12.263,0,0,0-8.49,11.378Zm39.859,0v1.1L56.81,35.125V28.179A8.66,8.66,0,0,1,62.789,36.193ZM36.88,12.84c0-1.393,3.986-4.595,8.072-6.91,3.886,2.3,7.872,5.5,7.872,6.91V34.547H36.88ZM32.894,35.125,26.916,37.3v-1.1a8.66,8.66,0,0,1,5.979-8.013Zm11.958-7.814a5.723,5.723,0,0,0,5.979-5.427,5.723,5.723,0,0,0-5.979-5.427,5.723,5.723,0,0,0-5.979,5.427A5.723,5.723,0,0,0,44.852,27.311Zm0-7.235a1.817,1.817,0,1,1-1.993,1.809A1.908,1.908,0,0,1,44.852,20.076ZM38.873,49.018V41.782h3.986v7.235Zm7.972,0V41.782h3.986v7.235Z" transform="translate(1122.148 2848.984)"/><g transform="translate(0 829.951)"><g transform="translate(1106 1994.049)"><path class="b" d="M-3579.114-5325.5V-5343l4.841-6.087,52.434-27.4h7.26l54.923,30.369,2.542,6.394v57.285l-5.932,6.928-51.4,27.976h-7.626l-54.229-30.108-2.808-4.8Z" transform="translate(3579.114 5376.485)"/></g></g></g></svg>