<svg xmlns="http://www.w3.org/2000/svg" width="127" height="133.951" viewBox="0 0 127 133.951"><defs><style>.a{fill:none;stroke:#812c71;stroke-width:5px;}.b{fill:#812c71;}</style></defs><g transform="translate(-687.5 -2078.5)"><g transform="translate(-416 86.951)"><g transform="translate(1106 1994.049)"><path class="a" d="M-3579.114-5325.5V-5343l4.841-6.087,52.434-27.4h7.26l54.923,30.369,2.542,6.394v57.285l-5.932,6.928-51.4,27.976h-7.626l-54.229-30.108-2.808-4.8Z" transform="translate(3579.114 5376.485)"/></g></g><g transform="translate(676.142 2084.245)"><path class="b" d="M108.292,34.778a1.34,1.34,0,0,0-.369-.968,1.288,1.288,0,0,0-.94-.4H94.328V27.228a1.383,1.383,0,0,0-1.24-1.383l.034-3.784a1.405,1.405,0,0,0-.4-.995,1.366,1.366,0,0,0-.976-.408l-5.64.044a1.32,1.32,0,0,0-.942.415,1.373,1.373,0,0,0-.374.975v3.752a1.368,1.368,0,0,0-1.362,1.383V30.2l-.938-.013a2.861,2.861,0,0,0-2.061.833,2.552,2.552,0,0,0-.748,1.807v.582H76.244l3.031-12.755a1.347,1.347,0,0,0-.253-1.157A1.326,1.326,0,0,0,77.95,19H62.092a1.321,1.321,0,0,0-1.065.489,1.4,1.4,0,0,0-.263,1.168L63.62,33.409H58.564v-.231a1.454,1.454,0,0,0-.159-.576L53.489,21.647a1.362,1.362,0,0,0-2.493,0L46.091,32.6a1.419,1.419,0,0,0-.13.576v.231H33.3a1.288,1.288,0,0,0-.94.4,1.34,1.34,0,0,0-.368.968V87.6a1.348,1.348,0,0,0,.368.972,1.3,1.3,0,0,0,.941.406H58.129l-2.642,9.551H50.809a1.389,1.389,0,0,0,0,2.778H89.48a1.389,1.389,0,0,0,0-2.778H84.8L82.16,88.976h24.824a1.3,1.3,0,0,0,.941-.406,1.348,1.348,0,0,0,.368-.972V76.833h0V74.054h0Zm-2.725,1.41V74.042H94.328V36.188Zm-19.415-7.64H91.6v45.5h-5.45Zm4.264-5.135-.059,2.357H87.515v-2.3Zm-8.011,9.56s.025-.008.047-.007l.974.013v.431H82.406Zm-1.362,11.2a1.376,1.376,0,0,0,1.362-1.389V36.188h1.022V74.042H75.081l.93-37.855h3.67V42.78A1.376,1.376,0,0,0,81.044,44.169Zm-14.5-8.849h6.76l-.234,9.55H66.779ZM67.5,74.042l-.647-26.394H73l-.647,26.394Zm8.723-52.267L73.66,32.5l.719-5.153a1.386,1.386,0,0,0-1.15-1.578,1.368,1.368,0,0,0-1.548,1.172l-.515,3.673V27.158a1.363,1.363,0,1,0-2.725,0v2.4l-.368-2.623a1.367,1.367,0,0,0-1.542-1.179,1.385,1.385,0,0,0-1.156,1.572l.532,3.828L63.8,21.775ZM63.84,36.188l.93,37.855H58.564V36.188ZM48.686,34.625h7.153V74.042H48.686Zm3.546-8.995,2.779,6.217H49.453ZM34.721,36.188h11.24V74.042H34.721Zm47.25,62.339H58.317l2.642-9.551H79.329Zm23.6-12.329H34.721V76.821h70.846Z" transform="translate(0)"/></g></g></svg>