<svg xmlns="http://www.w3.org/2000/svg" width="127" height="133.951" viewBox="0 0 127 133.951"><defs><style>.a{fill:none;stroke:#812c71;stroke-width:5px;}.b{fill:#812c71;}</style></defs><g transform="translate(-1103.5 -2416.5)"><g transform="translate(1106 2419)"><path class="a" d="M-3579.114-5325.5V-5343l4.841-6.087,52.434-27.4h7.26l54.923,30.369,2.542,6.394v57.285l-5.932,6.928-51.4,27.976h-7.626l-54.229-30.108-2.808-4.8Z" transform="translate(3579.114 5376.485)"/></g><g transform="translate(1128.008 2443.874)"><path class="b" d="M72.285,6H5.7C3.589,6.087,1.935,8.159,2,10.635V59.221c-.062,2.473,1.591,4.541,3.7,4.628H32.827v5.785H24.2a1.352,1.352,0,0,0-1.233,1.446v7.231H20.5V81.2H57.488V78.312H55.022V71.08a1.352,1.352,0,0,0-1.233-1.446H45.158V63.849H72.285c2.108-.087,3.761-2.155,3.7-4.628V10.635C76.049,8.159,74.4,6.087,72.285,6ZM5.7,8.892H72.285a1.568,1.568,0,0,1,1.233,1.743V52.279H4.466V10.635A1.568,1.568,0,0,1,5.7,8.892ZM52.556,78.312H25.429V72.527H52.556Zm-9.865-8.677h-7.4V63.849h7.4Zm29.594-8.677H5.7a1.567,1.567,0,0,1-1.233-1.735V55.172H73.518v4.049A1.567,1.567,0,0,1,72.285,60.957Z" transform="translate(0)"/><rect class="b" width="2.103" height="2.103" transform="translate(68.585 57.331)"/><path class="b" d="M34.058,26.872h2.669a9.806,9.806,0,0,0,.383.924l-1.888,1.888a1.058,1.058,0,0,0,0,1.5l2.993,2.993a1.058,1.058,0,0,0,1.5,0L41.6,32.287a9.8,9.8,0,0,0,.924.383v2.668A1.058,1.058,0,0,0,43.581,36.4h4.233a1.058,1.058,0,0,0,1.058-1.058V32.669a9.8,9.8,0,0,0,.924-.383l1.888,1.888a1.058,1.058,0,0,0,1.5,0l2.993-2.993a1.058,1.058,0,0,0,0-1.5L54.287,27.8a9.805,9.805,0,0,0,.382-.924h2.669A1.058,1.058,0,0,0,58.4,25.814V21.581a1.058,1.058,0,0,0-1.058-1.058H54.669a9.8,9.8,0,0,0-.383-.924l1.888-1.888a1.058,1.058,0,0,0,0-1.5L53.18,13.222a1.058,1.058,0,0,0-1.5,0L49.8,15.109a9.806,9.806,0,0,0-.924-.382V12.058A1.058,1.058,0,0,0,47.814,11H43.581a1.058,1.058,0,0,0-1.058,1.058v2.669a9.8,9.8,0,0,0-.924.383l-1.888-1.888a1.058,1.058,0,0,0-1.5,0l-2.993,2.993a1.058,1.058,0,0,0,0,1.5L37.109,19.6a9.807,9.807,0,0,0-.383.924H34.058A1.058,1.058,0,0,0,33,21.581v4.233A1.058,1.058,0,0,0,34.058,26.872Zm1.058-4.233H37.51a1.058,1.058,0,0,0,1.024-.794,7.407,7.407,0,0,1,.788-1.9,1.058,1.058,0,0,0-.163-1.287l-1.693-1.693,1.5-1.5,1.693,1.693a1.058,1.058,0,0,0,1.287.163,7.407,7.407,0,0,1,1.9-.788,1.058,1.058,0,0,0,.794-1.024V13.116h2.116V15.51a1.058,1.058,0,0,0,.794,1.024,7.407,7.407,0,0,1,1.9.788,1.058,1.058,0,0,0,1.287-.163l1.693-1.693,1.5,1.5-1.693,1.693a1.058,1.058,0,0,0-.163,1.287,7.407,7.407,0,0,1,.788,1.9,1.058,1.058,0,0,0,1.024.794h2.391v2.116H53.886a1.058,1.058,0,0,0-1.024.793,7.407,7.407,0,0,1-.788,1.9,1.058,1.058,0,0,0,.163,1.287l1.693,1.693-1.5,1.5L50.74,30.238a1.058,1.058,0,0,0-1.287-.163,7.407,7.407,0,0,1-1.9.788,1.058,1.058,0,0,0-.794,1.024v2.391H44.64V31.886a1.058,1.058,0,0,0-.794-1.024,7.407,7.407,0,0,1-1.9-.788,1.058,1.058,0,0,0-1.287.163l-1.693,1.693-1.5-1.5,1.693-1.693a1.058,1.058,0,0,0,.163-1.287,7.407,7.407,0,0,1-.788-1.9,1.058,1.058,0,0,0-1.024-.794H35.116Z" transform="translate(12.298 0.291)"/><rect class="b" width="5.291" height="2.116" transform="matrix(0.6, -0.8, 0.8, 0.6, 14.725, 15.946)"/><path class="b" d="M19.789,17.022l2.116-2.116a1.058,1.058,0,0,0,0-1.5l-2.116-2.116-1.5,1.5,1.368,1.368-1.368,1.368Z" transform="translate(3.985 0.308)"/><rect class="b" width="2.103" height="2.103" transform="translate(29.092 19.559)"/><rect class="b" width="4.207" height="2.103" transform="translate(9.711 25.37)"/><rect class="b" width="2.103" height="2.103" transform="translate(18.419 25.37)"/><rect class="b" width="6.31" height="2.103" transform="translate(23.574 25.37)"/><rect class="b" width="2.103" height="2.103" transform="translate(33.197 25.37)"/><rect class="b" width="2.103" height="2.103" transform="translate(11.814 31.181)"/><rect class="b" width="4.207" height="2.103" transform="translate(18.504 31.181)"/><rect class="b" width="2.103" height="2.103" transform="translate(25.808 31.181)"/><rect class="b" width="4.207" height="2.103" transform="translate(30.883 31.181)"/><rect class="b" width="4.207" height="2.103" transform="translate(9.711 39.898)"/><rect class="b" width="2.103" height="2.103" transform="translate(18.419 39.898)"/><rect class="b" width="6.31" height="2.103" transform="translate(23.574 39.898)"/><rect class="b" width="2.103" height="2.103" transform="translate(33.197 39.898)"/><rect class="b" width="2.103" height="2.103" transform="translate(11.814 45.709)"/><rect class="b" width="4.207" height="2.103" transform="translate(18.504 45.709)"/><rect class="b" width="2.103" height="2.103" transform="translate(25.808 45.709)"/><rect class="b" width="4.207" height="2.103" transform="translate(30.883 45.709)"/></g></g></svg>