<svg xmlns="http://www.w3.org/2000/svg" width="194.454" height="194.452" viewBox="0 0 194.454 194.452"><defs><style>.a{fill:#fff;}</style></defs><g transform="translate(0 0.012)"><rect class="a" width="28.84" height="28.84" transform="translate(30.93 156.9)"/><path class="a" d="M256.92,370.34c0-40,39.54-70.86,81.59-55.6a56.36,56.36,0,0,1,33.63,33.59c15.21,42-15.6,81.51-55.52,81.56V392.45H279.07V430H316.5v37.55c63.67,0,113.23-61.49,92.4-128.22a94,94,0,0,0-61.42-61.41c-66.71-20.83-128.21,28.75-128.21,92.41Z" transform="translate(-219.27 -273.11)"/><path class="a" d="M6.74,132.72V156.9H30.93V132.72Z"/></g></svg>