<svg xmlns="http://www.w3.org/2000/svg" width="163.19" height="211.71" viewBox="0 0 163.19 211.71"><defs><style>.a{fill:#fff;}</style></defs><g transform="translate(0)"><path class="a" d="M387.59,343.6H353.22v68.34c0,30.12-1.56,41.58-6.48,51.47-4.68,9.67-12.05,16-27.24,23.16l31.93,15.29c15.18-7.64,22.54-14.61,28.13-25.62,6-11.46,8-24.73,8-52.37Z" transform="translate(-224.41 -290.15)"/><path class="a" d="M332.9,450.39V290.15H298.52v52.78a54.51,54.51,0,0,0-14.95-1.8c-35.95,0-59.16,22.93-59.16,58.22,0,36.64,21.87,55.75,63.84,55.75C302.31,455.11,315.26,453.76,332.9,450.39Zm-73.45-51.71c0-18.88,10-29.67,27.46-29.67h.72a33,33,0,0,1,10.91,1.81v55.52a78.7,78.7,0,0,1-11.83.9c-17.65-.01-27.26-10.12-27.26-28.56Z" transform="translate(-224.41 -290.15)"/><rect class="a" width="34.38" height="35.51" transform="translate(128.81 0.19)"/></g></svg>