<svg xmlns="http://www.w3.org/2000/svg" width="8" height="190" viewBox="0 0 8 190"><defs><style>.a{fill:#58144c;opacity:0.56;}</style></defs><circle class="a" cx="4" cy="4" r="4" transform="translate(0 84)"/><circle class="a" cx="4" cy="4" r="4" transform="translate(0 182)"/><circle class="a" cx="4" cy="4" r="4" transform="translate(0 70)"/><circle class="a" cx="4" cy="4" r="4" transform="translate(0 168)"/><circle class="a" cx="4" cy="4" r="4" transform="translate(0 56)"/><circle class="a" cx="4" cy="4" r="4" transform="translate(0 154)"/><circle class="a" cx="4" cy="4" r="4" transform="translate(0 42)"/><circle class="a" cx="4" cy="4" r="4" transform="translate(0 140)"/><circle class="a" cx="4" cy="4" r="4" transform="translate(0 28)"/><circle class="a" cx="4" cy="4" r="4" transform="translate(0 126)"/><circle class="a" cx="4" cy="4" r="4" transform="translate(0 14)"/><circle class="a" cx="4" cy="4" r="4" transform="translate(0 112)"/><circle class="a" cx="4" cy="4" r="4"/><circle class="a" cx="4" cy="4" r="4" transform="translate(0 98)"/></svg>