<svg xmlns="http://www.w3.org/2000/svg" width="292" height="192" viewBox="0 0 292 192"><defs><style>.a{opacity:0.58;}.b{fill:#58144c;opacity:0.56;}</style></defs><g class="a" transform="translate(-38 -2716)"><circle class="b" cx="4" cy="4" r="4" transform="translate(38 2716)"/><circle class="b" cx="4" cy="4" r="4" transform="translate(170 2800)"/><circle class="b" cx="4" cy="4" r="4" transform="translate(170 2816)"/><circle class="b" cx="4" cy="4" r="4" transform="translate(170 2830)"/><circle class="b" cx="4" cy="4" r="4" transform="translate(148 2786)"/><circle class="b" cx="4" cy="4" r="4" transform="translate(170 2786)"/><circle class="b" cx="4" cy="4" r="4" transform="translate(148 2772)"/><circle class="b" cx="4" cy="4" r="4" transform="translate(170 2772)"/><circle class="b" cx="4" cy="4" r="4" transform="translate(148 2758)"/><circle class="b" cx="4" cy="4" r="4" transform="translate(126 2758)"/><circle class="b" cx="4" cy="4" r="4" transform="translate(170 2758)"/><circle class="b" cx="4" cy="4" r="4" transform="translate(104 2744)"/><circle class="b" cx="4" cy="4" r="4" transform="translate(148 2744)"/><circle class="b" cx="4" cy="4" r="4" transform="translate(126 2744)"/><circle class="b" cx="4" cy="4" r="4" transform="translate(170 2744)"/><circle class="b" cx="4" cy="4" r="4" transform="translate(82 2730)"/><circle class="b" cx="4" cy="4" r="4" transform="translate(104 2730)"/><circle class="b" cx="4" cy="4" r="4" transform="translate(148 2730)"/><circle class="b" cx="4" cy="4" r="4" transform="translate(126 2730)"/><circle class="b" cx="4" cy="4" r="4" transform="translate(170 2730)"/><circle class="b" cx="4" cy="4" r="4" transform="translate(60 2716)"/><circle class="b" cx="4" cy="4" r="4" transform="translate(82 2716)"/><circle class="b" cx="4" cy="4" r="4" transform="translate(104 2716)"/><circle class="b" cx="4" cy="4" r="4" transform="translate(148 2716)"/><circle class="b" cx="4" cy="4" r="4" transform="translate(126 2716)"/><circle class="b" cx="4" cy="4" r="4" transform="translate(170 2716)"/></g><g class="a" transform="translate(-4588 -418)"><circle class="b" cx="4" cy="4" r="4" transform="translate(4740 518)"/><circle class="b" cx="4" cy="4" r="4" transform="translate(4740 532)"/><circle class="b" cx="4" cy="4" r="4" transform="translate(4740 546)"/><circle class="b" cx="4" cy="4" r="4" transform="translate(4740 560)"/><circle class="b" cx="4" cy="4" r="4" transform="translate(4740 574)"/><circle class="b" cx="4" cy="4" r="4" transform="translate(4740 588)"/><circle class="b" cx="4" cy="4" r="4" transform="translate(4740 602)"/><circle class="b" cx="4" cy="4" r="4" transform="translate(4762 602)"/><circle class="b" cx="4" cy="4" r="4" transform="translate(4784 602)"/><circle class="b" cx="4" cy="4" r="4" transform="translate(4806 602)"/><circle class="b" cx="4" cy="4" r="4" transform="translate(4850 602)"/><circle class="b" cx="4" cy="4" r="4" transform="translate(4828 602)"/><circle class="b" cx="4" cy="4" r="4" transform="translate(4872 602)"/><circle class="b" cx="4" cy="4" r="4" transform="translate(4762 588)"/><circle class="b" cx="4" cy="4" r="4" transform="translate(4784 588)"/><circle class="b" cx="4" cy="4" r="4" transform="translate(4806 588)"/><circle class="b" cx="4" cy="4" r="4" transform="translate(4850 588)"/><circle class="b" cx="4" cy="4" r="4" transform="translate(4828 588)"/><circle class="b" cx="4" cy="4" r="4" transform="translate(4872 588)"/><circle class="b" cx="4" cy="4" r="4" transform="translate(4762 574)"/><circle class="b" cx="4" cy="4" r="4" transform="translate(4784 574)"/><circle class="b" cx="4" cy="4" r="4" transform="translate(4806 574)"/><circle class="b" cx="4" cy="4" r="4" transform="translate(4850 574)"/><circle class="b" cx="4" cy="4" r="4" transform="translate(4828 574)"/><circle class="b" cx="4" cy="4" r="4" transform="translate(4872 574)"/><circle class="b" cx="4" cy="4" r="4" transform="translate(4762 560)"/><circle class="b" cx="4" cy="4" r="4" transform="translate(4784 560)"/><circle class="b" cx="4" cy="4" r="4" transform="translate(4806 560)"/><circle class="b" cx="4" cy="4" r="4" transform="translate(4850 560)"/><circle class="b" cx="4" cy="4" r="4" transform="translate(4828 560)"/><circle class="b" cx="4" cy="4" r="4" transform="translate(4872 560)"/><circle class="b" cx="4" cy="4" r="4" transform="translate(4762 546)"/><circle class="b" cx="4" cy="4" r="4" transform="translate(4784 546)"/><circle class="b" cx="4" cy="4" r="4" transform="translate(4806 546)"/><circle class="b" cx="4" cy="4" r="4" transform="translate(4850 546)"/><circle class="b" cx="4" cy="4" r="4" transform="translate(4828 546)"/><circle class="b" cx="4" cy="4" r="4" transform="translate(4872 546)"/><circle class="b" cx="4" cy="4" r="4" transform="translate(4762 532)"/><circle class="b" cx="4" cy="4" r="4" transform="translate(4784 532)"/><circle class="b" cx="4" cy="4" r="4" transform="translate(4806 532)"/><circle class="b" cx="4" cy="4" r="4" transform="translate(4850 532)"/><circle class="b" cx="4" cy="4" r="4" transform="translate(4828 532)"/><circle class="b" cx="4" cy="4" r="4" transform="translate(4872 532)"/><circle class="b" cx="4" cy="4" r="4" transform="translate(4762 518)"/><circle class="b" cx="4" cy="4" r="4" transform="translate(4784 518)"/><circle class="b" cx="4" cy="4" r="4" transform="translate(4806 518)"/><circle class="b" cx="4" cy="4" r="4" transform="translate(4850 518)"/><circle class="b" cx="4" cy="4" r="4" transform="translate(4828 518)"/><circle class="b" cx="4" cy="4" r="4" transform="translate(4872 518)"/></g><g class="a" transform="translate(-4588 -518)"><circle class="b" cx="4" cy="4" r="4" transform="translate(4740 518)"/><circle class="b" cx="4" cy="4" r="4" transform="translate(4740 532)"/><circle class="b" cx="4" cy="4" r="4" transform="translate(4740 546)"/><circle class="b" cx="4" cy="4" r="4" transform="translate(4740 560)"/><circle class="b" cx="4" cy="4" r="4" transform="translate(4740 574)"/><circle class="b" cx="4" cy="4" r="4" transform="translate(4740 588)"/><circle class="b" cx="4" cy="4" r="4" transform="translate(4740 602)"/><circle class="b" cx="4" cy="4" r="4" transform="translate(4762 602)"/><circle class="b" cx="4" cy="4" r="4" transform="translate(4784 602)"/><circle class="b" cx="4" cy="4" r="4" transform="translate(4806 602)"/><circle class="b" cx="4" cy="4" r="4" transform="translate(4850 602)"/><circle class="b" cx="4" cy="4" r="4" transform="translate(4828 602)"/><circle class="b" cx="4" cy="4" r="4" transform="translate(4872 602)"/><circle class="b" cx="4" cy="4" r="4" transform="translate(4762 588)"/><circle class="b" cx="4" cy="4" r="4" transform="translate(4784 588)"/><circle class="b" cx="4" cy="4" r="4" transform="translate(4806 588)"/><circle class="b" cx="4" cy="4" r="4" transform="translate(4850 588)"/><circle class="b" cx="4" cy="4" r="4" transform="translate(4828 588)"/><circle class="b" cx="4" cy="4" r="4" transform="translate(4872 588)"/><circle class="b" cx="4" cy="4" r="4" transform="translate(4762 574)"/><circle class="b" cx="4" cy="4" r="4" transform="translate(4784 574)"/><circle class="b" cx="4" cy="4" r="4" transform="translate(4806 574)"/><circle class="b" cx="4" cy="4" r="4" transform="translate(4850 574)"/><circle class="b" cx="4" cy="4" r="4" transform="translate(4828 574)"/><circle class="b" cx="4" cy="4" r="4" transform="translate(4872 574)"/><circle class="b" cx="4" cy="4" r="4" transform="translate(4762 560)"/><circle class="b" cx="4" cy="4" r="4" transform="translate(4784 560)"/><circle class="b" cx="4" cy="4" r="4" transform="translate(4806 560)"/><circle class="b" cx="4" cy="4" r="4" transform="translate(4850 560)"/><circle class="b" cx="4" cy="4" r="4" transform="translate(4828 560)"/><circle class="b" cx="4" cy="4" r="4" transform="translate(4872 560)"/><circle class="b" cx="4" cy="4" r="4" transform="translate(4762 546)"/><circle class="b" cx="4" cy="4" r="4" transform="translate(4784 546)"/><circle class="b" cx="4" cy="4" r="4" transform="translate(4806 546)"/><circle class="b" cx="4" cy="4" r="4" transform="translate(4850 546)"/><circle class="b" cx="4" cy="4" r="4" transform="translate(4828 546)"/><circle class="b" cx="4" cy="4" r="4" transform="translate(4872 546)"/><circle class="b" cx="4" cy="4" r="4" transform="translate(4762 532)"/><circle class="b" cx="4" cy="4" r="4" transform="translate(4784 532)"/><circle class="b" cx="4" cy="4" r="4" transform="translate(4806 532)"/><circle class="b" cx="4" cy="4" r="4" transform="translate(4850 532)"/><circle class="b" cx="4" cy="4" r="4" transform="translate(4828 532)"/><circle class="b" cx="4" cy="4" r="4" transform="translate(4872 532)"/><circle class="b" cx="4" cy="4" r="4" transform="translate(4762 518)"/><circle class="b" cx="4" cy="4" r="4" transform="translate(4784 518)"/><circle class="b" cx="4" cy="4" r="4" transform="translate(4806 518)"/><circle class="b" cx="4" cy="4" r="4" transform="translate(4850 518)"/><circle class="b" cx="4" cy="4" r="4" transform="translate(4828 518)"/><circle class="b" cx="4" cy="4" r="4" transform="translate(4872 518)"/></g></svg>