<svg xmlns="http://www.w3.org/2000/svg" width="26.309" height="28.488" viewBox="0 0 26.309 28.488"><defs><style>.a{fill:#fff;}</style></defs><path class="a" d="M21.2,5.211c-1.522-.891-2.98-1.243-4.432-2.134A19.66,19.66,0,0,1,13.578,0a3.9,3.9,0,0,1-1.507,3.154A19.721,19.721,0,0,1,8.406,5.211C7.323,5.74,1.5,9.468,1.5,16.414S7.789,28.488,14.777,28.488c6.968,0,13.032-4.716,13.032-11.852C27.809,9.481,22.123,5.74,21.2,5.211Zm.173,20.745h0c-1.377,1.281-6.173,1.828-8,.268-.329-.306.02-.766.446-.766a6.327,6.327,0,0,0,3.528.846,6.967,6.967,0,0,0,3.735-.891C21.5,25.121,21.659,25.689,21.371,25.956Zm-3.736-3.351a3.909,3.909,0,0,1,2.521.083c.281.178,1.1,1.2.426,1.51-.576.268-.081-1-1.815-1a2.485,2.485,0,0,0-1.83.7c-.48.382-.67.509-.836.3C15.689,23.676,17.189,22.778,17.635,22.605Zm6.335,1.1h0c-1.041-.064-3.118-3.11-4.454-3.154C17.4,20.5,12.386,25.7,8.467,23.231c-2.658-1.7-1-6.678,3.549-6.7,3.391-.031,5.742,3.123,7.434,3.09,1.458-.019,4.235-2.662,5.6-2.662C28.39,16.954,26.65,23.918,23.97,23.709Z" transform="translate(-1.5)"/></svg>