<svg xmlns="http://www.w3.org/2000/svg" width="25.171" height="33" viewBox="0 0 25.171 33"><defs><style>.a{fill:#fff;}</style></defs><g transform="translate(-3.335 0)"><path class="a" d="M16.274,10.433l-3.209,2.988L10.086,7.41l1.539-3.456c.389-.69,1.026-.7,1.415,0Z" transform="translate(3.338 1.157)"/><path class="a" d="M15.34,12.418,3.335,23.584,12.361,6.408Z" transform="translate(0 2.683)"/><path class="a" d="M23.685,5.342c.625-.568,1.268-.375,1.431.429l3.39,18.808L17.261,31.017a5.394,5.394,0,0,1-1.441.292,5.538,5.538,0,0,1-1.316-.3L3.336,24.736Z" transform="translate(0 1.69)"/><path class="a" d="M12.361,8.568,3.336,25.743,7.358.638c.151-.778.592-.857.989-.168Z" transform="translate(0)"/></g></svg>