<svg xmlns="http://www.w3.org/2000/svg" width="245.608" height="219.108" viewBox="0 0 245.608 219.108"><defs><style>.a{fill:#fff;}</style></defs><path class="a" d="M273.21,452c-9.36-7.37-19.34-14.42-26.15-24.35a197.289,197.289,0,0,1-33-59.12c-4.57-13.86-6.14-28.72-12-42-6.15-9.67,1.06-20.26,11.67-23.33,4.72-.91,13-5.38,3-2.18-9,6.58-9.85-6-.64-6.79,6.3-.84,8.6-6,6.45-10.61-6.75-4.4,16.36-9.23,4.73-15.81-12.11-13,16.94-15.56,9.78-.72-1.71,11.41,20.3-2.1,15.19,11.09,5.2,6.33,19.45,1.44,19.09,10.32,7.57.52,10.16,6.88,17.27,7.37,7.36,3.32,20.7,5.94,23.2,14.23-7.29,5.78-24.2-11.93-25,4.07,2.21,23.64,1.64,48,10.28,70.49,4.09,13.62,14,24.35,22.95,35,8.57,10.39,20.18,17.71,32,23.87A132.338,132.338,0,0,0,384.9,453.7c4.59-3.5,12.69-16.54,19.83-11.05.35,6.19-14.19,12.93-.69,12.24,8-2.39,13.45,6.14,20-1.56,6,7.13,25-4.55,20.75,10-5.8,3.74-14.25,1.48-20.05,6.62-9.57-4.78-17.19,4.28-27.78,3.13a203.06,203.06,0,0,1-35.66,3c-19.57-1.53-39.55-2.19-58.16-9-10.49-3-20.72-9-29.93-15Zm16.53,7.16c10.23,4.42,20.26,9.08,31.46,10.49,17.81,2.48,36.19,6.3,54.05,2.81-8.08-3.65-16.44,1.42-24.5-2.61-9.67,2.08-20-.53-29.93-1.81-11.17-5-23.23-8.4-33.68-14.86-13.07-4.78,6.75,6.12,10.29,7,8.16,4.64-9-2.3-11.41-4.29-6.85-3.84-7.71-3-.67.86l4.29,2.41Zm-19.5-13.77c9.92,3.68,0-7-4.58-6.37-2-3.49-7.7-5.7-3.68-7.58-7.22,2.5-7.56-9.51-10.94-7.79-7.63-2.41-3-10.95-12-16.2-.83-5.52-9-10.31-11.63-18.63-1.16-4.27-9.27-16.5-4.29-5.11,4.24,11,11.7,20.36,17.92,29.74,4.82,8.93,10.51,18.26,19.29,23.84,3,2.84,5.82,7.19,10,8.08ZM241.66,414C242,412.5,243.47,417.24,241.66,414Zm40.47,35.79C284.32,448.8,279,448.54,282.13,449.79Zm5.37,2c-.56-2.79-2.45,1.48,0-.04Zm6.76,2.81c3.2-3.1-4.95-1.96,0-.04Zm11.55,6.4C307.76,458.13,299.57,459.93,305.81,461Zm-22.18-15.47c4.99-3.21-6.44-.03,0,.01Zm5.07,2.53c-.15-1.69-1.8.78,0,.01ZM314,463.85c4.07,2.57,23.73,5.62,11.42,1C323.32,465.33,302.56,459,314,463.85ZM273.85,432.6C273.46,430.9,267.54,430.71,273.85,432.6Zm11.76,6.86c3.07-2.15-6.35-1.65,0,0Zm10,6.14c4.39-1.66-7.14-1.66-.02,0ZM269,427.38c4.76,3.65,19.24.46,7.3-2.18-5.43-2.9-17.66-4.88-9.32,1.74l2,.44Zm33.16,20.23c2.03-3.37-8.3-1.93.04,0Zm-10.08-8c11.67,3.3-9.8-7.37-2.88-1.23l1.54.69,1.34.52Zm20.2,11.66c11.09.11-9.94-1.53.04,0ZM264.79,421C264.36,418.93,262.07,421.15,264.79,421ZM331,461.75C331.29,458,327.39,464.51,331,461.75Zm-47.35-29.24C283,430.55,280.2,432.43,283.65,432.51Zm-17.81-12.82C272.18,419.31,257.17,416.9,265.84,419.69Zm-21.08-13.61c-.76-3.08-6.89-5.47,0,0Zm55.35,35.12C299,439.88,299.57,441.49,300.11,441.2Zm34.45,21.15C334.45,460.32,332.68,463.12,334.56,462.35Zm-37.5-24.29C297.68,435.45,291.65,437.27,297.06,438.06ZM271.4,421.79C276.12,421.29,263.84,418.6,271.4,421.79Zm43.41,27c7.35-2.94-7.16-1.45,0-.03Zm-22.58-15.32c8.46,1.09-10.08-5.76-1.87-.62Zm29.43,18.09c7.91-4.71,5.3,11.08,13.42,1.34,8-5.85-6.91,7.23,2.94,1,7.14-4.77,17.68,2.27,24.33,4.56,4.79-.24,9.44,4.14,14.35,1.48,9.44-2.55-18.48-3.78-11.15-8.29-8.65,2.52-15-3-19.29-8.54-9.7-2.24-20.91-7.2-25.75-15.78-2-3.22,2.84.46-1.7-4.81-5.84-5.19-8.75-11.1-12.68-17.42-4.68-2.49-5.24-9.85-5.71-.24,0-6.07-5.66-10.16-7.06-8.46,0-5.83,6.1-2.92,1.81-7.23-.92-6.06-4-12.36-4.87-19.2-1.42-3.3-.2-10.36-4.83-2.9-1.69,7.88-.56-9.68,2.07-3.9,3.45-5.91-1.24-5.21-1.43-4.39,2.25-5,1.43-12.07-.59-9.37,1.2-5.29,1.9-19.45-1.79-16.94,2.23-5.53,4.24-25.31-5.46-17.77-3.93.05-10.73,1.43-13.95,3,10.08,5.56-1,2-5.12,1.13-.54,5.14-4.61,2.91-9.67,3,8.12,1-3.95,8.28-8.6,5.46-6.05,2.89,5.22,10.1.12,12.33.63,3.36-9.27-1.21-8.49,6.56-5.86-2.47-.81,9.21,2.13,5.25,10,2.71,7,8.86,7.28,14.72-1.63,3.4-8-8-1.43-7.49-5.22-8.46-5.76-3.07-10.09.88-1,.28,11.05,5.6,3.48,8.21,6.66,1,6.85,6.85,8.2,10.53,4,4.17,3.17-4.6,8,.41-3-4.45-16-12.57-5.57-10-.05-4.48-1.89-8.1,1.32-8,3.19-5.76-3.33,14.2,3.84,6.88,2-.87,2.48-5.76,6,.46,5.17,5.09,1.87,8.78-5.43,4.11,1.3,4.44,9.77,6,8.17,12.95,1.69,6.1,4.05,3.85,6.1,3.5,1.54,5.92,2.53,1.56,2.61-1.25,7.38,1.58,5.65,5.94,8,9,5.09,2.3-7.29-15.56,1.46-5.37,9.18,8.29,3.45,11.76-4.8,10.44,5.22-.43,6.91,7.06,13.43,6.79,6,2.84,10,13.71-.28,9.18-3.55-3.21-16.16-7.17-5.86-1.08,9.5,4.41,17.05,7,26.22,12.57,6.55,4.6,9.38,10,11.87,11.1-5.51,2.63-16.61-2.1-8.44-3.55-5.14-.94-10.93-3.53-6,2.87,4.19,3.5,14.83,3.13,16.74,3.53-1.61,3.56-4.4,3.84.06,4.12-5,2.66,1.6,3.07,2.06,4.58ZM311.49,422.8c-3-3.17-3.82-9.09-.54-3.94C312.64,419.54,316.32,428.56,311.49,422.8Zm33.15,21c1.89-.16.05,1.4,0-.04Zm-37.91-28.82c-.13-4.83,1.09,3.65,0-.04Zm-3.3-4.43c-3.82-7.4,4.79,2.04,0-.04ZM263.5,382.89C265.74,382.29,264.61,386.71,263.5,382.89Zm31.78,17.22c1.38-5.17,1.53,4.33,0,0ZM272.83,384.5C271.25,381.66,276.13,387.17,272.83,384.5Zm19.26,6.17c-3.61-8.08,2.56-4.42.81,1.32Zm-33.21-22.15c-1.54-2.66-4.28-10.44-3.42-12.82.77,3.87,8.23,16.66,3.65,5.37-5.05-9.51,6,3.09,7.19,5.47.53,2.35-3.12-.65-.65,4.89-4.51-6.3-2.66,3.49-6.77-2.84Zm-10.27-7.08c.39-6.17,2.39,4.22,0,0Zm4.62,1.6c2.21-4.65,3.77,6.48,0-.04ZM242,354.6c-3.82-3.8-6.59-7.29.18-2.36,2.61.1-5.79-8,.63-2.56,6.76,1.22,3.33,11.07-.8,4.91Zm5.83-.16c2.26-2.2,1.17,2.17.03,0Zm3.59,1.15c-3.34-6.3,4.12,2.65.03,0Zm-7.13-6.81c-11.12-9.9,14,5.16,1.81,1.84Zm31.83,18.49c-4.81-2.87-1.28-20.29.36-8.38,4.68-1.52-.26,6.15,3.23,6.07C279.17,369.8,277.59,371.54,276.12,367.27Zm11.77,7c.49-5.27,1.03,3.56.03-.03Zm-2-2c.53-2.27.04,2.58-.01-.06Zm-39.31-26.69c-7.13-9.84,20.75,10,4.58,2.5-1.7-.51-3.74-.66-4.59-2.56Zm22.68,12c-.68-8.33,1.5,1.34-.01-.04Zm17.22,11c1.31-4.71.09,3.14-.01.01Zm-38.8-26.83c4.24-.9,17.65,7.45,5.33,2.38-1.36-1.49-4.27-.81-5.34-2.37Zm36.42,18.16c.46-8.48,2.54-5.06,0,1.23Zm-33.27-21.1c1.74-2.54-4.58-11.46.91-3.2,2.3,1.88,6.88,3.16,2.92,4,6.25,5.52-1.54,1.49-3.82-.77Zm31.47,18.46c1.18-9.66,1.04,5.67-.01.01ZM247.22,329.9C248.54,329.33,247.91,331.66,247.22,329.9Zm8.21,4.89c2.11-4.44,3.9,4.94,0,0Zm23.15,12.88c-.01-1.67.42,2.47,0,0Zm-1.34-3c-3.24-7.89,3.07,4.23,0,.03Zm-2-5.2c-.51-3.25,1.87,4.14.03.03Zm3.21-5.22c-2.21-3.88,2.78-17.11,3.34-8.9-2.32,6.4-.67,10,.95,1.38,3-6.75-.65,13.33-4.3,7.52Zm3.3-19.69c.99-1.15.25,1.44.03.03Zm-5.52,108.6c-1.23-1.16.2.75.03.03Zm11.36,5.74c6.31,1.63,6.29-1,.57-1.76-3.07-2.86-12.75-5.89-4.08-.36.57,1.54,2.38,1.42,3.51,2.12ZM265.21,414c3.47,2.61,13.1,7.36,5,1,2.75-3.19-5.25-4.89-2.6-7-6.76-4.14-5.34-3.84-.6-3.63-8.12-3.63,1.17-3.35.73-5.22-3.13-.61-15.55-5.52-8.24.4-7.43-3.78-1.76,1.41-4,.87-7.68-2.07,6.75,5.79-1.21,3.84,4.35,3.45,11.73,8.85,1.84,3.65-1.3,1.87,7.08,4.72,9.21,6.14Zm11.87,6.83c14.43,4.7-7.08-5.63,0,.04Zm60.78,36.83c.19-2.83-1.97,2.49,0,.04Zm6.25,2.63c3.33-3.22.14,5.14,5.53-.79.05-4.24-.16-6.75-6.19-1.6-1.67.92-2.4,4.84.67,2.38ZM244.93,398C243.91,394,237.76,394,244.93,398Zm6.68,4.37c-2.48-4.08-8.84-3.7,0,.02Zm38,22.9c3.7,3.3,17,2.42,4.49.4-1.88-2.67-11.8-2.05-4.53-.38Zm52.17,32.23c5.66-4.77-5.57,2.15-.04.02Zm11.86,8.15c0-1.51-2.49.69-.04.02Zm0-2.15c6.3-6.65-6.13.41-.01.02ZM228.52,384.28c-5.37-7.67-3.34-11.13-8.53-17.4-1-4.79-8.9-15.68-4.1-4.14,4.4,6.75,5.71,17.19,12.63,21.56Zm123.1,77.1C297.07,384.61,346.87,458.11,351.62,461.38Zm8.88,3.48c5.83-4.99-3.69-1.05,0,0ZM243,389.54C244.62,387.06,238.65,389.22,243,389.54Zm115.7,72.95c5.63-3.63-1.31-3.07-1,.33Zm-76.46-48.2c-.24-2.46-3.03.21-.05,0Zm4.72,2.72c-1.55-3.01-2.35.47-.05-.01Zm80.78,47.92c7.21-5.21-4.38-1-1.51,1Zm-2.77-1.33c5.84-4.93-6.26,2.18-.05,0ZM379.1,473c3.9-2.64-4.85-.84-.05,0ZM246.58,387.74c5.3,1.18,21.14,13,11.8.82-4.79-1.42-1.92-13.13-6.81-11.05,3.28,5.47,2.69,7.81-4.19,4.35-8.65-4.22-4.86,2.09-3.17,3.84-2.3.54,3,2,2.38,2Zm-24.1-19c1-3.91-8.72-21.56-4.56-8.84,1.49,2.62,1.34,7.67,4.56,8.8ZM266.73,396C264,393.71,266.6,395.66,266.73,396Zm6.71,1.56c0-4.15-7.44-1.7,0-.01Zm58.15,36.66c-1.11-2.85-4.37-.08,0-.01Zm2.8,2c-.39-1.56-1.54.33,0,.03Zm23,14.52c2.27-1.61-2.72-.19.04.03Zm-122.92-79c6.38-2.41-6.75-1.74.04.05Zm91.94,57.93c-.04-4.06-4,1.07.04.05ZM232,365.94C236.07,364.56,228.24,365,232,365.94Zm11.82,5.72C243.74,370.31,242.57,372.18,243.82,371.66ZM388,460.08c5.23-1.06,17.18,2.66,19.11-1.38-6.37-.16-22-4.49-22.74,1l1.38.23,2.25.14ZM247.58,372.62C247.67,368.46,244.34,372.46,247.58,372.62ZM216.5,351.05C215.08,343.13,211.12,349.85,216.5,351.05Zm7.4,1.87c.1-2.55-6.78-2.29,0,0Zm4.24,2.07c-1.23-.99-.95,1.25,0,.01Zm26.65,17.09C256.05,370.93,251.82,371.23,254.79,372.08Zm-29.47-21.8c-.72-5.98-8.59-.89,0,0Zm-15.19-9.86c-.22-2.76-1.49,1.04,0,0Zm2.26-1.7c-.39-3.28-1.94.41,0,0Zm12.49,7.44c5.28-2.07-9.62-4.3-1.08-.38ZM392,449.44C395.39,446.34,387.72,448.48,392,449.44Zm20.2,10.46C413.56,455.91,408.78,460.44,412.2,459.9ZM226.14,339.65C226.7,335.78,222,340.42,226.14,339.65Zm-17.77-11.89c-.94-5.49-.8-15.08,8.32-11.84-12.18,2.42,8.44,15.15,5.83,5.09,5.13.26,10-3,7.33,1.94,10.11-1.09,17.09-9.86,26.85-8.62,7.68-1,15.91-1.77,24.1-4.84,6.73-.48,13.2-7.73,9.52-12-9.18-.77-18.79.36-28.94,2.39-11.24,2.33-21.45,6.78-32.79,8.67-11.05,1.49,2.23,4.09-.94,4.68-5.76,2,6.88,3.35-.75,5.47-4.71-.9-9.61-2.52-7.6-7.48-10.59,1.38-19.9,5.77-11.52,16.54h.59Zm25.54-12.93c2.48-9.15,13.3,7.52,4.07,1.22A5.87,5.87,0,0,0,233.91,314.83Zm.48-4.44c3.61-2.66,1.91,1.5,0,0Zm4.55.08c.33-4.21,10.43,2.3,1.67,1.51Zm6.22-2.51c2.28-2.66.66,2.36,0,.04Zm1.6-1.07c3.79-4.55,21.43-2.92,8.44-.44-3.45-2.61-6.12,1.55-8.44.44Zm23-3.55c-.55-12.44,11.47,4.41.02,0Zm6.54,0c2.38-6.26,9.29-2.52,1.11-1.26.2.63-.22,3.2-1.09,1.22Zm-52.75,33.21c7.16-4.42-7.55-3.83.02-.04Zm5.28,1.53c2.52-2.7-5.35-1.08.02-.08Zm-15.53-11.2C217.37,323.73,208.47,325.69,213.3,326.88ZM424.13,458.76C424.24,455.13,421,460.4,424.13,458.76Zm-21.42-14.62C403.33,440,400,444.5,402.71,444.14Zm27.33,16c5.7,0,17.28-1.76,4.87-1.76-1.91.35-11.36.27-4.91,1.8ZM233.51,335.34c4.62-.31,7.21-5.09-.9-4.82-12.58-1.3,11.1,4.31-1.53,2.7-1.71,1.13,2.41,2.43,2.51,2.11Zm4.07,2.06C237.09,334.43,236.15,339,237.58,337.4Zm4.83-12.87C244.41,322.05,239.65,323.87,242.41,324.53Zm-15.35-25.66c8.25-2.8,19.51-5.95,23.41,1.38-4-4.76-1.59-9.45,2.15-2.48,5.3,7,7.94-3.21,4.5-5.58,3.91,4.87,8.36,7.17,2.62.31,6.26-7.52-12.51,1-16.77.9-2.05.92-21.19,4.88-15.89,5.47Zm4.84-9.25c4.7-3.54,16.25,2.11,8.84-3.53C240,285.46,224.51,290.37,231.9,289.62Zm17.13.71c5.49.14-2.38-7.39,4.17-4-1.07-3.51-7.62-4.16-10.83-5.58-1.81,3.21,3.68,9.6,6.65,9.56Zm-14.12-15.55C236.81,272.2,231.57,276.08,234.91,274.78Zm7,1.67c8.86-1.17-2.26-3.81-1.79-.09Zm-13.08-10.2c-6.24-8.16,11.74,1.36,5.39-7.17-5.37-4.24-10.49,4.79-5.42,7.17Zm80.08,43.13c2.86-5.07-11.82-6.83-1.92-1.8.87.31.67,2.15,1.89,1.8Z" transform="translate(-199.796 -256.974)"/></svg>