<svg xmlns="http://www.w3.org/2000/svg" width="226.653" height="175.63" viewBox="0 0 226.653 175.63"><defs><style>.a{fill:#fff;}</style></defs><g transform="translate(0 0)"><path class="a" d="M327.411,315.988l7.259.123,19.751-19,.955-8.049a90.2,90.2,0,0,0-58.867-21.611c-40.86,0-75.351,26.788-85.589,63.072,2.148-1.44,6.757-.362,6.757-.362l39.4-6.238s2.033-3.234,3.053-3.07a50.44,50.44,0,0,1,67.269-4.9Z" transform="translate(-183.202 -267.45)"/><path class="a" d="M399.452,335.245a85.128,85.128,0,0,0-26.746-41.535l-27.931,26.9a46.72,46.72,0,0,1,18.369,36.91v4.732c13.587,0,24.623,10.7,24.623,23.726s-11.061,23.726-24.623,23.726H313.938L309,414.48v28.475l4.938,4.724h49.246c35.346-.049,63.986-27.643,64.035-61.723,0-21-10.978-39.576-27.726-50.752Z" transform="translate(-200.566 -272.099)"/><path class="a" d="M246.721,472.228h49.222v-38H246.721A25.159,25.159,0,0,1,236.59,432.1l-7.11,2.1-19.751,19L208,459.612a65.278,65.278,0,0,0,38.679,12.583Z" transform="translate(-182.686 -296.599)"/><path class="a" d="M241.275,330.92c-35.388.049-63.986,27.643-64.035,61.722,0,20.039,9.958,37.856,25.372,49.139l28.557-27.512a23.718,23.718,0,0,1-14.517-21.628c0-13.085,11.061-23.718,24.623-23.718a24.812,24.812,0,0,1,22.451,13.99l28.532-27.553a64.767,64.767,0,0,0-51.024-24.442Z" transform="translate(-177.24 -278.686)"/></g></svg>