<svg xmlns="http://www.w3.org/2000/svg" width="158.859" height="36" viewBox="0 0 158.859 36"><defs><style>.a{fill:none;stroke:#aa1f79;stroke-miterlimit:10;}</style></defs><g transform="translate(-45.391 -5914)"><g transform="translate(280.935 5613.08) rotate(90)"><path class="a" d="M322.581,76.684c0,9.707-7.322,9.707-7.322,19.416s7.322,9.709,7.322,19.418-7.322,9.705-7.322,19.411,7.322,9.707,7.322,19.414-7.322,9.712-7.322,19.423,7.322,9.709,7.322,19.416-7.322,9.716-7.322,19.431,7.322,9.714,7.322,19.43" transform="translate(0 0)"/></g><g transform="translate(277.435 5599.241) rotate(90)"><path class="a" d="M322.581,76.684c0,9.707-7.322,9.707-7.322,19.416s7.322,9.709,7.322,19.418-7.322,9.705-7.322,19.411,7.322,9.707,7.322,19.414-7.322,9.712-7.322,19.423,7.322,9.709,7.322,19.416-7.322,9.716-7.322,19.431,7.322,9.714,7.322,19.43" transform="translate(0 0)"/></g><g transform="translate(280.935 5626.919) rotate(90)"><path class="a" d="M322.581,76.684c0,9.707-7.322,9.707-7.322,19.416s7.322,9.709,7.322,19.418-7.322,9.705-7.322,19.411,7.322,9.707,7.322,19.414-7.322,9.712-7.322,19.423,7.322,9.709,7.322,19.416-7.322,9.716-7.322,19.431,7.322,9.714,7.322,19.43" transform="translate(0 0)"/></g></g></svg>