<svg xmlns="http://www.w3.org/2000/svg" width="8" height="190" viewBox="0 0 8 190"><defs><style>.a{fill:#58144c;opacity:0.56;}</style></defs><g transform="translate(-4714 -594)"><circle class="a" cx="4" cy="4" r="4" transform="translate(4714 678)"/><circle class="a" cx="4" cy="4" r="4" transform="translate(4714 776)"/><circle class="a" cx="4" cy="4" r="4" transform="translate(4714 664)"/><circle class="a" cx="4" cy="4" r="4" transform="translate(4714 762)"/><circle class="a" cx="4" cy="4" r="4" transform="translate(4714 650)"/><circle class="a" cx="4" cy="4" r="4" transform="translate(4714 748)"/><circle class="a" cx="4" cy="4" r="4" transform="translate(4714 636)"/><circle class="a" cx="4" cy="4" r="4" transform="translate(4714 734)"/><circle class="a" cx="4" cy="4" r="4" transform="translate(4714 622)"/><circle class="a" cx="4" cy="4" r="4" transform="translate(4714 720)"/><circle class="a" cx="4" cy="4" r="4" transform="translate(4714 608)"/><circle class="a" cx="4" cy="4" r="4" transform="translate(4714 706)"/><circle class="a" cx="4" cy="4" r="4" transform="translate(4714 594)"/><circle class="a" cx="4" cy="4" r="4" transform="translate(4714 692)"/></g></svg>