<svg xmlns="http://www.w3.org/2000/svg" width="32.342" height="37.908" viewBox="0 0 32.342 37.908"><defs><style>.a{fill:#fff;}</style></defs><g transform="translate(-305 -410.546)"><path class="a" d="M12.043,29.279a2.022,2.022,0,1,1-4.043,0V20.051a2.022,2.022,0,1,1,4.043,0Zm28.3,0a2.022,2.022,0,1,1-4.043,0V20.051a2.022,2.022,0,1,1,4.043,0ZM22.15,40.559a2.022,2.022,0,1,1-4.043,0V31.33a2.022,2.022,0,1,1,4.043,0Zm8.085,0a2.022,2.022,0,1,1-4.043,0V31.33a2.022,2.022,0,1,1,4.043,0Z" transform="translate(297 405.845)"/><path class="a" d="M14,18.254V33.635a2.121,2.121,0,0,0,2.174,2.051h17.39a2.121,2.121,0,0,0,2.174-2.051V18.254ZM24.869,8C18.347,8,14.326,11.691,14,16.2H35.737C35.411,11.691,31.39,8,24.869,8Zm-4.347,5.742a1.027,1.027,0,1,1,1.087-1.025A1.059,1.059,0,0,1,20.521,13.742Zm8.695,0A1.027,1.027,0,1,1,30.3,12.717,1.059,1.059,0,0,1,29.216,13.742Z" transform="translate(296.302 406)"/><path class="a" d="M26.99,10.616a1.142,1.142,0,0,1-.53-.205,1.106,1.106,0,0,1-.265-1.436l1.5-2.563A.8.8,0,0,1,28.934,6.1,1.106,1.106,0,0,1,29.2,7.54L27.7,10.1A.7.7,0,0,1,26.99,10.616Zm-7.954-.41a.786.786,0,0,1-.707-.513L17.18,7.54A1.106,1.106,0,0,1,17.445,6.1a.8.8,0,0,1,1.237.308l1.149,2.153A1.106,1.106,0,0,1,19.566,10,1.142,1.142,0,0,1,19.036,10.206Z" transform="translate(297.981 404.615)"/></g></svg>