<svg xmlns="http://www.w3.org/2000/svg" width="225.5" height="208.299" viewBox="0 0 225.5 208.299"><defs><style>.a{fill:#702061;}.b{fill:#e5e5e5;stroke-width:10px;}.b,.d,.f{stroke:#3a6b7b;}.c,.d,.i{fill:none;}.c{stroke:#231f20;}.c,.d,.f{stroke-miterlimit:10;}.c,.d{stroke-width:5px;}.e,.f{fill:#3a6b7b;}.f{stroke-width:4px;}.g,.h{stroke:none;}.h{fill:#702061;}</style></defs><g transform="translate(-650 -1801.804)"><g class="a" transform="translate(692.908 1852.002) rotate(131)"><path class="g" d="M 11.83192348480225 45.57104110717773 L 0.5718192458152771 45.57104110717773 L 6.201871395111084 3.747791051864624 L 11.83192348480225 45.57104110717773 Z"/><path class="h" d="M 6.201871395111084 7.495571136474609 L 1.143635749816895 45.07104110717773 L 11.26010704040527 45.07104110717773 L 6.201871395111084 7.495571136474609 M 6.201871395111084 0 L 12.40374183654785 46.07104110717773 L 9.5367431640625e-07 46.07104110717773 L 6.201871395111084 0 Z"/></g><g class="a" transform="translate(703.455 1953.729) rotate(92)"><path class="g" d="M 17.07924842834473 34.93926239013672 L 0.6403831839561462 34.93926239013672 L 8.85981559753418 2.061550140380859 L 17.07924842834473 34.93926239013672 Z"/><path class="h" d="M 8.85981559753418 4.123098373413086 L 1.280771255493164 34.43926239013672 L 16.4388599395752 34.43926239013672 L 8.85981559753418 4.123098373413086 M 8.85981559753418 0 L 17.71963500976562 35.43926239013672 L -3.814697265625e-06 35.43926239013672 L 8.85981559753418 0 Z"/></g><g class="a" transform="matrix(0.342, -0.94, 0.94, 0.342, 836.138, 1990.592)"><path class="g" d="M 17.07924842834473 34.93926239013672 L 0.6403831839561462 34.93926239013672 L 8.85981559753418 2.061550140380859 L 17.07924842834473 34.93926239013672 Z"/><path class="h" d="M 8.85981559753418 4.123098373413086 L 1.280771255493164 34.43926239013672 L 16.4388599395752 34.43926239013672 L 8.85981559753418 4.123098373413086 M 8.85981559753418 0 L 17.71963500976562 35.43926239013672 L -3.814697265625e-06 35.43926239013672 L 8.85981559753418 0 Z"/></g><g class="a" transform="matrix(-0.719, -0.695, 0.695, -0.719, 809.304, 1848.541)"><path class="g" d="M 15.32600593566895 35.82524108886719 L 0.6216617822647095 35.82524108886719 L 7.973834037780762 2.332000017166138 L 15.32600593566895 35.82524108886719 Z"/><path class="h" d="M 7.973834037780762 4.664007186889648 L 1.243321418762207 35.32524108886719 L 14.70434665679932 35.32524108886719 L 7.973834037780762 4.664007186889648 M 7.973834037780762 3.814697265625e-06 L 15.94766426086426 36.32524108886719 L 3.814697265625e-06 36.32524108886719 L 7.973834037780762 3.814697265625e-06 Z"/></g><g class="a" transform="translate(703.455 1839.53) rotate(172)"><path class="g" d="M 15.33217430114746 37.59720230102539 L 0.6154940128326416 37.59720230102539 L 7.973834037780762 2.440678358078003 L 15.33217430114746 37.59720230102539 Z"/><path class="h" d="M 7.973834037780762 4.881305694580078 L 1.230974197387695 37.09720230102539 L 14.71669387817383 37.09720230102539 L 7.973834037780762 4.881305694580078 M 7.973834037780762 3.814697265625e-06 L 15.94766426086426 38.09720230102539 L 3.814697265625e-06 38.09720230102539 L 7.973834037780762 3.814697265625e-06 Z"/></g><g class="a" transform="translate(718.581 1972.89) rotate(21)"><path class="g" d="M 10.92994785308838 34.93926239013672 L 0.5878126621246338 34.93926239013672 L 5.758880138397217 3.117310762405396 L 10.92994785308838 34.93926239013672 Z"/><path class="h" d="M 5.758880138397217 6.234556198120117 L 1.175615310668945 34.43926239013672 L 10.34214496612549 34.43926239013672 L 5.758880138397217 6.234556198120117 M 5.758880138397217 3.814697265625e-06 L 11.51776027679443 35.43926239013672 L 0 35.43926239013672 L 5.758880138397217 3.814697265625e-06 Z"/></g><g class="b" transform="translate(707.963 1856.822)"><ellipse class="g" cx="71.5" cy="67.5" rx="71.5" ry="67.5"/><ellipse class="i" cx="71.5" cy="67.5" rx="66.5" ry="62.5"/></g><g transform="translate(723.926 1883.082)"><path class="c" d="M100.94,326.7" transform="translate(-100.94 -293.686)"/><path class="d" d="M218.812,236.172a33.9,33.9,0,0,0-8.248,0c-3.627.448-19.46,3-26.264,17.13-5.932,12.316-.618,24.321.252,26.2,4.882,10.552,14.044,14.846,16.878,16.122a34.489,34.489,0,0,0,18.641,2.771,33.561,33.561,0,0,0,17.382-8.313c2.8-2.421,8.94-7.746,10.832-16.878a27.635,27.635,0,0,0-.252-12.092" transform="translate(-162.734 -224.081)"/><circle class="e" cx="4.786" cy="4.786" r="4.786" transform="translate(35.421 30.22)"/><circle class="e" cx="4.786" cy="4.786" r="4.786" transform="translate(60.612 30.22)"/><path class="e" d="M252.8,401.12h34.754a16.358,16.358,0,0,1-1.26,2.267c-4.24,6.382-11.721,7.823-13.1,8.061a19.381,19.381,0,0,1-10.832-1.008,19.155,19.155,0,0,1-8.3-6.55Z" transform="translate(-217.379 -350.747)"/><path class="e" d="M469.88,269.36" transform="translate(-383.825 -249.72)"/><path class="f" d="M396.688,187.726a6.369,6.369,0,0,1,6.384,6.249c.217,3.842-4.254,8.525-5.724,10.065-3.531,3.709-5.794,5.726-7.445,7.207-.289.259-.562.5-.819.735l-.835-.735c-1.656-1.467-3.921-3.475-7.464-7.154-1.476-1.53-5.967-6.188-5.761-10.044a6.383,6.383,0,0,1,6.41-6.277h.371c3.044.156,5.285,3.6,5.3,3.627l1.941,3.093,1.927-3.1c.021-.035,2.246-3.482,5.288-3.653.142,0,.285-.012.424-.012m0-2.566c-.18,0-.362,0-.546.016-4.285.233-7.1,4.772-7.1,4.772s-2.836-4.52-7.123-4.74c-.163,0-.322-.012-.48-.012-5.1,0-8.5,4.1-8.749,8.7-.25,4.691,3.9,9.377,6.491,12.068,5.565,5.785,8.033,7.506,9.913,9.423,1.866-1.922,4.334-3.669,9.876-9.477,2.582-2.706,6.711-7.41,6.445-12.089C405.148,189.235,401.755,185.16,396.686,185.16Z" transform="translate(-309.292 -185.16)"/></g></g></svg>