<svg xmlns="http://www.w3.org/2000/svg" width="24.437" height="27.756" viewBox="0 0 24.437 27.756"><defs><style>.a{fill:#fff;}</style></defs><path class="a" d="M4.665,3.411,6.889,28.392l9.979,2.774,10.007-2.779L29.1,3.411H4.664Zm4.62,5.928-.073-.822h7.661V11.58H12.555l.279,3.138h4.038v3.063H10.037L9.285,9.338Zm14.624,6.2-.719,8.066-.046.517-6.275,1.742L10.6,24.125l-.429-4.811h3.071l.218,2.444,3.409.921,3.412-.923.355-3.973H16.88V14.719h7.1l-.074.822Zm.554-6.2-.139,1.553-.061.689H16.883V8.518h7.653l-.073.821Z" transform="translate(-4.664 -3.411)"/></svg>