<svg xmlns="http://www.w3.org/2000/svg" width="124.409" height="107.668" viewBox="0 0 124.409 107.668"><defs><style>.a,.b{fill:none;stroke:#464547;stroke-miterlimit:10;}.a{stroke-width:3.334px;}.b{stroke-width:2px;}.c{fill:#464547;}</style></defs><g transform="translate(0.002 0.007)"><path class="a" d="M142.1,245.572v4.814H77.723v-7.352c9.852,2.737,18.276,0,20.529-5.071.422-.949,1.167-3.216,0-6.84H49.842l.085-85.071H170.915v86.006l-48.662-.508c.033.313.085.783.171,1.352a32.254,32.254,0,0,0,1.608,6.513c1.224,2.931,8.87,4.6,18.328,3.795Z" transform="translate(-48.175 -144.392)"/><rect class="b" width="36.097" height="15.881" transform="translate(21.181 13.832)"/><rect class="c" width="33.962" height="1.352" transform="translate(70.184 13.832)"/><rect class="c" width="33.962" height="1.352" transform="translate(70.184 21.772)"/><rect class="c" width="21.682" height="1.352" transform="translate(70.184 29.039)"/><rect class="c" width="21.682" height="1.352" transform="translate(20 57.759)"/><rect class="c" width="21.682" height="1.352" transform="translate(52.373 58.438)"/><rect class="c" width="21.682" height="1.352" transform="translate(82.46 57.759)"/><circle class="b" cx="7.841" cy="7.841" r="7.841" transform="translate(23.548 38.151)"/><circle class="b" cx="7.841" cy="7.841" r="7.841" transform="translate(54.356 38.151)"/><circle class="b" cx="7.841" cy="7.841" r="7.841" transform="translate(85.462 38.151)"/><line class="a" x2="121.045" transform="translate(1.686 68.745)"/></g></svg>