<svg xmlns="http://www.w3.org/2000/svg" width="19.143" height="19.143" viewBox="0 0 19.143 19.143"><defs><style>.a{fill:#702061;}</style></defs><path class="a" d="M12.562,3a9.572,9.572,0,1,0,9.581,9.572A9.561,9.561,0,0,0,12.562,3Zm.01,17.229a7.657,7.657,0,1,1,7.657-7.657A7.655,7.655,0,0,1,12.572,20.229Zm.957-9.629,1.015,1.015L15.558,10.6l1.015,1.015L17.587,10.6,15.558,8.571Zm-3.943,0L10.6,11.614,11.614,10.6,9.585,8.571,7.556,10.6l1.015,1.015Zm2.986,7.236a5.261,5.261,0,0,0,4.891-3.35H7.68A5.261,5.261,0,0,0,12.572,17.836Z" transform="translate(-3 -3)"/></svg>