<svg xmlns="http://www.w3.org/2000/svg" width="25.001" height="28.172" viewBox="0 0 25.001 28.172"><defs><style>.a{fill:#d4d4d4;}</style></defs><path class="a" d="M5.6,28.172H.413V9.364H5.6ZM3,6.8A3.24,3.24,0,0,1,0,3.383,3.209,3.209,0,0,1,3,0,3.209,3.209,0,0,1,6,3.383,3.24,3.24,0,0,1,3,6.8ZM25,28.172H19.823V19.016c0-2.182-.039-4.98-2.695-4.98-2.695,0-3.108,2.371-3.108,4.823v9.313H8.843V9.364h4.971v2.566h.073a5.37,5.37,0,0,1,4.9-3.037c5.246,0,6.21,3.893,6.21,8.948V28.172Z" transform="translate(0 0)"/></svg>