<svg xmlns="http://www.w3.org/2000/svg" width="25.942" height="21.07" viewBox="0 0 25.942 21.07"><defs><style>.a{fill:#d4d4d4;}</style></defs><path class="a" d="M23.276,8.632c.016.23.016.461.016.691A15.024,15.024,0,0,1,8.165,24.451,15.025,15.025,0,0,1,0,22.064a11,11,0,0,0,1.284.066,10.648,10.648,0,0,0,6.6-2.272,5.326,5.326,0,0,1-4.971-3.687,6.705,6.705,0,0,0,1,.082,5.623,5.623,0,0,0,1.4-.181,5.318,5.318,0,0,1-4.263-5.218v-.066a5.355,5.355,0,0,0,2.4.675A5.325,5.325,0,0,1,1.811,4.352,15.113,15.113,0,0,0,12.774,9.916,6,6,0,0,1,12.642,8.7a5.322,5.322,0,0,1,9.2-3.638,10.468,10.468,0,0,0,3.374-1.284,5.3,5.3,0,0,1-2.337,2.93,10.659,10.659,0,0,0,3.062-.823,11.429,11.429,0,0,1-2.667,2.749Z" transform="translate(0 -3.381)"/></svg>