<svg xmlns="http://www.w3.org/2000/svg" width="134.262" height="136.636" viewBox="0 0 134.262 136.636"><defs><style>.a,.d{fill:none;stroke:#414042;stroke-miterlimit:10;}.a{stroke-width:4.255px;}.b{fill:#702161;}.c,.e{fill:#414042;}.d{stroke-width:1.547px;}.e{font-size:21px;font-family:BrushScriptMT, Brush Script MT;}</style></defs><g transform="translate(0.004)"><path class="a" d="M104.866,171.613h21.975a7.631,7.631,0,0,0,3.423-2.413c1.851-2.392.975-4.727,1.7-9.08a28.617,28.617,0,0,1,3.12-8.522c2.339-4.088,3.982-4.077,6.388-7.522,3.212-4.593,3.653-9.444,3.971-12.91a33.369,33.369,0,0,0-2.12-15.04c-1.2-3.106-3.275-8.43-8.656-12.486a26.411,26.411,0,0,0-9.79-4.4,30.66,30.66,0,0,0-11.069-.851A28.084,28.084,0,0,0,105.3,100.8a28.388,28.388,0,0,0-8.37,6.1A26.222,26.222,0,0,0,88.7,123.645a33.334,33.334,0,0,0,.141,8.939c.555,3.7,1.6,6.2,3.692,11.21,1.519,3.643,2.494,5.225,3.83,6.667,1.452,1.569,1.809,1.332,2.978,2.7,1.978,2.311,2.516,4.816,3.265,8.515a43.581,43.581,0,0,1,.844,7.946,2.014,2.014,0,0,0,.353,1.2,2.039,2.039,0,0,0,1.063.791Z" transform="translate(-49.002 -58.995)"/><path class="b" d="M139.643,105.332" transform="translate(-53.437 -59.611)"/><rect class="c" width="22.417" height="3.049" rx="1.42" transform="translate(56.327 117.371)"/><rect class="c" width="26.286" height="3.049" rx="1.525" transform="translate(107.972 67.145)"/><rect class="c" width="26.286" height="3.049" rx="1.524" transform="translate(95.506 36.394) rotate(-48.11)"/><rect class="c" width="28.363" height="3.049" rx="1.524" transform="matrix(-0.676, -0.736, 0.736, -0.676, 37.631, 38.393)"/><rect class="c" width="28.363" height="3.049" rx="1.525" transform="translate(63.965 28.363) rotate(-90)"/><rect class="c" width="25.872" height="3.049" rx="1.524" transform="translate(25.868 70.576) rotate(180)"/><rect class="c" width="22.417" height="3.049" rx="1.42" transform="translate(56.327 122.656)"/><rect class="c" width="18.587" height="3.049" rx="1.292" transform="translate(57.853 127.941)"/><rect class="c" width="11.316" height="3.049" rx="1.006" transform="translate(61.577 133.587)"/><path class="d" d="M113.94,172.93v-1.986c-.177-8.013-2.551-20.241-14.047-34.337l3.911-3.533" transform="translate(-49.993 -62.015)"/><path class="d" d="M125.071,172.93v-1.986a83.3,83.3,0,0,1,8.016-34.337l-2.233-3.533" transform="translate(-52.175 -62.015)"/><text class="e" transform="matrix(0.999, -0.039, 0.039, 0.999, 52.645, 71.773)"><tspan x="0" y="0">idea</tspan></text></g></svg>