<svg xmlns="http://www.w3.org/2000/svg" width="11.238" height="15.732" viewBox="0 0 11.238 15.732"><defs><style>.a{fill:#702061;}</style></defs><path class="a" d="M10.816,4.5a.421.421,0,0,0,.421-.421v-1.4a.421.421,0,0,0-.421-.421H.421A.421.421,0,0,0,0,2.671V4.243a.421.421,0,0,0,.421.421H3.416a2.533,2.533,0,0,1,2.141.957H.421A.421.421,0,0,0,0,6.043v1.4a.421.421,0,0,0,.421.421H6A2.427,2.427,0,0,1,3.371,9.928H.421A.421.421,0,0,0,0,10.349v1.862a.421.421,0,0,0,.136.31l5.8,5.35a.421.421,0,0,0,.286.112h2.9a.421.421,0,0,0,.286-.731L4.1,12.36A4.811,4.811,0,0,0,8.962,7.869h1.855a.421.421,0,0,0,.421-.421v-1.4a.421.421,0,0,0-.421-.421H8.755a4.81,4.81,0,0,0-.5-1.124Z" transform="translate(0 -2.25)"/></svg>