<svg xmlns="http://www.w3.org/2000/svg" width="77.352" height="73.352" viewBox="0 0 77.352 73.352"><defs><style>.a,.c{fill:#e0af6e;}.b{fill:none;stroke:#231f20;}.b,.c,.d,.e,.f{stroke-miterlimit:10;}.c,.e{stroke:#754c29;}.d{fill:#27aae1;stroke:#1c75bc;stroke-width:0.5px;}.e{fill:#8b5e3c;}.f{fill:#f9b0a0;stroke:#be1e2d;stroke-width:2px;}</style></defs><g transform="translate(0.33 1)"><path class="a" d="M210.179,343.8c1.326-.041,2.316,1.785,3.481,3.926a23.583,23.583,0,0,1,2.068,5.168h0a28.623,28.623,0,0,1,.211,5.1,21.5,21.5,0,0,1-2.13,9.37,19.249,19.249,0,0,1-6.532,7.159h0a7.84,7.84,0,0,1-2.27.833,9.815,9.815,0,0,1-7.467-1.993,12.755,12.755,0,0,1-3.621-2.756,12.4,12.4,0,0,1-2.4-3.848,23.545,23.545,0,0,1-1.24-3.9,23.157,23.157,0,0,1-.481-3.133l.954-5.531,1.816-2.33,2.03-.908,2.656-.125,3.151-.216,2.918-.967,1.619-.947,2.675-2.354C207.916,345.7,208.858,343.843,210.179,343.8Z" transform="translate(-175.469 -323.759)"/><path class="b" d="M305,406.15" transform="translate(-264.514 -371.955)"/><path class="c" d="M206.72,457.386v6.087l1.315,1.9,3.117,2.416,4.368.888,4.913-.951,3.683-2.416,1.174-2.27V459.58l-.173-2.877.125-.293-.125.293h0c-.277.372-4.173,5.42-10.142,4.891a10.9,10.9,0,0,1-6.03-2.6l-.227-.118Z" transform="translate(-188.547 -410.804)"/><path class="d" d="M145.3,470.78c-.311.154-.742.368-1.258.615-1.237.595-2.155,1.006-2.189,1.024-9.94,5.322-13.875,16.976-15.178,21.594H183.1a14.369,14.369,0,0,0,0-2.143c-.854-11.352-15.128-18.15-18.715-19.753l-.817-.536-.145-.277a9.03,9.03,0,0,1-1.421,4,8.357,8.357,0,0,1-.529.715,9.613,9.613,0,0,1-7.077,3.213,6.487,6.487,0,0,1-5.529-2.1A6.377,6.377,0,0,1,147,475.148h0a13.287,13.287,0,0,1-.926-1.853S145.693,472.047,145.3,470.78Z" transform="translate(-126.68 -421.911)"/><path class="e" d="M292.6,398.65c-1.09,3.061-1.764,6.72,0,9.393,1.887,2.859,5.6,3.117,5.513,4.7-.077,1.374-2.952,2.3-5.921,3.267-2.4.779-3.712,1.2-5.513,1.022a10.259,10.259,0,0,1-5.921-2.859l3.771-5.3,1.333-7.156Z" transform="translate(-245.777 -366.158)"/><path class="e" d="M176.769,286.1c-2.952,4.768-6.028,6.487-8.371,7.145-3.683,1.035-6-.436-8.371,1.43a6.559,6.559,0,0,0-1.694,2.182,10.06,10.06,0,0,0-.96,5.576,26.251,26.251,0,0,0,3.049,10c.495.8,1.085,1.619.815,2.452-.488,1.512-3.406,1.832-5.513,2.043a27.607,27.607,0,0,1-8.984-.613,14.091,14.091,0,0,0,3.676-6.739c.186-.874.35-2.107,0-5.715-.574-5.944-1.437-6.92-1.632-10.414a24.832,24.832,0,0,1,1.428-9.595c.949-2.77,2.332-6.811,6.33-10.006a18.455,18.455,0,0,1,10.617-3.88,19.353,19.353,0,0,1,11.859,3.3Z" transform="translate(-142.185 -266.674)"/><ellipse class="f" cx="21.948" cy="18.595" rx="21.948" ry="18.595" transform="translate(32.125)"/><path class="f" d="M275.013,388.28c-.123,2.334-.713,5.2-2.856,7.1-.849.756-1.714,1.158-1.648,1.317.1.243,2.27-.275,11.352-3.608" transform="translate(-237.85 -358.142)"/><path class="d" d="M266.6,502" transform="translate(-234.832 -446.043)"/><path class="e" d="M321.14,409.25" transform="translate(-276.989 -374.351)"/></g></svg>