<svg xmlns="http://www.w3.org/2000/svg" width="175.01" height="175" viewBox="0 0 175.01 175"><defs><style>.a{fill:#fff;}</style></defs><g transform="translate(0.05 -0.049)"><path class="a" d="M317.6,353.51h0a39.88,39.88,0,1,0,39.87,39.873A39.88,39.88,0,0,0,317.6,353.51Zm57.23,3.55a18.18,18.18,0,1,0-18.18-18.18,18.18,18.18,0,0,0,18.18,18.18Z" transform="translate(-230.12 -305.91)"/><path class="a" d="M317.6,480.87a87.56,87.56,0,0,0,87.48-87.48,86.58,86.58,0,0,0-7.86-36.25h0l-.75-1.68-1.23,1.38a27.45,27.45,0,0,1-11,7.55l-1.16.44.48,1.13a69.81,69.81,0,0,1,5.47,27.33v.08a71.47,71.47,0,1,1-71.463-71.46,70.61,70.61,0,0,1,30.623,6.9l1.13.55.48-1.13a27.58,27.58,0,0,1,8-10.55h.05l1.44-1.16-1.64-.86a85.71,85.71,0,0,0-39.88-9.7h-.2a87.5,87.5,0,1,0,0,175Z" transform="translate(-230.12 -305.91)"/></g></svg>