<svg xmlns="http://www.w3.org/2000/svg" width="25.459" height="30" viewBox="0 0 25.459 30"><defs><style>.a{fill:#fff;}</style></defs><path class="a" d="M20.571,30.125a8.053,8.053,0,0,1-2.709-.611,6.424,6.424,0,0,0-2.056-.5,6.352,6.352,0,0,0-1.927.474,8.6,8.6,0,0,1-2.826.627c-1.7,0-3.223-.914-4.664-2.79-.061-.08-5.928-8.175-3.078-14.186C4.873,9.845,7.122,8.173,10,8.173a13.2,13.2,0,0,1,4.04.807,6.99,6.99,0,0,0,1.537.39,6.1,6.1,0,0,0,1.589-.422A11.549,11.549,0,0,1,21,8.138a8.182,8.182,0,0,1,5.987,2.869.615.615,0,0,1,.171.489.636.636,0,0,1-.273.446c-1.967,1.346-2.965,2.9-2.965,4.631,0,2.138,1.124,3.71,3.752,5.247a.608.608,0,0,1,.258.793c-2.471,5.194-4.741,7.513-7.36,7.513ZM15.637,7.812a4.422,4.422,0,0,1-.484-.028.645.645,0,0,1-.589-.6C14.387,2.956,18.2.367,21.018.127a.673.673,0,0,1,.725.517,5.833,5.833,0,0,1-1.6,4.906,6.3,6.3,0,0,1-4.508,2.262Z" transform="translate(-2.531 -0.125)"/></svg>