<svg xmlns="http://www.w3.org/2000/svg" width="25.126" height="25.126" viewBox="0 0 25.126 25.126"><defs><style>.a{fill:#fff;}</style></defs><path class="a" d="M2,7.235A5.235,5.235,0,0,1,7.235,2H21.892a5.235,5.235,0,0,1,5.235,5.235V21.892a5.235,5.235,0,0,1-5.235,5.235H7.235A5.235,5.235,0,0,1,2,21.892Zm11.516,3.141a1.047,1.047,0,0,0-1.047,1.047V19.8a1.047,1.047,0,0,1-1.047,1.047H9.329a1.047,1.047,0,0,0,0,2.094h2.094A3.141,3.141,0,0,0,14.563,19.8V11.422A1.047,1.047,0,0,0,13.516,10.375Zm2.094,3.141v1.047A3.141,3.141,0,0,0,18.751,17.7H19.8a1.047,1.047,0,0,1,1.047,1.047V19.8A1.047,1.047,0,0,1,19.8,20.845H16.657a1.047,1.047,0,1,0,0,2.094H19.8A3.141,3.141,0,0,0,22.939,19.8V18.751A3.141,3.141,0,0,0,19.8,15.61H18.751A1.047,1.047,0,0,1,17.7,14.563V13.516a1.047,1.047,0,0,1,1.047-1.047h3.141a1.047,1.047,0,1,0,0-2.094H18.751A3.141,3.141,0,0,0,15.61,13.516Z" transform="translate(-2 -2)"/></svg>