<svg xmlns="http://www.w3.org/2000/svg" width="30.001" height="30" viewBox="0 0 30.001 30"><defs><style>.a{fill:#fff;}</style></defs><path class="a" d="M28.215,4.024a4.015,4.015,0,0,0-7.99-.569,6.652,6.652,0,0,0-6.582,1.681c-1.226,1.279-4.761,4.787-6.67,6.689L9.937,14.79c.67-.67,6.007-6.006,6.676-6.683a2.468,2.468,0,1,1,3.241,3.709L22.8,14.782a6.677,6.677,0,0,0,1.936-6.776A4.036,4.036,0,0,0,28.215,4.024Z" transform="translate(1.743)"/><path class="a" d="M6.972,9.46h0v0Z" transform="translate(1.743 2.365)"/><path class="a" d="M22.043,26.775a4.014,4.014,0,1,0,4.494-4.759l0,0a6.613,6.613,0,0,0-1.761-6.288c-.79-.818.334.314-6.663-6.675l-2.968,2.968,6.676,6.675a2.461,2.461,0,0,1,0,3.475,2.487,2.487,0,0,1-3.71-.234L15.167,24.9A6.624,6.624,0,0,0,22.043,26.775ZM4.819,14.555c3.355,3.346.81.838,6.684,6.675l2.948-2.966L7.788,11.6A2.475,2.475,0,1,1,11.5,8.34l2.967-2.966A6.722,6.722,0,0,0,8,3.365a4.012,4.012,0,0,0-7.97.662v0a3.976,3.976,0,0,0,3.128,3.9A6.614,6.614,0,0,0,4.819,14.555Z" transform="translate(0.008 0.001)"/><path class="a" d="M4.005,26.9A4.014,4.014,0,0,0,7.93,23.775a6.653,6.653,0,0,0,6.309-1.741c2.15-2.143.818-.83,6.663-6.675h0l-2.948-2.966c-5.826,5.785-3.376,3.374-6.676,6.683a2.463,2.463,0,0,1-3.476,0,2.489,2.489,0,0,1,.215-3.709L5.07,12.4a6.66,6.66,0,0,0-1.976,6.582A4.012,4.012,0,0,0,4.005,26.9Z" transform="translate(0 3.099)"/></svg>