<svg xmlns="http://www.w3.org/2000/svg" width="37.264" height="26.508" viewBox="0 0 37.264 26.508"><defs><style>.a{fill:#fff;}</style></defs><path class="a" d="M41.8,20.925c-.247-.288-3.658-4.725-4.259-5.478s-.894-.616-1.263-.561-4.685.809-5.186.9-.817.3-.509.744c.273.4,3.111,4.578,3.737,5.5L23.045,24.834,14.074,9.248c-.357-.551-.431-.743-1.243-.7s-7.037.575-7.48.614-.93.243-.486,1.331,7.513,16.917,7.709,17.377a1.5,1.5,0,0,0,1.909.909c1.229-.306,5.491-1.463,7.819-2.1,1.23,2.315,3.74,7.011,4.2,7.686.619.9,1.046.75,2,.45.743-.234,11.62-4.3,12.111-4.508s.792-.359.461-.869c-.244-.375-3.113-4.369-4.616-6.459l5.081-1.407c.455-.128.517-.359.27-.649ZM21.3,25.282c-.135.029-6.452,1.6-6.79,1.681s-.338.039-.375-.08S6.621,10.749,6.517,10.549s-.1-.359,0-.359,5.967-.546,6.174-.556.186.034.262.171l8.422,15.106c.145.26.058.341-.077.37ZM39.11,28.751c.1.164.2.269-.115.388S28.3,32.9,28.1,32.989s-.361.12-.619-.27-3.635-6.46-3.635-6.46l11-2.974c.273-.089.361-.149.534.135s3.631,5.167,3.732,5.331Zm.7-8.114c-.247.056-4.285,1.1-4.285,1.1l-3.3-4.71c-.092-.135-.17-.272.061-.3s3.984-.738,4.153-.777.316-.087.524.209,3.065,4.053,3.172,4.2-.077.233-.324.288Z" transform="translate(-4.689 -8.54)"/></svg>