<svg xmlns="http://www.w3.org/2000/svg" width="216.12" height="259.424" viewBox="0 0 216.12 259.424"><defs><style>.a{fill:#fff;}</style></defs><g transform="translate(-0.03 0.007)"><path class="a" d="M370.416,363.8l-2.957,33.961-9.745-6.789,1.179-17.132v-.59l-.295-.295-.295-.295L337.34,358.787l.295-15.06Zm-51.379,36.909-15.06-11.514v2.662a2.254,2.254,0,0,1-.59,1.474l-11.219,7.664,12.4,10.04.295.295v.6l.59,11.809,13.872,11.514Zm-94.79,14.739,7.092,33.961,29.227,31-5.02-34.256Zm27.467,5.02-7.092-47.512-35.435-29.53,9.424,46.064Zm-11.219-76.774-9.745-67.3L190,251l13.283,63.491Z" transform="translate(-186.745 -226.794)"/><path class="a" d="M406.051,345.774l-4.43,32.183-24.207,19.49,2.948-33.076Zm-77.069,55.211.295,34.845,31-24.805,2.072-33.952Zm-20.08,14.15L265.2,446.452l5.315,36.024,39.57-31.594Zm-1.179-23.617-2.063-47.252-51.084,29.253,7.083,49.021Zm-3.243-74.71-2.662-63.777L240.4,276.665l10.04,68.494Z" transform="translate(-193.447 -227.064)"/><path class="a" d="M402.4,338.236h0v-.59a.286.286,0,0,0-.295-.295.286.286,0,0,1-.295-.295l-35.435-19.785a1.318,1.318,0,0,0-1.474,0l-30.12,18.311h-.295v1.734l-.295,15.944-12.138-7.977a1.881,1.881,0,0,0-1.734,0L302.3,355.359l-.867-17.713v-1.474h-.295l-18.3-12.138,17.123-8.852a1.63,1.63,0,0,0,.867-1.483l-3.243-67.029v-.251l-.59-.59L250.63,223.374a1.1,1.1,0,0,0-.867-.295L186.87,242.561q-.29.3-.59.6v1.734l13.872,67.627c0,.295.295.59.59.867l18.9,14.739L205.77,334.62a.286.286,0,0,0-.295.295.286.286,0,0,1-.295.295v.6l10.63,50.781c0,.295.295.6.59.867l13.283,12.4-8.852,5.315-.295.295a.286.286,0,0,1-.295.295v.867L228.5,445.9c0,.295.295.59.295.867L260.99,482.2h.295a.286.286,0,0,1,.295.295h1.474l42.484-33.961a2.237,2.237,0,0,0,.59-1.179l-.867-23.323,14.176,11.809a.286.286,0,0,1,.295.295H321.2l34.256-27.163a1.535,1.535,0,0,0,.59-1.179l1.179-17.132,10.335,7.092h1.179a.286.286,0,0,0,.295-.295l27.744-22.152c.295-.295.59-.59.59-.867l5.02-36.319Zm-32.183,55.22,2.948-33.076,26.01-18.6-4.43,32.183Zm-13.005-6.2,1.179-17.132v-.59l-.295-.295-.295-.295-20.964-13.872.295-15.06,32.782,20.375-2.957,33.961Zm-4.43,19.777-31,24.805-.295-34.845,33.371-23.912Zm-49.6,39.883L263.3,478.509,258,442.468l43.4-31Zm-72.638-1.179-7.092-33.961,31.594,30.71,5.02,34.256Zm-.59-173.038,9.737,67.323-36.909-29.227-13.274-63.509Zm64.662-23.617,2.662,63.777L243.26,341.192,233.22,272.7Zm5.9,138.488-46.056,30.692-7.083-49.021L298.463,340Zm-56.39-18.034,7.092,47.538-33.1-31.3-9.45-46.064Zm60.535,38.686v-.6l-.295-.295-12.4-10.049,11.219-7.673c.59-.295.59-.867.59-1.474V385.47l15.06,11.514.295,34.845L305.26,420.316Z" transform="translate(-186.25 -223.08)"/></g></svg>