<svg xmlns="http://www.w3.org/2000/svg" width="127" height="133.951" viewBox="0 0 127 133.951"><defs><style>.a{fill:none;stroke:#812c71;stroke-width:5px;}.b{fill:#812c71;}</style></defs><g transform="translate(-689.5 -2990.023)"><g transform="translate(-414 998.475)"><g transform="translate(1106 1994.049)"><path class="a" d="M-3579.114-5325.5V-5343l4.841-6.087,52.434-27.4h7.26l54.923,30.369,2.542,6.394v57.285l-5.932,6.928-51.4,27.976h-7.626l-54.229-30.108-2.808-4.8Z" transform="translate(3579.114 5376.485)"/></g></g><g transform="translate(707.003 3019.461)"><path class="b" d="M81.192,54.308H53.539a2.8,2.8,0,0,0,0,5.59H78.427a5.566,5.566,0,0,1-5.53,5.59H12.061A5.566,5.566,0,0,1,6.53,59.9H31.418a2.8,2.8,0,0,0,0-5.59H3.765A2.778,2.778,0,0,0,1,57.1V59.9a11.132,11.132,0,0,0,11.061,11.18H72.9A11.132,11.132,0,0,0,83.957,59.9V57.1A2.778,2.778,0,0,0,81.192,54.308ZM6.53,51.513A2.778,2.778,0,0,0,9.3,48.718V12.385A2.781,2.781,0,0,1,12.061,9.59H72.9a2.781,2.781,0,0,1,2.765,2.795V48.718a2.765,2.765,0,1,0,5.53,0V12.385A8.351,8.351,0,0,0,72.9,4H12.061a8.351,8.351,0,0,0-8.3,8.385V48.718A2.778,2.778,0,0,0,6.53,51.513Z"/><path class="b" d="M63.675,41.232a2.739,2.739,0,0,0,2.794-2.686V33.174a2.739,2.739,0,0,0-2.794-2.686H59.423a23.663,23.663,0,0,0-1.009-2.345l3.006-2.89a2.612,2.612,0,0,0,0-3.8l-7.9-7.6a2.96,2.96,0,0,0-3.951,0l-3.006,2.89a25.029,25.029,0,0,0-2.439-.97V11.686A2.739,2.739,0,0,0,41.325,9H30.149a2.739,2.739,0,0,0-2.794,2.686v4.088a25.725,25.725,0,0,0-2.439.97l-3.006-2.89a2.873,2.873,0,0,0-3.951,0l-7.9,7.6a2.612,2.612,0,0,0,0,3.8l3.006,2.89a23.367,23.367,0,0,0-1.014,2.348H7.794A2.739,2.739,0,0,0,5,33.174v5.372a2.739,2.739,0,0,0,2.794,2.686,2.739,2.739,0,0,0,2.794-2.686V35.86h3.526a2.778,2.778,0,0,0,2.7-2.014A18.358,18.358,0,0,1,18.9,29.013a2.608,2.608,0,0,0-.427-3.266l-2.5-2.4,3.954-3.8,2.492,2.4a2.875,2.875,0,0,0,3.4.411,19.949,19.949,0,0,1,5.026-2,2.708,2.708,0,0,0,2.1-2.6V14.372h5.588v3.39a2.708,2.708,0,0,0,2.1,2.6,19.949,19.949,0,0,1,5.027,2,2.878,2.878,0,0,0,3.4-.411l2.492-2.4,3.954,3.8L53,25.75a2.6,2.6,0,0,0-.427,3.266,18.358,18.358,0,0,1,2.082,4.832,2.778,2.778,0,0,0,2.7,2.014h3.521v2.686A2.739,2.739,0,0,0,63.675,41.232Z" transform="translate(6.744 9.519)"/><path class="b" d="M26.116,14A16.132,16.132,0,0,0,10,30.116a2.686,2.686,0,1,0,5.372,0,10.744,10.744,0,0,1,21.488,0,2.686,2.686,0,1,0,5.372,0A16.132,16.132,0,0,0,26.116,14Z" transform="translate(16.363 18.397)"/></g></g></svg>