<svg xmlns="http://www.w3.org/2000/svg" width="33.487" height="31.05" viewBox="0 0 33.487 31.05"><defs><style>.a{fill:none;stroke:#fff;stroke-width:2px;}</style></defs><g transform="translate(-2872.061 -400.801)"><g transform="translate(2883.939 401.946)"><path class="a" d="M2992,412.9v-5.571" transform="translate(-2987.097 -407.329)"/><path class="a" d="M2955.061,404.58l4.933-2.634,4.933,2.874" transform="translate(-2955.061 -401.946)"/></g><g transform="translate(2904.324 420.172) rotate(121)"><path class="a" d="M0,5.571V0" transform="translate(4.903 0)"/><path class="a" d="M0,2.634,4.933,0,9.866,2.874" transform="translate(0 0)"/></g><g transform="translate(2878.577 428.145) rotate(-121)"><path class="a" d="M0,5.571V0" transform="translate(4.903 0)"/><path class="a" d="M0,2.634,4.933,0,9.866,2.874" transform="translate(0 0)"/></g><g transform="matrix(0.996, 0.087, -0.087, 0.996, 2874.037, 404.255)"><path class="a" d="M0,14.685V0" transform="matrix(0.469, -0.883, 0.883, 0.469, 2.302, 4.382)"/><path class="a" d="M0,2.634,4.933,0,9.866,2.874" transform="matrix(0.469, -0.883, 0.883, 0.469, 0, 8.711)"/></g><g transform="translate(2906.371 409.395) rotate(121)"><path class="a" d="M0,14.685V0" transform="matrix(0.469, -0.883, 0.883, 0.469, 2.302, 4.382)"/><path class="a" d="M0,2.634,4.933,0,9.866,2.874" transform="matrix(0.469, -0.883, 0.883, 0.469, 0, 8.711)"/></g><g transform="matrix(-0.454, -0.891, 0.891, -0.454, 2885.356, 434.652)"><path class="a" d="M0,14.685V0" transform="matrix(0.469, -0.883, 0.883, 0.469, 2.302, 4.382)"/><path class="a" d="M0,2.634,4.933,0,9.866,2.874" transform="matrix(0.469, -0.883, 0.883, 0.469, 0, 8.711)"/></g></g></svg>