<svg xmlns="http://www.w3.org/2000/svg" width="12.818" height="27.97" viewBox="0 0 12.818 27.97"><defs><style>.a{fill:#fff;}</style></defs><path class="a" d="M12.774,0c0,.022,0,.036-.006.057V.072h0c0,.017,0,.029,0,.045V.135h0c0,.012,0,.021,0,.03V.2h0a.222.222,0,0,1,0,.029V.249h0a.083.083,0,0,1,0,.024V.3h0c0,.012,0,.026,0,.037v0L12.731.4V.4h0a.061.061,0,0,0,0,.014v.02h0V.464h-.006V.485H12.71V.509h0V.531H12.7v.02h-.007V.568h0V.589h0V.6h-.007V.62h0V.637h0a.007.007,0,0,0,0,0V.654h0a.015.015,0,0,0,0,.007V.668h0a.051.051,0,0,0,0,.012L12.646.7v0L12.64.714V.724h0V.733H12.63V.742h0V.754h-.008V.77h0v0h0V.784h0V.8h0V.806h-.007V.819h0V.829h-.006V.838h0V.85h-.007V.859h0V.866h0V.875h-.007v.01h0V.893h-.006V.9h0V.915h-.006v0h0V.929h-.007v0h0V.945h-.006v0h0V.959H12.5V.966h0l0,0v0h0s0,0,0,0h0a.019.019,0,0,1,0,.008v0h0a.219.219,0,0,0-.014.021h0a.052.052,0,0,0-.01.012v0h0s0,0,0,0v0h0l0,0h0s0,0,0,0v0h0l0,0v0h0s0,0,0,0v0h0s0,0,0,0v.007h0v0h0v.007h0v.009h-.006V1.084H12.4v0H12.4V1.1h-.006V1.1h-.006v0h0v.007h0v0h0V1.13h-.007v0h0v.007h-.006v0h0v.006h-.006v.012h0v0h-.007v.006h0v0h0v0h-.006v.012h0v0h-.006v0h0V1.21H12.3v0h-.006v0h0v0H12.28v.012h0v.006h-.007v0h0v0h-.007v.007h0v0h-.006V1.27h0v0h-.007v.007h0v0h0v0h-.006v0h0V1.3h-.006v0h0a0,0,0,0,0,0,0v0h0l-.006,0,0,0v.007h0v.006h0v0h0v0h0l0,0v0h0l0,0v0h0a.117.117,0,0,1-.016.019l-.014.012a.435.435,0,0,0-.047.037.245.245,0,0,0-.026.02h0L12,1.489h0l-.089.072h0c-.068.055-.14.117-.221.185h0c-.2.172-.441.394-.709.662l-.022.022A15.885,15.885,0,0,0,6.517,13.011a12.081,12.081,0,0,0,.007,1.333v.01a12.482,12.482,0,0,0,1.7,5.543h0a14.358,14.358,0,0,0,1.1,1.637h0a15.058,15.058,0,0,0,3,2.944,9.535,9.535,0,0,1,.477,3.239l.765.251a13.678,13.678,0,0,1,.063-2.939,1.794,1.794,0,0,1,.416-.772,10.091,10.091,0,0,0,.95-.752c.021-.022.034-.042.052-.063a13.151,13.151,0,0,0,4.036-12.352c-1.5-6.48-5.053-8.609-5.434-9.424A10.3,10.3,0,0,1,12.774,0Z" transform="translate(-6.502)"/></svg>