<svg xmlns="http://www.w3.org/2000/svg" width="30.012" height="23.747" viewBox="0 0 30.012 23.747"><defs><style>.a{fill:#fff;}</style></defs><g transform="translate(0 -1.5)"><path class="a" d="M7.5,20.749a.625.625,0,0,1-.616-.522l-.8-4.8L4.662,20.3a.649.649,0,0,1-1.2,0L2.041,15.428l-.8,4.8a.625.625,0,0,1-1.232-.2l1.25-7.5A.624.624,0,0,1,1.837,12a.611.611,0,0,1,.637.449l1.587,5.442,1.587-5.442A.61.61,0,0,1,6.287,12a.624.624,0,0,1,.579.521l1.25,7.5a.625.625,0,0,1-.514.719A.719.719,0,0,1,7.5,20.749Zm2.746,0a.626.626,0,0,1-.591-.422l-1.5-4.375a.626.626,0,0,1,1.184-.4l1.5,4.375a.625.625,0,0,1-.39.794A.643.643,0,0,1,10.245,20.749Z" transform="translate(0 2.624)"/><path class="a" d="M6.125,22.624a.625.625,0,0,1,0-1.25c3.085,0,3.747-5.637,3.753-5.694a.636.636,0,0,1,.69-.551.626.626,0,0,1,.552.691C11.089,16.1,10.316,22.624,6.125,22.624Zm8.129-1.875h-1.88a.625.625,0,0,1,0-1.25h1.88a1.245,1.245,0,0,0,0-2.49,2.5,2.5,0,0,1-.01-5.01h1.88a.625.625,0,0,1,0,1.25h-1.88a1.255,1.255,0,0,0,0,2.51,2.495,2.495,0,1,1,.01,4.99Zm6.244,0c-1.752,0-3.125-1.921-3.125-4.375S18.746,12,20.5,12s3.125,1.921,3.125,4.375S22.251,20.749,20.5,20.749Zm0-7.5c-1.016,0-1.875,1.431-1.875,3.125S19.482,19.5,20.5,19.5s1.875-1.431,1.875-3.125S21.515,13.25,20.5,13.25Z" transform="translate(1.374 2.624)"/><path class="a" d="M20.592,22.969a.628.628,0,0,1-.442-.182l-1.739-1.739a.625.625,0,0,1,.884-.884L21.033,21.9a.624.624,0,0,1-.441,1.066Zm5,0H22.467a.625.625,0,0,1-.625-.625v-7.5a.625.625,0,0,1,1.25,0v6.874h2.5a.625.625,0,0,1,0,1.25ZM16.463,4.743a.682.682,0,0,1-.509-.23,1.047,1.047,0,0,1-.067-.1.659.659,0,0,1-.756-.615.643.643,0,0,1,.485-.625,2.118,2.118,0,0,1,.441-.056.6.6,0,0,1,.477.172.951.951,0,0,1,.326.316c.011.019.065.115.075.135a.611.611,0,0,1-.472,1Zm-.707-.957h0Z" transform="translate(3.781 0.404)"/><path class="a" d="M26.1,14.567a.641.641,0,0,1-.506-.244,1.1,1.1,0,0,1-.156-.286l-.172-.155a3.7,3.7,0,0,0-.79-.76c-.044-.029-.119-.071-.2-.117a2.07,2.07,0,0,1-.97-.862.636.636,0,0,1-.022-.495.621.621,0,0,1,.521-.406,2.52,2.52,0,0,0,.41-.094c.091-.025.172-.042.247-.056a9.869,9.869,0,0,0-.914-.637,3.1,3.1,0,0,0-.44-.211c-.134-.056-.266-.114-.389-.176a.975.975,0,0,1-.556-.357,2.464,2.464,0,0,1-.32-.559L21.769,9c-.239-.45-.481-.964-.7-1.456-.052-.112-.1-.239-.155-.365a2.919,2.919,0,0,0-.229-.491,7.758,7.758,0,0,0-3.013-2.856,3.126,3.126,0,0,0-.782-.241l-.629-.046a.611.611,0,0,1-.211-.047,1.471,1.471,0,0,1-.407-.275c-.68-.437-1.114-.51-1.207-.464-.037.094.067.275.3.564.056.07.106.132.146.186a3.911,3.911,0,0,1,.481.709,2.31,2.31,0,0,1,.109.332,1.418,1.418,0,0,0,.042.144l.095.265a6.132,6.132,0,0,0,.312.776,3.229,3.229,0,0,0,.251.416.906.906,0,0,1,.326.547.627.627,0,0,1-.1.47c0,.014-.024.1-.036.16a2.661,2.661,0,0,1-.075.29,2.962,2.962,0,0,0,.18,2.234c.024.036.045.066.064.092,0-.01,0-.02,0-.027a3.565,3.565,0,0,1,.076-.435.839.839,0,0,1,.171-.454.626.626,0,0,1,1.089.191l.047.092c.091.179.182.352.266.535a4.428,4.428,0,0,0,.89.86,2.223,2.223,0,0,1,.255.227.594.594,0,0,1,.174.1,1.782,1.782,0,0,1,.2.162.618.618,0,0,1,.234.479.65.65,0,0,1-.267.525.63.63,0,0,1-.572.086,1.727,1.727,0,0,1-.626-.447,1.451,1.451,0,0,0-.136-.129,6.3,6.3,0,0,1-.857-.772,1.092,1.092,0,0,1-.436.306c-.336.136-1,.229-1.629-.721a4.213,4.213,0,0,1-.315-3.3,1.415,1.415,0,0,0,.04-.164c.011-.051.022-.106.037-.164h0a4.341,4.341,0,0,1-.36-.587,7.411,7.411,0,0,1-.382-.939l-.085-.239a2.106,2.106,0,0,1-.084-.276,1.167,1.167,0,0,0-.041-.139,2.928,2.928,0,0,0-.264-.367l-.079-.1-.112-.141a1.786,1.786,0,0,1-.5-1.81,1.243,1.243,0,0,1,.782-.735,2.858,2.858,0,0,1,2.177.535,1.873,1.873,0,0,1,.229.176l-.006.026.491.026c.036,0,.187.031.224.04a4.1,4.1,0,0,1,1.121.374,8.918,8.918,0,0,1,3.46,3.285,4.129,4.129,0,0,1,.326.684c.042.1.084.211.134.316.209.477.436.962.669,1.4l.092.194a2.543,2.543,0,0,0,.127.255,1.5,1.5,0,0,1,.17.069c.106.054.212.1.319.142a4.4,4.4,0,0,1,.611.3,11.782,11.782,0,0,1,1.452,1.064,2.569,2.569,0,0,1,.314.35,1.741,1.741,0,0,0,.135.164.621.621,0,0,1,.189.446.723.723,0,0,1-.44.671c-.145.045-.29.089-.435.125l-.059.014a4.516,4.516,0,0,1,.84.837l.19.169a.584.584,0,0,1,.08.1,1.292,1.292,0,0,1,.125.244.616.616,0,0,1-.116.869A.6.6,0,0,1,26.1,14.567ZM23.131,8.925a.217.217,0,0,0,.019.025Z" transform="translate(3.291 0)"/></g></svg>