<svg xmlns="http://www.w3.org/2000/svg" width="344.34" height="97.337" viewBox="0 0 344.34 97.337"><defs><style>.a{fill:#fff;}</style></defs><g transform="translate(0 0)"><path class="a" d="M468.11,444.12a4.72,4.72,0,0,1-2.39-.65l-7.61-4.5c-1.14-.64-.59-.86-.21-1a15,15,0,0,0,3.44-1.57.61.61,0,0,1,.57,0l5.85,3.48a.73.73,0,0,0,.7,0l22.8-13.16a.71.71,0,0,0,.35-.62V399.83a.72.72,0,0,0-.35-.62l-22.79-13.15a.75.75,0,0,0-.71,0L445,399.21a.73.73,0,0,0-.36.62v26.32a.7.7,0,0,0,.36.61l6.25,3.61c3.39,1.69,5.47-.3,5.47-2.31v-26a.65.65,0,0,1,.66-.66h2.89a.66.66,0,0,1,.66.66v26c0,4.52-2.46,7.12-6.75,7.12-1.32,0-2.36,0-5.26-1.43l-6-3.44a4.8,4.8,0,0,1-2.39-4.16V399.84a4.8,4.8,0,0,1,2.39-4.16l22.8-13.17a5,5,0,0,1,4.79,0l22.8,13.17a4.82,4.82,0,0,1,2.39,4.16v26.31a4.82,4.82,0,0,1-2.39,4.16l-22.8,13.17a4.791,4.791,0,0,1-2.4.64M475.16,426c-10,0-12.07-4.59-12.07-8.43a.66.66,0,0,1,.66-.66h2.94a.66.66,0,0,1,.66.56c.44,3,1.77,4.52,7.81,4.52,4.8,0,6.84-1.09,6.84-3.64,0-1.47-.58-2.56-8-3.29-6.24-.62-10.1-2-10.1-7,0-4.6,3.88-7.35,10.38-7.35,7.3,0,10.92,2.54,11.38,8a.68.68,0,0,1-.18.51.67.67,0,0,1-.48.21h-3a.65.65,0,0,1-.64-.52c-.71-3.16-2.44-4.17-7.12-4.17-5.25,0-5.86,1.83-5.86,3.2,0,1.66.72,2.14,7.8,3.08s10.34,2.23,10.34,7.16S482.38,426,475.16,426" transform="translate(-151.36 -347.37)"/><path class="a" d="M421.16,408.73a2.93,2.93,0,0,0,1.45-2.53v-6.77a2.92,2.92,0,0,0-1.45-2.52l-24-14a2.92,2.92,0,0,0-2.93,0l-24.17,14a2.92,2.92,0,0,0-1.46,2.53v27.91a2.92,2.92,0,0,0,1.47,2.54l24,13.69a2.91,2.91,0,0,0,2.86,0l14.53-8.08a1.45,1.45,0,0,0,0-2.54l-24.33-14a1.49,1.49,0,0,1-.73-1.27V409a1.46,1.46,0,0,1,.73-1.26l7.57-4.37a1.46,1.46,0,0,1,1.46,0l7.58,4.37a1.46,1.46,0,0,1,.73,1.26v6.88a1.46,1.46,0,0,0,2.19,1.27l14.48-8.42" transform="translate(-151.36 -347.37)"/><path class="a" d="M395.31,407.42a.56.56,0,0,1,.56,0l4.64,2.68a.56.56,0,0,1,.28.48v5.36a.56.56,0,0,1-.28.48l-4.64,2.68a.56.56,0,0,1-.56,0l-4.64-2.68a.56.56,0,0,1-.28-.48v-5.36a.56.56,0,0,1,.28-.48l4.64-2.68" transform="translate(-151.36 -347.37)"/><path class="a" d="M332.39,418.56a.73.73,0,0,1-.36.63L323.72,424a.73.73,0,0,1-.73,0l-8.3-4.79a.73.73,0,0,1-.36-.63V409a.73.73,0,0,1,.36-.63l8.3-4.79a.7.7,0,0,1,.74,0l8.3,4.79a.71.71,0,0,1,.36.63v9.59Zm2.25-71a1.46,1.46,0,0,0-2.18,1.27v37.11a1,1,0,0,1-1.5.88l-6.05-3.49a2.93,2.93,0,0,0-2.92,0l-24.18,14a2.91,2.91,0,0,0-1.47,2.53v27.92a2.94,2.94,0,0,0,1.46,2.53l24.19,14a2.88,2.88,0,0,0,2.92,0l24.19-14a2.94,2.94,0,0,0,1.46-2.53v-69.6a2.92,2.92,0,0,0-1.5-2.55l-14.39-8" transform="translate(-151.36 -347.37)"/><path class="a" d="M249.52,382.8a2.93,2.93,0,0,1,2.92,0l24.19,14a2.93,2.93,0,0,1,1.46,2.53v27.93a2.93,2.93,0,0,1-1.46,2.53l-24.18,14a3,3,0,0,1-2.93,0l-24.17-14a2.93,2.93,0,0,1-1.46-2.53V399.29a2.93,2.93,0,0,1,1.46-2.53l24.17-14" transform="translate(-151.36 -347.37)"/><path class="a" d="M205.55,399.06a2.92,2.92,0,0,0-1.46-2.54l-24.18-13.91a2.77,2.77,0,0,0-1.33-.39h-.25a2.77,2.77,0,0,0-1.33.39l-24.18,13.91a2.92,2.92,0,0,0-1.46,2.54v37.46a1.43,1.43,0,0,0,.73,1.26,1.4,1.4,0,0,0,1.45,0L168,429.55a2.93,2.93,0,0,0,1.46-2.53v-17.5a3,3,0,0,1,1.46-2.54l6.12-3.52a2.93,2.93,0,0,1,2.92,0L186,407a3,3,0,0,1,1.46,2.54V427a2.94,2.94,0,0,0,1.46,2.53l14.37,8.23a1.42,1.42,0,0,0,1.46,0,1.47,1.47,0,0,0,.72-1.26l.06-37.46" transform="translate(-151.36 -347.37)"/></g></svg>