<svg xmlns="http://www.w3.org/2000/svg" width="212.207" height="95.896" viewBox="0 0 212.207 95.896"><defs><style>.a{fill:#fff;}</style></defs><path class="a" d="M198.229,355.575a17.878,17.878,0,0,1,9.809,2.9,29.059,29.059,0,0,1,8.1,7.885,41.388,41.388,0,0,1,5.554,11.572,47.265,47.265,0,0,1,2.062,14.113,47.792,47.792,0,0,1-2.009,14.051,41.506,41.506,0,0,1-5.448,11.485,27.209,27.209,0,0,1-8.1,7.81,18.831,18.831,0,0,1-10.046,2.853,19.454,19.454,0,0,1-9.949-2.7c-6.15-3.536-11.057-10.4-13.643-19.071A52.339,52.339,0,0,1,174.47,378a38.284,38.284,0,0,1,5.457-11.423,28.708,28.708,0,0,1,8.195-7.81A21,21,0,0,1,198.229,355.575Zm-.105,14.873a11.437,11.437,0,0,0-5.878,1.644,15.664,15.664,0,0,0-4.861,4.584,24.276,24.276,0,0,0-3.281,6.839,28.521,28.521,0,0,0-1.219,8.558,28.191,28.191,0,0,0,1.219,8.333,25.234,25.234,0,0,0,3.281,6.988,16.024,16.024,0,0,0,4.861,4.734,10.83,10.83,0,0,0,11.748,0,16.19,16.19,0,0,0,4.869-4.733,25.3,25.3,0,0,0,3.272-6.988,28.245,28.245,0,0,0,1.22-8.334,27.932,27.932,0,0,0-4.439-14.948c-2.824-4.1-6.652-6.487-10.686-6.677Zm73.7-38.005a3.85,3.85,0,0,1,3.422,1.956,7.792,7.792,0,0,1,1.588,4.734v52.717a45.559,45.559,0,0,1-2.114,14.026A40.777,40.777,0,0,1,269,417.435a30.374,30.374,0,0,1-8.2,7.885,17.7,17.7,0,0,1-9.651,2.927,18.527,18.527,0,0,1-9.844-2.853,27.781,27.781,0,0,1-8.142-7.81,41.478,41.478,0,0,1-5.554-11.56,47.128,47.128,0,0,1-2.062-14.126,49.85,49.85,0,0,1,1.79-14.275,41.136,41.136,0,0,1,5.554-11.56v.15a28.819,28.819,0,0,1,8.624-7.96,19.142,19.142,0,0,1,9.651-2.7,23.052,23.052,0,0,1,7.019,1.345,21.923,21.923,0,0,1,8.089,5.257V339.929a9.269,9.269,0,0,1,.43-2.853,10.679,10.679,0,0,1,1.105-2.491,5.142,5.142,0,0,1,1.641-1.731,2.719,2.719,0,0,1,1.9-.449Zm-5.5,59.481a26.728,26.728,0,0,0-1.211-7.96,26.012,26.012,0,0,0-3.334-6.988,17.886,17.886,0,0,0-4.869-4.883,10.475,10.475,0,0,0-5.817-1.794,10.971,10.971,0,0,0-5.869,1.719c-3.672,2.208-6.6,6.358-8.151,11.572a29.539,29.539,0,0,0,0,16.742c1.579,5.174,4.5,9.29,8.151,11.5a11.063,11.063,0,0,0,5.869,1.719,10.8,10.8,0,0,0,5.817-1.719,17.605,17.605,0,0,0,4.869-4.659,23.664,23.664,0,0,0,3.334-6.839,28.225,28.225,0,0,0,1.246-8.433ZM305.5,355.575a17.937,17.937,0,0,1,9.791,2.927c6.107,3.842,10.976,10.8,13.643,19.495a49.725,49.725,0,0,1,.053,28.165,41.505,41.505,0,0,1-5.448,11.485,27.222,27.222,0,0,1-8.089,7.81,18.823,18.823,0,0,1-10.028,2.79,19.454,19.454,0,0,1-9.949-2.7,26.184,26.184,0,0,1-8.142-7.586c-4.878-6.83-7.589-16.184-7.51-25.91A48.633,48.633,0,0,1,281.735,378a38.086,38.086,0,0,1,5.448-11.423,28.82,28.82,0,0,1,8.194-7.81,21,21,0,0,1,10.125-3.189Zm-.079,14.848a11.433,11.433,0,0,0-5.87,1.644,15.763,15.763,0,0,0-4.869,4.584,24.51,24.51,0,0,0-3.281,6.839,30.05,30.05,0,0,0-.018,16.929,25.483,25.483,0,0,0,3.281,6.988,16.19,16.19,0,0,0,4.869,4.734,10.812,10.812,0,0,0,11.739,0,16.191,16.191,0,0,0,4.869-4.734,25.217,25.217,0,0,0,3.316-6.988,28.24,28.24,0,0,0,1.211-8.333,27.932,27.932,0,0,0-4.439-14.948c-2.824-4.1-6.651-6.487-10.686-6.677Zm53.825-14.848a17.881,17.881,0,0,1,9.783,2.927,29.057,29.057,0,0,1,8.1,7.885,41.384,41.384,0,0,1,5.554,11.572,46.99,46.99,0,0,1,2.062,14.113,47.793,47.793,0,0,1-2.009,14.051,41.5,41.5,0,0,1-5.448,11.485,27.208,27.208,0,0,1-8.1,7.81,18.831,18.831,0,0,1-10.046,2.853,19.454,19.454,0,0,1-9.949-2.7c-6.15-3.535-11.057-10.4-13.643-19.071a49.361,49.361,0,0,1-2.018-14.425A48.567,48.567,0,0,1,335.5,378a38.091,38.091,0,0,1,5.448-11.423,28.712,28.712,0,0,1,8.194-7.81A21.005,21.005,0,0,1,359.249,355.575Zm-.105,14.873a11.437,11.437,0,0,0-5.878,1.644,15.776,15.776,0,0,0-4.861,4.584,24.276,24.276,0,0,0-3.281,6.839,28.522,28.522,0,0,0-1.22,8.558,28.193,28.193,0,0,0,1.22,8.334,25.237,25.237,0,0,0,3.281,6.988,16.025,16.025,0,0,0,4.861,4.733,10.829,10.829,0,0,0,11.748,0,16.191,16.191,0,0,0,4.869-4.733,25.289,25.289,0,0,0,3.272-6.976,28.245,28.245,0,0,0,1.22-8.333,27.931,27.931,0,0,0-4.439-14.948c-2.824-4.1-6.652-6.487-10.686-6.677Z" transform="translate(-172.539 -332.378)"/></svg>