<svg xmlns="http://www.w3.org/2000/svg" width="317" height="41.214" viewBox="0 0 317 41.214"><defs><style>.a{fill:#fff;}</style></defs><path class="a" d="M305.081,383.6h20.906l-11.062-17.789-20.3,32.2h-9.2l24.654-38.683a5.887,5.887,0,0,1,9.59-.069l24.792,38.718h-9.2l-4.358-7.233H309.693Zm95.961,7.2V357.223H393.2v36.855a3.806,3.806,0,0,0,1.15,2.714,4.048,4.048,0,0,0,2.863,1.15h35.763l4.6-7.245H401.043Zm-129.7-6.014a13.8,13.8,0,0,0,0-27.6H237.006v40.765h7.842V364.41h25.942a6.612,6.612,0,0,1,0,13.213H248.724l23.366,20.365h11.384l-15.742-13.2Zm-82.541,13.2a20.388,20.388,0,1,1,0-40.765H212.49a20.388,20.388,0,0,1,0,40.765Zm23.159-7.233a13.2,13.2,0,1,0,.69-26.392h-23.3a13.2,13.2,0,1,0-.69,26.392h23.3Zm148.881,7.233a20.388,20.388,0,1,1,0-40.765H388.98l-4.6,7.187h-23a13.2,13.2,0,1,0-.69,26.392h28.955l-4.6,7.233Zm95.869-7.233a13.19,13.19,0,0,1-12.649-9.6h33.463l4.6-7.187H443.992a13.213,13.213,0,0,1,12.649-9.6h23l4.6-7.187H456.181a20.388,20.388,0,0,0,0,40.765H480.33l4.6-7.233H456.641" transform="translate(-167.929 -356.819)"/></svg>