<svg xmlns="http://www.w3.org/2000/svg" width="21.737" height="27.686" viewBox="0 0 21.737 27.686"><defs><style>.a{fill:#fff;}</style></defs><path class="a" d="M14,18.254V33.635a2.121,2.121,0,0,0,2.174,2.051h17.39a2.121,2.121,0,0,0,2.174-2.051V18.254ZM24.869,8C18.347,8,14.326,11.691,14,16.2H35.737C35.411,11.691,31.39,8,24.869,8Zm-4.347,5.742a1.027,1.027,0,1,1,1.087-1.025A1.059,1.059,0,0,1,20.521,13.742Zm8.695,0A1.027,1.027,0,1,1,30.3,12.717,1.059,1.059,0,0,1,29.216,13.742Z" transform="translate(-14 -8)"/></svg>