<svg xmlns="http://www.w3.org/2000/svg" width="12.317" height="4.685" viewBox="0 0 12.317 4.685"><defs><style>.a{fill:#fff;}</style></defs><path class="a" d="M26.99,10.616a1.142,1.142,0,0,1-.53-.205,1.106,1.106,0,0,1-.265-1.436l1.5-2.563A.8.8,0,0,1,28.934,6.1,1.106,1.106,0,0,1,29.2,7.54L27.7,10.1A.7.7,0,0,1,26.99,10.616Zm-7.954-.41a.786.786,0,0,1-.707-.513L17.18,7.54A1.106,1.106,0,0,1,17.445,6.1a.8.8,0,0,1,1.237.308l1.149,2.153A1.106,1.106,0,0,1,19.566,10,1.142,1.142,0,0,1,19.036,10.206Z" transform="translate(-17.031 -5.931)"/></svg>