<svg xmlns="http://www.w3.org/2000/svg" width="31.248" height="33.593" viewBox="0 0 31.248 33.593"><defs><style>.a{fill:#fff;}</style></defs><g transform="translate(-0.863 -0.861)"><path class="a" d="M30.566,5.673a3.308,3.308,0,0,0-2.424-3.146S20.09,1.333,16.563.9a2.7,2.7,0,0,0-3.309,2.928s.8,24.518.884,27.555a2.928,2.928,0,0,0,3.527,3.036L29.8,32.355c2.206-.434,2.315-3.144,2.315-3.144s-1.433-20.7-1.546-23.538C30.465,3.072,30.679,8.511,30.566,5.673ZM27.852,26.5l-9.02.919s-2.627.394-2.686-2.746c-.043-2.313-.563-15.565-.563-15.565a2.09,2.09,0,0,1,2.522-2.231c2.759.2,9.37.7,9.37.7a2.52,2.52,0,0,1,1.847,2.4c.083,2.157.847,14.134.847,14.134s.2,1.969-2.316,2.393ZM5.771,22.928,4.1,23.044a1.493,1.493,0,0,1-1.72-1.586c-.027-1.334-.2-8.9-.2-8.9s-.116-1.4,1.613-1.287c.438.028,1.06.067,1.746.107-.024-1.255-.044-2.353-.06-3.188-.952-.071-1.842-.147-2.478-.213C.725,7.727.865,9.614.865,9.614S1.141,23.5,1.192,25.2c.063,2.029,2.283,1.7,2.283,1.7l2.371-.25c-.021-1.007-.048-2.29-.075-3.722ZM12.4,10.309a1.885,1.885,0,0,0-.083-.483c-.73-.058-2.561-.527-3.148.083-.372.384-.219,1.194-.21,1.654l1.328.074a1.516,1.516,0,0,1,1.181,1.381c.052,1.245.045,8.22.045,8.22s.127,1.138-1.48,1.379l-.843.062c0,.247.009.447.011.595.035,1.989,2.185,1.352,3.534,1.223.116-2.11-.09-4.283-.138-6.394-.058-2.6-.08-5.2-.2-7.793-.008-.177.073,1.588,0,0Z" transform="translate(0 0)"/><path class="a" d="M49.613,50.707l-1.592.25s-1.484.347-1.517-2.435c-.023-2.053-.172-13.688-.172-13.688s-.1-2.151,1.42-1.979c.391.044.93.115,1.516.192-.044-2.232-.079-3.993-.1-4.9-.8-.127-1.558-.256-2.117-.36-2.013-.371-1.886,2.523-1.886,2.523s.239,21.342.286,23.951c.054,3.117,2.013,2.617,2.013,2.617l2.254-.469c-.022-1.214-.06-3.252-.108-5.7Zm3.239-19.052a.766.766,0,0,0-.833.352,2.719,2.719,0,0,0-.212,1.392l1.378.2s1,.365,1.043,2.123c.046,1.912.332,12.3.332,12.3s.112,1.747-1.306,2.124l-1.074.167c.142,2.729,2.313,1.578,3.423,1.391-.114-4.1-.467-16.8-.547-19.778q-1.1-.14-2.2-.269c-.055-.007.558.064,0,0Z" transform="translate(-36.905 -24.729)"/></g></svg>