<svg xmlns="http://www.w3.org/2000/svg" width="27.477" height="28.036" viewBox="0 0 27.477 28.036"><defs><style>.a{fill:#fff;}</style></defs><g transform="translate(-0.5)"><path class="a" d="M21.953,14.917l0,0-.006,0h0Z" transform="translate(4.477 2.509)"/><path class="a" d="M18.991,14.727l0,0h0c-.145.053-.265.075-.366.12a.448.448,0,0,0-.235.212v0a1.3,1.3,0,0,0-.1.666.493.493,0,0,0,.142.069h0a2.72,2.72,0,0,0,.768.081,5.1,5.1,0,0,0,1.818-.35,3.883,3.883,0,0,0,.93-.615,4.562,4.562,0,0,1-2.63.012A1.326,1.326,0,0,1,18.991,14.727Z" transform="translate(4.477 2.602)"/><path class="a" d="M17.58,4.151l.006.009.007.008Z" transform="translate(3.327)"/><path class="a" d="M12.317,19.3c0-.025,0-.051,0-.076s0-.017,0-.027Zm-1.055-4.413a.643.643,0,0,0-.2-.06h0v0h-.021c-.052.005-.128.023-.276.188a7.184,7.184,0,0,1-.748.864,3.148,3.148,0,0,1-1.388.5,1.862,1.862,0,0,0-.455.144.27.27,0,0,0,.069.053,1.638,1.638,0,0,0,.358.142,3.407,3.407,0,0,0,1.378.08,2.356,2.356,0,0,0,1.587-1.04.522.522,0,0,0,.024-.479A.737.737,0,0,0,11.262,14.886ZM15.3,1.5l-.057.011L15.3,1.5Zm2.782,5.4a1.6,1.6,0,0,0-1.245.413,1.821,1.821,0,0,0-.132,1.6,10.507,10.507,0,0,0,.866,2.142c.168.327.331.621.462.86a6.074,6.074,0,0,1,.288.555,3.216,3.216,0,0,0,.176.362,3.408,3.408,0,0,0,.28-1.668c-.034-.7-.2-1.422-.172-2.15.027-.851.193-1.4.207-2.063A5.5,5.5,0,0,0,18.082,6.9Zm.124.506v.018a.235.235,0,0,1-.036.126h0a.672.672,0,0,1-.109.15.661.661,0,0,1-.377.211h0a.508.508,0,0,1-.07,0,.576.576,0,0,1-.337-.108h0a.593.593,0,0,1-.127-.117h0a.259.259,0,0,1-.062-.125v0c0-.005,0-.01,0-.015a.169.169,0,0,1,.043-.113.367.367,0,0,1,.114-.089h0a1.092,1.092,0,0,1,.368-.116,1.261,1.261,0,0,1,.158-.013v0h.049A.866.866,0,0,1,18,7.241a.4.4,0,0,1,.136.055.172.172,0,0,1,.074.11Zm-11.129,3.9a3.551,3.551,0,0,1,.04-.529l0,.019a12.534,12.534,0,0,0,.1-1.976c-.012-.532-.05-.886-.05-1.107v-.03h0V7.678a9.985,9.985,0,0,1,.585-3.372A5.793,5.793,0,0,1,9.059,2.195,11.076,11.076,0,0,0,6.21,1.627c-.112-.006-.243-.01-.374-.01h0c-.125,0-.251,0-.375.011A3.745,3.745,0,0,0,2.844,2.7,5.07,5.07,0,0,0,1.82,6.58a21.454,21.454,0,0,0,.453,2.652A33.525,33.525,0,0,0,3.4,13.214a8.714,8.714,0,0,0,1.571,2.937,1.007,1.007,0,0,0,.719.363A1.147,1.147,0,0,0,6.478,16c.619-.754,1.2-1.421,1.808-2.069l-.02.021A3.511,3.511,0,0,1,7.077,11.307Z"/><path class="a" d="M12.4,1.568v0A3.57,3.57,0,0,0,9.755,2.632,6.088,6.088,0,0,0,8.372,5.115a12.455,12.455,0,0,0-.507,2.875l.013-.01A4.645,4.645,0,0,1,9.19,7.365a2.166,2.166,0,0,1,1.514.046,2.031,2.031,0,0,1,1.029,1.566,10.106,10.106,0,0,1-.552,6.409,11.5,11.5,0,0,0-.311,1.127l-.016.08a.822.822,0,0,1,.127-.031.926.926,0,0,1,.533.129,1.5,1.5,0,0,1,.695.929,1.9,1.9,0,0,1,.07.338.456.456,0,0,1,.02.137v.014c-.016.6-.026,1.294-.026,2q0,1.249.04,2.486c.023.626.056,1.181.1,1.618a5.485,5.485,0,0,0,.141.9,3.154,3.154,0,0,0,.645,1.219,1.579,1.579,0,0,0,1.688.338,2.707,2.707,0,0,0,1.54-.861,3.56,3.56,0,0,0,.618-1.772c.179-1.25.538-4.876.582-5.559a2.678,2.678,0,0,1,.18-1.211,1.279,1.279,0,0,1,.545-.6,1.673,1.673,0,0,1,.254-.111c-.088-.151-.167-.277-.249-.4l.009.013a5.579,5.579,0,0,1-.647-1.274l-.011-.035c-.1-.249-.186-.437-.275-.622l.021.046c-.131-.286-.3-.643-.471-1.044a14.6,14.6,0,0,1-.923-2.727,3.339,3.339,0,0,1,.278-2.621,2.37,2.37,0,0,1,2.4-.726c-.034-.125-.055-.229-.114-.4a9.919,9.919,0,0,0-1.035-2.11,6.144,6.144,0,0,0-5.076-3.087H12.4Zm-.774,17.979v.042h0Z" transform="translate(2.718)"/><path class="a" d="M7.851,7.77h0l0,0Z" transform="translate(1.431 1.306)"/><path class="a" d="M14.231.421c.017,0,.035-.007.051-.011L14.3.4Z" transform="translate(2.681)"/><path class="a" d="M9.321,7.093h.01l.008,0Z" transform="translate(1.719 1.193)"/><path class="a" d="M10.047,7.391h0Z" transform="translate(1.858 1.243)"/><path class="a" d="M10.56,12.937a6.4,6.4,0,0,0,.526-5.006.986.986,0,0,0-.62-.832,1.419,1.419,0,0,0-.486-.084H9.948a2.722,2.722,0,0,0-.617.077A4.61,4.61,0,0,0,8.2,7.54a2.387,2.387,0,0,0-.344.228l-.019.018c.006.146.034.5.046,1.021a13.22,13.22,0,0,1-.111,2.084,2.645,2.645,0,0,0,2.43,3.128A10.162,10.162,0,0,1,10.56,12.937ZM9.709,7.968h0a.68.68,0,0,1-.116-.161l0,0a.281.281,0,0,1-.041-.148c0-.01,0-.02,0-.03h0a.255.255,0,0,1,.188-.195A.835.835,0,0,1,10,7.39h.044v0a1.179,1.179,0,0,1,.164.013,1.068,1.068,0,0,1,.388.122.448.448,0,0,1,.13.105h0a.221.221,0,0,1,.054.147.193.193,0,0,1,0,.024h0a.309.309,0,0,1-.074.154.679.679,0,0,1-.139.129h0A.617.617,0,0,1,10.2,8.2a.7.7,0,0,1-.08-.005h0A.715.715,0,0,1,9.709,7.968Z" transform="translate(1.671 1.666)"/><path class="a" d="M8.177,7.55l.02-.01,0,0Zm9.938-3.8a8.4,8.4,0,0,1,1.1,1.865l.021.055a4.529,4.529,0,0,1,.223.66,1.371,1.371,0,0,1,.04.236.44.44,0,0,1-.012.144s0,.01-.006.013c.03.876-.185,1.47-.21,2.306-.02.606.133,1.318.171,2.1a4,4,0,0,1-.52,2.319c.04.048.075.1.113.144A21.977,21.977,0,0,0,21.64,7.566a11.908,11.908,0,0,0,.4-2.632,2.622,2.622,0,0,0-.291-1.46,5.637,5.637,0,0,0-4.623-2.165h-.144A8.56,8.56,0,0,0,15.3,1.5,7.428,7.428,0,0,1,18.115,3.752Z" transform="translate(4.477)"/><path class="a" d="M14.909.3H14.9a6.8,6.8,0,0,0-3.548.867A13.818,13.818,0,0,0,6.357.393a6.114,6.114,0,0,0-4.19,1.734C1,3.347.388,5.236.517,7.806a22.88,22.88,0,0,0,.578,3.363A39.378,39.378,0,0,0,2.5,16.019a10.581,10.581,0,0,0,2.26,4.014,2.8,2.8,0,0,0,2.03.867,2.62,2.62,0,0,0,1.552-.645,1.86,1.86,0,0,0,.668.527,3.253,3.253,0,0,0,.8.311,5.629,5.629,0,0,0,2.3.117,4.361,4.361,0,0,0,1.032-.315c.013.386.029.763.043,1.145a10.793,10.793,0,0,0,.446,3.308,4.294,4.294,0,0,0,.858,1.713,3.453,3.453,0,0,0,3.308.882,4.808,4.808,0,0,0,3.126-1.79c.837-1.18,1.215-2.873,1.29-5.618.019-.148.042-.275.065-.393l.2.018H22.5a7.074,7.074,0,0,0,3.2-.549,4.361,4.361,0,0,0,1.983-1.5,1.492,1.492,0,0,0,.283-.751,1.516,1.516,0,0,0-.527-1.2,1.6,1.6,0,0,0-1.616-.23,7.236,7.236,0,0,1-1.409.171h-.01a26.712,26.712,0,0,0,2.9-6.828,14.664,14.664,0,0,0,.53-3.443,3.97,3.97,0,0,0-.685-2.7A8.492,8.492,0,0,0,20.433,0c-.065,0-.13,0-.195,0V0a12.122,12.122,0,0,0-3.275.478l-.049.016A12.649,12.649,0,0,0,14.909.3Zm2.83.744A11.137,11.137,0,0,1,20.176.752h.007v0a7.7,7.7,0,0,1,6.327,2.829,3.427,3.427,0,0,1,.516,2.2,14.234,14.234,0,0,1-.507,3.259A26.076,26.076,0,0,1,23.1,16.616a.859.859,0,0,0,.18.1l.006,0a5,5,0,0,0,2.678-.056,1.078,1.078,0,0,1,.976.088.6.6,0,0,1,.217.464.344.344,0,0,1,0,.035h0a.818.818,0,0,1-.154.393,4.028,4.028,0,0,1-1.655,1.221,6.574,6.574,0,0,1-2.5.482,3.863,3.863,0,0,1-1.162-.132L21.67,19.2c-.13,1.238-.429,3.683-.624,4.8A3.9,3.9,0,0,1,20.1,26.15a4.221,4.221,0,0,1-2.244,1.068,3.065,3.065,0,0,1-2.694-.5,3.652,3.652,0,0,1-1-1.5,4.376,4.376,0,0,1-.22-1.082c-.055-.465-.094-1.034-.122-1.675s-.041-1.418-.041-2.188c0-.253,0-.506,0-.759a3.607,3.607,0,0,1-1.81.884l-.022,0a4.882,4.882,0,0,1-1.972-.105,2.666,2.666,0,0,1-.62-.238,1.124,1.124,0,0,1-.514-.46.646.646,0,0,1-.08-.313.607.607,0,0,1,.014-.133.715.715,0,0,1,.256-.383h0a2.292,2.292,0,0,1,1.009-.389,3.257,3.257,0,0,0,1.325-.432,7.154,7.154,0,0,0,.633-.727c0-.011,0-.028,0-.044v0a3.5,3.5,0,0,1-1.588-.428l.018.009c-.177.185-1.081,1.131-2.183,2.444a2.163,2.163,0,0,1-1.516.887,2,2,0,0,1-1.444-.645,10.31,10.31,0,0,1-2.069-3.722,38.714,38.714,0,0,1-1.377-4.751,23.135,23.135,0,0,1-.559-3.231C1.161,5.3,1.735,3.66,2.721,2.626a5.33,5.33,0,0,1,3.657-1.5,13.235,13.235,0,0,1,5.068.857,5.823,5.823,0,0,1,3.414-.932,8.864,8.864,0,0,1,2.044.268l-.06-.013.024-.011a7.272,7.272,0,0,1,.818-.239Z"/></g></svg>