<svg xmlns="http://www.w3.org/2000/svg" width="33.383" height="33.384" viewBox="0 0 33.383 33.384"><defs><style>.a{fill:#fff;}</style></defs><g transform="translate(0 -0.001)"><path class="a" d="M18.231,7.359h0V7.353Z" transform="translate(7.128 2.875)"/><path class="a" d="M26.293,22.293c2.317,0,3.174-1.616,3.98-4.039a13.621,13.621,0,0,0,0-8.093c-.574-2.3-1.661-4.039-3.98-4.039H23.307V9.656a5.111,5.111,0,0,1-4.977,5.052H10.371a4.06,4.06,0,0,0-3.98,4.046v7.586c0,2.16,1.878,3.427,3.98,4.046a13.4,13.4,0,0,0,7.958,0c2-.581,3.98-1.753,3.98-4.046V23.307H14.356V22.295H26.293Zm-7.465,3.034a1.517,1.517,0,1,1-1.5,1.513A1.507,1.507,0,0,1,18.828,25.327Z" transform="translate(2.499 2.393)"/><path class="a" d="M4.79,24.688H7.525V21.051A5.061,5.061,0,0,1,12.5,16.1H20.46a4.012,4.012,0,0,0,3.98-4.046V4.463A4.446,4.446,0,0,0,20.46.321,24.536,24.536,0,0,0,12.5.329h0c-3.369.6-3.978,1.839-3.978,4.141V7.5h7.966V8.517H5.536A4.973,4.973,0,0,0,.559,12.556a14.931,14.931,0,0,0,0,8.093C1.124,23,2.474,24.688,4.79,24.688ZM12,5.476a1.517,1.517,0,1,1,1.5-1.513A1.507,1.507,0,0,1,12,5.476Z"/></g></svg>