<svg xmlns="http://www.w3.org/2000/svg" width="31.87" height="27.922" viewBox="0 0 31.87 27.922"><defs><style>.a{fill:#fff;}</style></defs><path class="a" d="M55.629,159.706q.5-.168,1.008-.317c-.056-.231-.106-.461-.155-.692-.766-3.714-.262-6.7,1.438-7.685,1.637-.94,4.308.038,7.009,2.393.268.23.529.474.778.717.168-.162.342-.324.517-.48,2.832-2.518,5.67-3.577,7.37-2.587,1.631.948,2.116,3.759,1.431,7.273-.067.349-.143.692-.23,1.041.4.112.791.237,1.158.368,3.324,1.152,5.708,2.973,5.708,4.855,0,1.946-2.54,3.893-5.994,5.079-.28.094-.56.187-.847.268.094.374.175.742.249,1.122.654,3.459.143,6.2-1.487,7.142-1.681.972-4.506-.025-7.258-2.437-.218-.193-.435-.393-.653-.6-.274.268-.56.524-.847.773-2.664,2.294-5.3,3.222-6.922,2.282-1.681-.972-2.228-3.92-1.519-7.509q.084-.412.187-.842c-.2-.056-.392-.118-.585-.181-3.591-1.191-6.193-3.116-6.193-5.092,0-1.888,2.452-3.72,5.839-4.886Zm8.422-5.291c-2.315-2.019-4.475-2.811-5.459-2.244-1.052.6-1.457,3.048-.8,6.258.044.211.087.417.143.623a31.9,31.9,0,0,1,4.189-.66,31.485,31.485,0,0,1,2.65-3.309C64.536,154.851,64.3,154.633,64.05,154.415Zm7.2,13.412c-.317.542-.641,1.084-.983,1.614a28.228,28.228,0,0,0,2.888-.47,29.08,29.08,0,0,0-1.017-2.771c-.286.548-.579,1.09-.89,1.626Zm1.886-7.5c-.9-.2-1.849-.362-2.839-.486.33.517.654,1.046.959,1.583s.6,1.074.884,1.62C72.535,162.119,72.865,161.208,73.139,160.33Zm-1.706,4.3c-.411-.86-.859-1.7-1.332-2.53s-.983-1.633-1.519-2.424c-.937-.067-1.886-.106-2.857-.106s-1.93.038-2.857.106q-.795,1.178-1.513,2.412T60,164.6q.626,1.29,1.345,2.543c.473.829.977,1.633,1.506,2.431.928.067,1.892.1,2.87.1s1.923-.031,2.838-.087q.812-1.187,1.532-2.43c.479-.831.921-1.672,1.338-2.532Zm-11.242,3.191c-.317-.548-.616-1.1-.909-1.664a29.052,29.052,0,0,0-1.052,2.761,27.31,27.31,0,0,0,2.925.494c-.336-.522-.653-1.057-.965-1.593Zm-.9-4.766c.293-.548.592-1.1.9-1.633s.623-1.053.953-1.57a28.6,28.6,0,0,0-2.857.5,27.515,27.515,0,0,0,1,2.7Zm6.42-7.015a27.538,27.538,0,0,0-1.844,2.23c1.232-.056,2.471-.056,3.7,0C66.963,157.46,66.335,156.715,65.714,156.035Zm7.219-3.82c-1.046-.611-3.368.262-5.814,2.431-.156.134-.311.287-.473.436a31.576,31.576,0,0,1,2.67,3.309,32.717,32.717,0,0,1,4.183.648c.081-.318.149-.642.218-.967C74.3,155.057,73.919,152.782,72.933,152.215Zm1.525,16.428c.262-.075.517-.156.772-.243a12.638,12.638,0,0,0,3.921-1.946,2.8,2.8,0,0,0,1.171-1.863c0-1.141-1.967-2.6-4.806-3.59-.355-.125-.716-.237-1.077-.343a33.123,33.123,0,0,1-1.525,3.963,34.1,34.1,0,0,1,1.544,4.02ZM67.2,174.751a11.4,11.4,0,0,0,3.51,2.2,2.752,2.752,0,0,0,2.2.081c.989-.573,1.4-2.773.84-5.733-.067-.349-.143-.7-.23-1.041a31.166,31.166,0,0,1-4.227.611A32.882,32.882,0,0,1,66.6,174.2C66.8,174.389,67,174.577,67.2,174.751Zm-1.526-1.518a29.245,29.245,0,0,0,1.886-2.262c-.6.025-1.214.038-1.836.038-.641,0-1.272-.013-1.892-.044A26.811,26.811,0,0,0,65.675,173.234Zm-8.135,1.873a2.77,2.77,0,0,0,1.027,1.953c.99.573,3.1-.174,5.378-2.131.262-.224.523-.47.791-.717a30.878,30.878,0,0,1-2.627-3.341,30.644,30.644,0,0,1-4.245-.658c-.062.256-.118.511-.168.76A11.377,11.377,0,0,0,57.54,175.106Zm-1.13-6.7c.174.056.348.113.529.162a31.754,31.754,0,0,1,1.587-3.976A31.469,31.469,0,0,1,57,160.672c-.324.094-.635.193-.937.293-2.9,1-4.936,2.48-4.936,3.614,0,1.222,2.172,2.8,5.278,3.826Zm9.318-.934a2.855,2.855,0,1,1,2.851-2.855,2.851,2.851,0,0,1-2.851,2.855Z" transform="translate(-49.79 -150.658)"/></svg>