<svg xmlns="http://www.w3.org/2000/svg" width="28.864" height="26.838" viewBox="0 0 28.864 26.838"><defs><style>.a{fill:#fff;}</style></defs><g transform="translate(0 -0.501)"><path class="a" d="M8.58,4.119A5.973,5.973,0,0,1,12.8,2.174C16.449,2.1,17.97,6.7,18.087,8.523l1.688.512C19.387,3.437,15.943.5,12.649.5A7.835,7.835,0,0,0,5.557,6.1,14.472,14.472,0,0,0,6.942,18.217a1.52,1.52,0,0,0-.236.989,1.953,1.953,0,0,0,1.925,1.878H8.7a1.946,1.946,0,0,0-.051-3.89H8.58a.726.726,0,0,0-.254.033A12.856,12.856,0,0,1,6.554,9.513,9.32,9.32,0,0,1,8.58,4.119Z" transform="translate(1.42)"/><path class="a" d="M1.05,22.128a7.166,7.166,0,0,0,5.978,2.8A8.66,8.66,0,0,0,9.106,24.7a13.237,13.237,0,0,0,9.627-7.44l.016-.035a1.89,1.89,0,0,0,1.69-2,1.955,1.955,0,0,0-1.925-1.877h-.069a1.939,1.939,0,0,0-1.858,2.015,2.09,2.09,0,0,0,.557,1.313,12.5,12.5,0,0,1-5.64,5.462A9.167,9.167,0,0,1,5.931,23.2a4.85,4.85,0,0,1-3.512-2.048,5.135,5.135,0,0,1-.287-5.392A8.034,8.034,0,0,1,4.5,12.98a11.439,11.439,0,0,1-.473-1.756C-.977,14.841-.469,19.789,1.05,22.128Z" transform="translate(0 2.278)"/><path class="a" d="M25.349,21.838c1.012-2.048.929-5.495-1.656-8.448l-.016.034a13.874,13.874,0,0,0-10.86-4.813h-.575a1.815,1.815,0,0,0-1.687-1.025H10.5a1.9,1.9,0,0,0-1.856,2,1.956,1.956,0,0,0,1.925,1.878h.083a1.907,1.907,0,0,0,1.688-1.195h.626a12.988,12.988,0,0,1,7.314,2.269,9.339,9.339,0,0,1,3.648,4.438,4.757,4.757,0,0,1-.051,4.1,5.013,5.013,0,0,1-4.728,2.868,8.735,8.735,0,0,1-3.344-.734c-.4.339-1.081.9-1.571,1.246a10.756,10.756,0,0,0,4.441,1.074A7.525,7.525,0,0,0,25.349,21.838Z" transform="translate(2.913 1.815)"/></g></svg>