<svg xmlns="http://www.w3.org/2000/svg" width="127" height="133.951" viewBox="0 0 127 133.951"><defs><style>.a{fill:none;stroke:#812c71;stroke-width:5px;}.b{fill:#812c71;}</style></defs><g transform="translate(-1103.5 -1991.549)"><g transform="translate(1106 1994.049)"><path class="a" d="M-3579.114-5325.5V-5343l4.841-6.087,52.434-27.4h7.26l54.923,30.369,2.542,6.394v57.285l-5.932,6.928-51.4,27.976h-7.626l-54.229-30.108-2.808-4.8Z" transform="translate(3579.114 5376.485)"/></g><g transform="translate(1128.586 2015.816)"><path class="b" d="M2.367,34.678c1.364-17.562,14.3-31.411,30.461-32.6a30.9,30.9,0,0,1,24.5,9.557,37.239,37.239,0,0,1,10.332,25.4L78.407,49.908a3.043,3.043,0,0,1,.457,3.068,2.616,2.616,0,0,1-2.394,1.695h-6.2v8.541c-.006,5.5-4.1,9.958-9.155,9.965H51.961A1.369,1.369,0,0,0,50.653,74.6V85.988a1.369,1.369,0,0,1-1.308,1.424H12.724a1.369,1.369,0,0,1-1.308-1.424v-23.7A37.561,37.561,0,0,1,2.367,34.678ZM13.65,60.7a1.49,1.49,0,0,1,.382,1.005V84.565H48.037V74.6a4.108,4.108,0,0,1,3.924-4.27h9.155a6.855,6.855,0,0,0,6.539-7.118V53.248a1.369,1.369,0,0,1,1.308-1.424h7.507L65.38,38.547a1.5,1.5,0,0,1-.34-.958,34.162,34.162,0,0,0-9.517-23.9A28.669,28.669,0,0,0,33,4.917C21.222,5.756,10.985,14.01,6.818,26.026A34.861,34.861,0,0,0,13.653,60.7Z" transform="translate(-2.259 -1.996)"/><rect class="b" width="2.847" height="2.847" transform="translate(31.293 54.098)"/><rect class="b" width="2.847" height="2.847" transform="translate(31.293 59.792)"/><rect class="b" width="2.847" height="2.847" transform="translate(31.293 65.486)"/><rect class="b" width="2.847" height="2.847" transform="translate(31.293 71.18)"/><g transform="translate(17.367 13.822)"><path class="b" d="M24.484,35.549l2.825-.272a12.3,12.3,0,0,1,1.434-3.4l-1.795-2.169a.523.523,0,0,1,.034-.7L30.02,25.97a.523.523,0,0,1,.7-.033l2.168,1.8a11.956,11.956,0,0,1,3.4-1.432l.272-2.823a.527.527,0,0,1,.52-.478h4.151a.527.527,0,0,1,.52.478l.272,2.82a11.962,11.962,0,0,1,3.4,1.433l2.167-1.794a.523.523,0,0,1,.7.033l3.038,3.038a.523.523,0,0,1,.033.7l-1.8,2.169A12.294,12.294,0,0,1,51,35.277l2.831.272a.533.533,0,0,1,.484.52v4.307a.533.533,0,0,1-.484.52l-2.823.271a11.966,11.966,0,0,1-1.434,3.4l1.793,2.167a.523.523,0,0,1-.034.7l-3.038,3.038a.523.523,0,0,1-.7.033l-2.169-1.8a12.294,12.294,0,0,1-3.4,1.431l-.272,2.82a.523.523,0,0,1-.52.473H37.081a.523.523,0,0,1-.52-.472l-.272-2.82a12.3,12.3,0,0,1-3.4-1.431l-2.169,1.8a.523.523,0,0,1-.7-.033l-3.038-3.038a.523.523,0,0,1-.033-.7l1.795-2.167a11.958,11.958,0,0,1-1.432-3.4L24.483,40.9a.533.533,0,0,1-.483-.52V36.069a.533.533,0,0,1,.484-.52Zm.561,4.352,2.73.262a.529.529,0,0,1,.466.41,10.94,10.94,0,0,0,1.581,3.744.523.523,0,0,1-.032.622l-1.734,2.094L30.423,49.4l2.095-1.735a.523.523,0,0,1,.62-.035,11.267,11.267,0,0,0,3.749,1.581.523.523,0,0,1,.407.46l.262,2.719h3.2l.262-2.719a.523.523,0,0,1,.407-.46,11.264,11.264,0,0,0,3.749-1.581.523.523,0,0,1,.62.035L47.89,49.4l2.365-2.365-1.735-2.094a.523.523,0,0,1-.033-.622,10.933,10.933,0,0,0,1.578-3.744.536.536,0,0,1,.472-.41l2.731-.261V36.543l-2.73-.261a.529.529,0,0,1-.466-.407,11.272,11.272,0,0,0-1.583-3.75.523.523,0,0,1,.033-.62l1.734-2.095L47.89,27.046,45.8,28.781a.523.523,0,0,1-.622.033,10.933,10.933,0,0,0-3.744-1.579.528.528,0,0,1-.41-.466l-.262-2.724h-3.2l-.262,2.724a.526.526,0,0,1-.41.463,10.936,10.936,0,0,0-3.744,1.58.523.523,0,0,1-.622-.033l-2.094-1.734-2.365,2.366,1.735,2.095a.523.523,0,0,1,.035.62,11.264,11.264,0,0,0-1.58,3.749.536.536,0,0,1-.472.407l-2.73.262Z" transform="translate(-24 -23)"/><path class="b" d="M129.922,121.109a8.813,8.813,0,1,1-8.813,8.813A8.823,8.823,0,0,1,129.922,121.109Zm-7.753,8.355H127.1a2.864,2.864,0,0,1,2.363-2.363v-4.933A7.778,7.778,0,0,0,122.168,129.464Zm7.753,2.269a1.812,1.812,0,1,0-1.812-1.812A1.812,1.812,0,0,0,129.922,131.734Zm.588-9.557v4.949a2.865,2.865,0,0,1,2.232,2.339h4.933A7.779,7.779,0,0,0,130.51,122.176Zm7.157,8.333h-4.949a2.866,2.866,0,0,1-2.208,2.208v4.949A7.78,7.78,0,0,0,137.667,130.51Zm-8.2,7.166v-4.933a2.865,2.865,0,0,1-2.339-2.232h-4.949A7.779,7.779,0,0,0,129.464,137.675Z" transform="translate(-114.765 -114.699)"/></g></g></g></svg>