<svg xmlns="http://www.w3.org/2000/svg" width="27.39" height="26.889" viewBox="0 0 27.39 26.889"><defs><style>.a{fill:#fff;}</style></defs><path class="a" d="M7.622,32.039H20.99S18.025,25.3,18.778,19.123a10.393,10.393,0,0,1,8.392-9.3,5.117,5.117,0,0,1,4.272,1.408l.6-.9s-3.97-4.02-9-3.568S14.556,10.53,12.4,14.55A36.47,36.47,0,0,0,8.125,25.607a20.167,20.167,0,0,0-.5,6.433ZM4.959,25.3l2.613.2-.453,2.613-2.463-.3.3-2.513ZM9.08,19.776l.7-1.96-2.312-.9-.753,2.11Zm3.267-6.735L13.7,11.433l-1.759-1.155-1.407,1.557ZM15.915,6.81l1.206,1.457,1.659-.955L17.574,5.955l-1.659.855Zm5.88-1.659.3,1.457,2.061-.051-.2-1.306-2.161-.1ZM28.78,6.708l-.051.9,1.408.753.3-.453L28.781,6.707Zm-.3,3.871v.753l1.357.151v-.6l-1.357-.3Zm-4.321.653.653,1.206.955-.753-.2-.8-1.407.353ZM22.1,12.79l1,1.508-.6,1.055-1.457-1.608L22.1,12.79Zm-2.01,4.171-.653,1.306,1.708,1.457.4-1.659L20.086,16.96Zm-.7,4.573-.1,1.759,2.11.9-.1-1.659-1.91-1.006Zm.6,6.231.5,1.81,2.663.151-.955-1.96H19.986Z" transform="translate(-4.656 -5.151)"/></svg>