<svg xmlns="http://www.w3.org/2000/svg" width="141.496" height="135.661" viewBox="0 0 141.496 135.661"><defs><style>.a{fill:#fff;}</style></defs><path class="a" d="M196.043,402.722l93.477,12.741-31.6-52.625L196.049,402.7ZM298.369,304.2q-4.147,6.217-8.281,12.441-14.212,21.379-28.405,42.757c-.529.8-1.21,1.427-.471,2.644q13.722,22.646,27.309,45.369a59.173,59.173,0,0,0,4.739,7.058l5.517-110.148-.4-.115ZM173.556,351.27a2.242,2.242,0,0,0,2.019.408c8.772-4.313,17.595-8.523,26.169-13.193,2.8-1.523,4.95-4.243,7.364-6.459q11.963-10.982,23.908-21.984a6.071,6.071,0,0,0,1.357-1.452c2.867-5.593,5.67-11.212,8.587-17-3.472-1.306-6.759-2.58-10.091-3.739a2.548,2.548,0,0,0-1.656.427c-7.714,4.306-15.563,8.383-23.029,13.085-3.739,2.351-6.784,5.816-10.09,8.829q-8.007,7.281-15.926,14.7a26.89,26.89,0,0,0-3.752,4.4c-3.593,5.23-7.077,10.536-10.721,15.989,2.038,2.115,3.892,4.134,5.873,6.007Zm32.049-7.147L192.425,399.8l61.932-39.9L205.6,344.129Zm87.406-39.744-52.638,8.791,17.837,43.452,34.775-52.236Zm-86.674,35.973,47.777,15.512-17.671-43.044ZM174.219,362.01,157.5,402l31.851-.943-15.129-39.037Zm15.5,29.8.4-.089c3.822-15.894,7.7-31.692,11.607-48.21l-25.551,13.263c4.357,11.32,8.995,23.258,13.55,35.036ZM286.584,301.8,271.3,297.766c-7.313-1.911-14.652-3.822-21.939-5.765-.911-.242-1.573-.4-2.115.7-2.58,5.294-5.243,10.549-7.867,15.817a3.889,3.889,0,0,0-.127.784l47.3-7.167Zm-29.507-12.033,41.451,11.466-6.848-19.519-34.54,7.644-.064.389ZM193.24,405.774c-5.141-.586-10.409-.045-15.614.045-4.281.076-8.555.236-12.83.363a1.688,1.688,0,0,0-1.319.58l106.078,9.81.07-.478-34-4.644C221.5,409.539,207.395,407.4,193.24,405.774ZM158.2,389.791q6.842-15.849,13.671-31.718a1.993,1.993,0,0,0-.471-2.631c-1.911-1.816-3.688-3.784-5.784-5.956l-8.339,41.19.306.147a7.732,7.732,0,0,0,.637-1.026Zm89.821-102.823c7.683-1.981,15.48-3.529,23.226-5.262.5-.108.994-.274,1.491-.414l-.076-.382-33.3,4.459c3.121,1.363,5.536,2.382,8.657,1.58Z" transform="translate(-157.28 -280.91)"/></svg>