<svg xmlns="http://www.w3.org/2000/svg" width="24.622" height="28" viewBox="0 0 24.622 28"><defs><style>.a{fill:#fff;}</style></defs><path class="a" d="M16.2,27.976l8.419-1.821S21.584,5.6,21.56,5.469a.259.259,0,0,0-.246-.224c-.117,0-2.251-.159-2.251-.159S17.576,3.6,17.384,3.44a.44.44,0,0,0-.138-.085h0L16.177,27.971H16.2ZM11.972,13.189a4.9,4.9,0,0,0-2.065-.495h0c-1.688,0-1.75,1.057-1.75,1.331,0,1.437,3.78,2,3.78,5.4,0,2.683-1.68,4.387-3.974,4.387l-.155,0a5.457,5.457,0,0,1-3.973-1.709l0,0,.754-2.434a5.279,5.279,0,0,0,2.63,1.24l.03,0h.036a1.1,1.1,0,0,0,1.1-1.087h0c0-1.889-3.1-1.976-3.1-5.085-.044-2.607,1.828-5.152,5.627-5.152.072,0,.156-.006.24-.006a4.625,4.625,0,0,1,1.975.44l-.028-.012L12,13.185l-.023.012ZM11.342.968a.781.781,0,0,1,.469.159h0c-1.142.542-2.4,1.907-2.92,4.657-.765.248-1.509.473-2.2.674C7.294,4.375,8.753.98,11.342.98Zm1.435,3.44v.157c-.88.271-1.847.565-2.793.859A4.856,4.856,0,0,1,12.4,1.972l.024-.013a6.73,6.73,0,0,1,.365,2.207c0,.085,0,.17,0,.254V4.409ZM13.406,1.8c.81.086,1.331,1.011,1.667,2.047-.407.133-.858.27-1.351.427V3.983c0-.046,0-.1,0-.154a6.632,6.632,0,0,0-.331-2.075l.013.047Zm3.491,1.5c-.023,0-.07.024-.091.024s-.337.088-.833.245C15.479,2.137,14.6.811,13.047.811h-.134A1.922,1.922,0,0,0,11.458,0h0C7.83,0,6.1,4.523,5.556,6.82c-1.393.426-2.407.742-2.52.786-.787.248-.81.271-.9,1.015C2.048,9.161,0,25.028,0,25.028L15.821,28,16.9,3.306Z"/></svg>