<svg xmlns="http://www.w3.org/2000/svg" width="21.008" height="23.75" viewBox="0 0 21.008 23.75"><defs><style>.a{fill:#fff;}</style></defs><g transform="translate(-2 -1)"><path class="a" d="M23.008,3.375c0,1.311-4.7,2.375-10.5,2.375S2,4.686,2,3.375,6.7,1,12.5,1,23.008,2.064,23.008,3.375Z"/><path class="a" d="M12.5,5.875C6.727,5.875,2,4.767,2,3.5V8.25c0,1.267,4.727,2.375,10.5,2.375s10.5-1.108,10.5-2.375V3.5C23.008,4.767,18.281,5.875,12.5,5.875Z" transform="translate(0 1.458)"/><path class="a" d="M12.5,9.875C6.727,9.875,2,8.767,2,7.5v4.75c0,1.267,4.727,2.375,10.5,2.375s10.5-1.108,10.5-2.375V7.5C23.008,8.767,18.281,9.875,12.5,9.875Z" transform="translate(0 3.792)"/><path class="a" d="M12.5,13.875C6.727,13.875,2,12.767,2,11.5v4.75c0,1.267,4.727,2.375,10.5,2.375s10.5-1.108,10.5-2.375V11.5C23.008,12.767,18.281,13.875,12.5,13.875Z" transform="translate(0 6.125)"/></g></svg>