<svg xmlns="http://www.w3.org/2000/svg" width="237.378" height="223.015" viewBox="0 0 237.378 223.015"><defs><style>.a{fill:#702061;}.b{fill:#e5e5e5;stroke:#3a6b7b;stroke-width:10px;}.c,.h{fill:none;}.c{stroke:#231f20;}.c,.d{stroke-miterlimit:10;stroke-width:0.296px;}.d,.e{fill:#3a6b7b;}.d{stroke:#414042;}.f,.g{stroke:none;}.g{fill:#702061;}</style></defs><g transform="translate(-1099.622 -1450)"><g class="a" transform="translate(1144.318 1503.053) rotate(131)"><path class="f" d="M 0.5987118482589722 47.41553497314453 L 8.210967063903809 3.715877056121826 L 12.43089580535889 46.95887756347656 L 0.5987118482589722 47.41553497314453 Z"/><path class="g" d="M 8.071212768554688 7.431716918945312 L 1.197425842285156 46.89205169677734 L 11.88176536560059 46.47968673706055 L 8.071212768554688 7.431716918945312 M 8.350727081298828 -3.814697265625e-06 L 12.98003673553467 47.43804550170898 L -3.814697265625e-06 47.93901824951172 L 8.350727081298828 -3.814697265625e-06 Z"/></g><g class="a" transform="translate(1153.484 1612.408) rotate(92)"><path class="f" d="M 0.6552615761756897 34.96626663208008 L 9.677714347839355 1.915927648544312 L 18.51227188110352 34.91928482055664 L 0.6552615761756897 34.96626663208008 Z"/><path class="g" d="M 9.672975540161133 3.831853866577148 L 1.310523986816406 34.46453094482422 L 17.86127662658691 34.42099380493164 L 9.672975540161133 3.831853866577148 M 9.682446479797363 -3.814697265625e-06 L 19.16325759887695 35.41757583618164 L -3.814697265625e-06 35.46798706054688 L 9.682446479797363 -3.814697265625e-06 Z"/></g><g class="a" transform="matrix(0.342, -0.94, 0.94, 0.342, 1296.665, 1652.707)"><path class="f" d="M 0.6701075434684753 35.49316024780273 L 10.38286876678467 1.950256943702698 L 18.36475944519043 35.06044006347656 L 0.6701075434684753 35.49316024780273 Z"/><path class="g" d="M 10.33869361877441 3.900482177734375 L 1.340215682983398 34.97661209106445 L 17.73359107971191 34.57572555541992 L 10.33869361877441 3.900482177734375 M 10.4270486831665 -3.814697265625e-06 L 18.99593925476074 35.5451545715332 L -1.9073486328125e-06 36.00968551635742 L 10.4270486831665 -3.814697265625e-06 Z"/></g><g class="a" transform="matrix(-0.719, -0.695, 0.695, -0.719, 1267.113, 1499.287)"><path class="f" d="M 15.92475414276123 37.65757751464844 L 0.5946679711341858 37.0563850402832 L 6.89033031463623 2.342831611633301 L 15.92475414276123 37.65757751464844 Z"/><path class="g" d="M 6.973591804504395 4.685688018798828 L 1.189350128173828 36.57932662963867 L 15.27411460876465 37.13168334960938 L 6.973591804504395 4.685688018798828 M 6.807075500488281 0 L 16.57539558410645 38.1834831237793 L -3.814697265625e-06 37.53345108032227 L 6.807075500488281 0 Z"/></g><g class="a" transform="translate(1153.892 1490.833) rotate(172)"><path class="f" d="M 0.6137505769729614 40.72731399536133 L 8.389451026916504 2.624393939971924 L 15.37363815307617 40.56164932250977 L 0.6137505769729614 40.72731399536133 Z"/><path class="g" d="M 8.364200592041016 5.248779296875 L 1.227511405944824 40.22038269042969 L 14.77442455291748 40.06834030151367 L 8.364200592041016 5.248779296875 M 8.414710998535156 -3.814697265625e-06 L 15.97286128997803 41.05495452880859 L 1.9073486328125e-06 41.23422622680664 L 8.414710998535156 -3.814697265625e-06 Z"/></g><g class="a" transform="translate(1172.512 1633.26) rotate(21)"><path class="f" d="M 11.03861522674561 37.59955596923828 L 0.5663381814956665 37.31673049926758 L 4.932232856750488 3.302746295928955 L 11.03861522674561 37.59955596923828 Z"/><path class="g" d="M 5.012405395507812 6.605493545532227 L 1.132676124572754 36.83184051513672 L 10.43881034851074 37.08317184448242 L 5.012405395507812 6.605493545532227 M 4.852058410644531 0 L 11.63841819763184 38.11594009399414 L -9.5367431640625e-07 37.80162048339844 L 4.852058410644531 0 Z"/></g><g class="b" transform="translate(1169.026 1507.232)"><ellipse class="f" cx="71.5" cy="73.006" rx="71.5" ry="73.006"/><ellipse class="h" cx="71.5" cy="73.006" rx="66.5" ry="68.006"/></g><g transform="translate(1184.018 1539.318)"><path class="c" d="M29.887,96.733" transform="translate(-29.887 -62.913)"/><path class="d" d="M46.033,139.013h73.515V122.987a13.412,13.412,0,0,0-1.118-1.814c-3.52-4.8-10.872-7.937-17.053-5.14a14.178,14.178,0,0,0-6.15,5.745l-.808-8.741a12.3,12.3,0,0,0-1.688-5.471c-2.741-4.452-9.8-7.509-15.656-4.536-5.063,2.57-6.565,8.273-6.8,9.239L69.806,123.6a9.354,9.354,0,0,0-1.118-3.046c-3.577-6.045-14.887-7.78-20.129-2.094a11.672,11.672,0,0,0-2.8,6.047Z" transform="translate(-31.884 -63.191)"/><ellipse class="d" cx="9.645" cy="9.525" rx="9.645" ry="9.525" transform="translate(65.589 25.628)"/><ellipse class="d" cx="9.645" cy="9.525" rx="9.645" ry="9.525" transform="translate(41.127 13.534)"/><ellipse class="d" cx="9.645" cy="9.525" rx="9.645" ry="9.525" transform="translate(15.687 27.443)"/><path class="e" d="M66.076,74.424l1.659-.048.023-2.24,1.727-.05V74.4l1.91-.1.047,2.041-2.027.025.116,2.217-1.771.025V76.465l-1.685.076Z" transform="translate(-34.439 -61.571)"/><path class="e" d="M73.863,66.749l1.659-.048.023-2.24,1.727-.05V66.73l1.91-.1.047,2.041L77.2,68.7l.116,2.217-1.771.025V68.8l-1.685.076Z" transform="translate(-35.418 -61.153)"/><path class="e" d="M84.466,63.3l1.659-.045.023-2.24,1.727-.048v2.318l1.91-.1.047,2.038-2.027.025.116,2.22-1.771.025V65.35l-1.685.073Z" transform="translate(-36.751 -60.965)"/><path class="e" d="M94.415,66.14l1.659-.045.023-2.24,1.727-.048v2.318l1.91-.1.047,2.038-2.027.025.116,2.22-1.771.025V68.192l-1.685.073Z" transform="translate(-38.002 -61.12)"/><path class="e" d="M102.658,74.185l1.659-.045.023-2.24,1.727-.048v2.318l1.91-.1.047,2.041L106,76.133l.116,2.22-1.771.022V76.237l-1.685.073Z" transform="translate(-39.039 -61.558)"/></g></g></svg>