<svg xmlns="http://www.w3.org/2000/svg" width="19.268" height="19.268" viewBox="0 0 19.268 19.268"><defs><style>.a{fill:#702061;}</style></defs><path class="a" d="M4.488,13.479a9.447,9.447,0,0,1,1.3-4.843A9.626,9.626,0,0,1,9.3,5.12a9.616,9.616,0,0,1,8.564-.53,9.72,9.72,0,0,1,3.072,2.053,9.433,9.433,0,0,1,2.053,3.08,9.568,9.568,0,0,1-5.125,12.611,9.6,9.6,0,0,1-7.495,0,9.481,9.481,0,0,1-5.134-5.116A9.272,9.272,0,0,1,4.488,13.479Zm2.122,0a7.271,7.271,0,0,0,2.216,5.288,7.227,7.227,0,0,0,5.3,2.216,7.274,7.274,0,0,0,3.756-1.01,7.591,7.591,0,0,0,2.746-2.738,7.453,7.453,0,0,0,0-7.521,7.548,7.548,0,0,0-2.746-2.746,7.492,7.492,0,0,0-7.512,0A7.7,7.7,0,0,0,7.619,9.714,7.245,7.245,0,0,0,6.61,13.479Zm3.354-1.763a.662.662,0,0,1,.06-.539.708.708,0,0,1,.436-.342.678.678,0,0,1,.548.06l2.379,1.343V7.781a.71.71,0,1,1,1.42,0v5.707a.708.708,0,0,1-1.189.522L10.3,12.153A.778.778,0,0,1,9.964,11.717Z" transform="translate(-4.488 -3.828)"/></svg>