<svg xmlns="http://www.w3.org/2000/svg" width="241.19" height="210.3" viewBox="0 0 241.19 210.3"><defs><style>.a{fill:#fff;}</style></defs><path class="a" d="M238.09,269.23a5.49,5.49,0,0,0-4.77,3.54l-37.93,65.54a5.55,5.55,0,0,0,1.73,7.62,5.45,5.45,0,0,0,7.55-1.75l.18-.3,33.74-58.29,14.55,24-34.25,59.16H183.68a5.5,5.5,0,0,0-5.48,5.52,5.56,5.56,0,0,0,.68,2.68l54.8,99.41a5.5,5.5,0,0,0,4.8,2.84h118.9a5.47,5.47,0,0,0,7-3.31,6.108,6.108,0,0,0,.26-1l53.6-97.23a5.57,5.57,0,0,0,0-6.78L364,272.43v-.07a2.39,2.39,0,0,0-.13-.21,1.35,1.35,0,0,0-.15-.26,1.071,1.071,0,0,0-.15-.22,4.343,4.343,0,0,0-.32-.43c-.12-.14-.25-.28-.38-.41l-.22-.19-.19-.16a5.157,5.157,0,0,0-.45-.32c-.15-.1-.31-.19-.47-.28l-.51-.22-.52-.17-.49-.13h-.09a5.462,5.462,0,0,0-1.34-.06H239.29A5.309,5.309,0,0,0,238.09,269.23Zm10.15,11.11H349.35l-13.14,22.09H261.64Zm110.64,5.55,45.66,82.82H378.87l-20.4-41.12a5.47,5.47,0,0,0-7.24-2.79,5.55,5.55,0,0,0-2.77,7.3c.07.14.13.27.21.41l18,36.2H345.78l-17.67-31.18Zm-90.56,27.59h61.31l-9.86,16.57H278.36Zm-8.69,6.77L269.76,337l-18,31.76H231.57Zm25.43,20.84h28.13l-13.93,23.39Zm-8.77,6.63,12.73,21H264.38Zm45.36.69,11.49,20.3H309.55ZM193,379.75h25.9l36.31,62.7v.1a5.48,5.48,0,0,0,5.89,3.48h74.76l13.4,22.09H241.71Zm38.58,0H252l20.1,30.38-11.62,19.52Zm33.58,0h25L278.3,399.64Zm43.38,0h23.84l-12.46,18.82Zm37,0h20.4l-28,48.46-11.67-19.27Zm33.1,0h25.9l-45.73,82.93-14.43-23.77Zm-79.25,6L329.21,435H270.1Z" transform="translate(-178.2 -269.222)"/></svg>