<svg xmlns="http://www.w3.org/2000/svg" width="28.275" height="28.275" viewBox="0 0 28.275 28.275"><defs><style>.a{fill:#fff;}</style></defs><path class="a" d="M4.356,16.137A11.782,11.782,0,0,0,11,26.74l-5.62-15.4A11.734,11.734,0,0,0,4.356,16.137Zm11.988,1.03L12.809,27.439a11.786,11.786,0,0,0,7.241-.188,1.054,1.054,0,0,1-.084-.162Zm7.746-1.625a6.2,6.2,0,0,0-.971-3.249,5.518,5.518,0,0,1-1.157-2.763A2.04,2.04,0,0,1,23.941,7.44c.052,0,.1.006.153.009a11.779,11.779,0,0,0-17.8,2.217c.276.009.537.014.758.014,1.232,0,3.14-.15,3.14-.15a.487.487,0,0,1,.075.971s-.639.075-1.348.112l4.29,12.761,2.579-7.732-1.836-5.029c-.635-.037-1.236-.112-1.236-.112a.487.487,0,0,1,.075-.971s1.945.15,3.1.15c1.232,0,3.14-.15,3.14-.15a.487.487,0,0,1,.075.971s-.639.075-1.348.112l4.258,12.664,1.215-3.851A13.575,13.575,0,0,0,24.091,15.543ZM26.555,11.7a11.121,11.121,0,0,1-.9,4.22l-3.6,10.4a11.783,11.783,0,0,0,4.415-15.835A9.039,9.039,0,0,1,26.555,11.7ZM16.138,2A14.138,14.138,0,1,0,30.275,16.138,14.138,14.138,0,0,0,16.138,2ZM21.31,28.383a13.3,13.3,0,1,1,5.848-4.816A13.272,13.272,0,0,1,21.31,28.383Z" transform="translate(-2 -2)"/></svg>